<svg width="320" height="72" viewBox="0 0 320 72" fill="none" xmlns="http://www.w3.org/2000/svg">
<path d="M3.45201 52.4089L3.37947 52.138L3.23522 51.8975C2.94566 51.4147 2.65188 50.5816 2.42592 49.3387C2.20517 48.1244 2.07121 46.6471 2.02178 44.9695C1.92296 41.6156 2.16578 37.6096 2.63891 33.598C3.11157 29.5905 3.80778 25.6306 4.5977 22.3761C5.41347 19.0151 6.26118 16.7078 6.91661 15.7588L6.92867 15.7413L6.94036 15.7236C7.71398 14.551 9.13372 13.3055 11.5717 12.077C14.0038 10.8515 17.3378 9.69893 21.7866 8.65437C30.6865 6.56473 43.7687 4.96986 62.3885 3.9557C90.713 2.54862 203.464 -0.724255 269.488 6.60403L269.488 6.60407C284.085 8.22137 296.568 12.3703 305.223 17.9272C313.931 23.5189 318.38 30.2489 317.974 37.0158L317.971 37.0756V37.1355V37.2919V37.2992V37.3066V37.314V37.3214V37.3289V37.3364V37.3439V37.3514V37.359V37.3666V37.3742V37.3819V37.3896V37.3973V37.405V37.4128V37.4205V37.4284V37.4362V37.4441V37.452V37.4599V37.4679V37.4758V37.4838V37.4919V37.4999V37.508V37.5161V37.5243V37.5324V37.5406V37.5489V37.5571V37.5654V37.5737V37.582V37.5903V37.5987V37.6071V37.6155V37.624V37.6325V37.641V37.6495V37.658V37.6666V37.6752V37.6838V37.6925V37.7012V37.7099V37.7186V37.7274V37.7361V37.7449V37.7537V37.7626V37.7715V37.7804V37.7893V37.7982V37.8072V37.8162V37.8252V37.8342V37.8433V37.8524V37.8615V37.8706V37.8798V37.889V37.8982V37.9074V37.9166V37.9259V37.9352V37.9445V37.9539V37.9632V37.9726V37.982V37.9914V38.0009V38.0104V38.0199V38.0294V38.0389V38.0485V38.0581V38.0677V38.0773V38.0869V38.0966V38.1063V38.116V38.1257V38.1355V38.1453V38.1551V38.1649V38.1747V38.1846V38.1945V38.2044V38.2143V38.2242V38.2342V38.2442V38.2542V38.2642V38.2742V38.2843V38.2944V38.3045V38.3146V38.3247V38.3349V38.3451V38.3553V38.3655V38.3758V38.386V38.3963V38.4066V38.4169V38.4272V38.4376V38.448V38.4584V38.4688V38.4792V38.4896V38.5001V38.5106V38.5211V38.5316V38.5421V38.5527V38.5633V38.5739V38.5845V38.5951V38.6058V38.6164V38.6271V38.6378V38.6485V38.6592V38.67V38.6808V38.6915V38.7023V38.7132V38.724V38.7348V38.7457V38.7566V38.7675V38.7784V38.7893V38.8003V38.8113V38.8222V38.8332V38.8442V38.8553V38.8663V38.8774V38.8885V38.8996V38.9107V38.9218V38.9329V38.9441V38.9552V38.9664V38.9776V38.9888V39.0001V39.0113V39.0226V39.0338V39.0451V39.0564V39.0677V39.0791V39.0904V39.1018V39.1132V39.1245V39.1359V39.1474V39.1588V39.1702V39.1817V39.1932V39.2046V39.2161V39.2276V39.2392V39.2507V39.2622V39.2738V39.2854V39.297V39.3086V39.3202V39.3318V39.3435V39.3551V39.3668V39.3784V39.3901V39.4018V39.4135V39.4253V39.437V39.4488V39.4605V39.4723V39.4841V39.4959V39.5077V39.5195V39.5313V39.5432V39.555V39.5669V39.5788V39.5906V39.6025V39.6144V39.6264V39.6383V39.6502V39.6622V39.6741V39.6861V39.6981V39.7101V39.7221V39.7341V39.7461V39.7581V39.7702V39.7822V39.7943V39.8063V39.8184V39.8305V39.8426V39.8547V39.8668V39.879V39.8911V39.9032V39.9154V39.9275V39.9397V39.9519V39.9641V39.9763V39.9885V40.0007V40.0129V40.0251V40.0374V40.0496V40.0619V40.0741V40.0864V40.0987V40.1109V40.1232V40.1355V40.1478V40.1602V40.1725V40.1848V40.1971V40.2095V40.2218V40.2342V40.2465V40.2589V40.2713V40.2837V40.2961V40.3084V40.3208V40.3333V40.3457V40.3581V40.3705V40.3829V40.3954V40.4078V40.4203V40.4327V40.4452V40.4577V40.4701V40.4826V40.4951V40.5076V40.5201V40.5326V40.5451V40.5576V40.5701V40.5826V40.5951V40.6076V40.6202V40.6327V40.6452V40.6578V40.6703V40.6829V40.6954V40.708V40.7206V40.7331V40.7457V40.7583V40.7708V40.7834V40.796V40.8086V40.8212V40.8338V40.8464V40.859V40.8716V40.8842V40.8968V40.9094V40.922V40.9346V40.9473V40.9599V40.9725V40.9851V40.9978V41.0104V41.023V41.0357V41.0483V41.0609V41.0736V41.0862V41.0989V41.1115V41.1242V41.1368V41.1494V41.1621V41.1748V41.1874V41.2001V41.2127V41.2254V41.238V41.2507V41.2633V41.276V41.2886V41.3013V41.314V41.3266V41.3393V41.3519V41.3646V41.3773V41.3899V41.4026V41.4152V41.4279V41.4405V41.4532V41.4659V41.4785V41.4912V41.5038V41.5165V41.5291V41.5418V41.5544V41.5671V41.5797V41.5924V41.605V41.6176V41.6303V41.6429V41.6555V41.6682V41.6808V41.6934V41.7061V41.7187V41.7313V41.7439V41.7566V41.7692V41.7818V41.7944V41.807V41.8196V41.8322V41.8448V41.8574V41.87V41.8826V41.8952V41.9078V41.9203V41.9329V41.9455V41.9581V41.9706V41.9832V41.9958V42.0083V42.0209V42.0334V42.0459V42.0585V42.071V42.0835V42.0961V42.1086V42.1211V42.1336V42.1461V42.1586V42.1711V42.1836V42.1961V42.2086V42.221V42.2335V42.246V42.2584V42.2709V42.2833V42.2958V42.3082V42.3206V42.3331V42.3455V42.3579V42.3703V42.3827V42.3951V42.4075V42.4199V42.4322V42.4446V42.457V42.4693V42.4817V42.494V42.5063V42.5187V42.531V42.5433V42.5556V42.5679V42.5802V42.5924V42.6047V42.617V42.6292V42.6415V42.6537V42.666V42.6782V42.6904V42.7026V42.7148V42.727V42.7392V42.7514V42.7635V42.7757V42.7878V42.8V42.8121V42.8242V42.8364V42.8485V42.8605V42.8726V42.8847V42.8968V42.9088V42.9209V42.9329V42.9449V42.957V42.969V42.981V42.993V43.0049V43.0169V43.0289V43.0408V43.0527V43.0647V43.0766C317.971 44.3848 317.953 45.1406 317.703 45.8677L317.661 45.9905L317.636 46.1176C316.73 50.5703 315.395 54.4055 311.856 57.597C308.263 60.8376 302.144 63.6401 291.159 65.3331L291.149 65.3347L291.138 65.3364C276.763 67.7068 261.728 68.173 230.941 69.1276C225.546 69.2949 219.668 69.4772 213.225 69.6873H213.219H213.212H213.204H213.196H213.189H213.181H213.173H213.165H213.158H213.15H213.142H213.135H213.127H213.119H213.112H213.104H213.096H213.089H213.081H213.073H213.065H213.058H213.05H213.042H213.035H213.027H213.019H213.012H213.004H212.996H212.989H212.981H212.973H212.965H212.958H212.95H212.942H212.935H212.927H212.919H212.912H212.904H212.896H212.889H212.881H212.873H212.865H212.858H212.85H212.842H212.835H212.827H212.819H212.812H212.804H212.796H212.789H212.781H212.773H212.765H212.758H212.75H212.742H212.735H212.727H212.719H212.712H212.704H212.696H212.689H212.681H212.673H212.665H212.658H212.65H212.642H212.635H212.627H212.619H212.612H212.604H212.596H212.589H212.581H212.573H212.565H212.558H212.55H212.542H212.535H212.527H212.519H212.512H212.504H212.496H212.489H212.481H212.473H212.465H212.458H212.45H212.442H212.435H212.427H212.419H212.412H212.404H212.396H212.389H212.381H212.373H212.365H212.358H212.35H212.342H212.335H212.327H212.319H212.312H212.304H212.296H212.289H212.281H212.273H212.265H212.258H212.25H212.242H212.235H212.227H212.219H212.212H212.204H212.196H212.189H212.181H212.173H212.165H212.158H212.15H212.142H212.135H212.127H212.119H212.112H212.104H212.096H212.089H212.081H212.073H212.065H212.058H212.05H212.042H212.035H212.027H212.019H212.012H212.004H211.996H211.989H211.981H211.973H211.965H211.958H211.95H211.942H211.935H211.927H211.919H211.912H211.904H211.896H211.889H211.881H211.873H211.865H211.858H211.85H211.842H211.835H211.827H211.819H211.812H211.804H211.796H211.789H211.781H211.773H211.765H211.758H211.75H211.742H211.735H211.727H211.719H211.712H211.704H211.696H211.689H211.681H211.673H211.665H211.658H211.65H211.642H211.635H211.627H211.619H211.612H211.604H211.596H211.589H211.581H211.573H211.565H211.558H211.55H211.542H211.535H211.527H211.519H211.512H211.504H211.496H211.489H211.481H211.473H211.465H211.458H211.45H211.442H211.435H211.427H211.419H211.412H211.404H211.396H211.389H211.381H211.373H211.365H211.358H211.35H211.342H211.335H211.327H211.319H211.312H211.304H211.296H211.289H211.281H211.273H211.265H211.258H211.25H211.242H211.235H211.227H211.219H211.212H211.204H211.196H211.189H211.181H211.173H211.165H211.158H211.15H211.142H211.135H211.127H211.119H211.112H211.104H211.096H211.089H211.081H211.073H211.065H211.058H211.05H211.042H211.035H211.027H211.019H211.012H211.004H210.996H210.989H210.981H210.973H210.965H210.958H210.95H210.942H210.935H210.927H210.919H210.912H210.904H210.896H210.889H210.881H210.873H210.865H210.858H210.85H210.842H210.835H210.827H210.819H210.812H210.804H210.796H210.789H210.781H210.773H210.765H210.758H210.75H210.742H210.735H210.727H210.719H210.712H210.704H210.696H210.689H210.681H210.673H210.665H210.658H210.65H210.642H210.635H210.627H210.619H210.612H210.604H210.596H210.589H210.581H210.573H210.565H210.558H210.55H210.542H210.535H210.527H210.519H210.512H210.504H210.496H210.489H210.481H210.473H210.465H210.458H210.45H210.442H210.435H210.427H210.419H210.412H210.404H210.396H210.389H210.381H210.373H210.365H210.358H210.35H210.342H210.335H210.327H210.319H210.312H210.304H210.296H210.289H210.281H210.273H210.265H210.258H210.25H210.242H210.235H210.227H210.219H210.212H210.204H210.196H210.189H210.181H210.173H210.165H210.158H210.15H210.142H210.135H210.127H210.119H210.112H210.104H210.096H210.089H210.081H210.073H210.065H210.058H210.05H210.042H210.035H210.027H210.019H210.012H210.004H209.996H209.989H209.981H209.973H209.965H209.958H209.95H209.942H209.935H209.927H209.919H209.912H209.904H209.896H209.889H209.881H209.873H209.865H209.858H209.85H209.842H209.835H209.827H209.819H209.812H209.804H209.796H209.789H209.781H209.773H209.765H209.758H209.75H209.742H209.735H209.727H209.719H209.712H209.704H209.696H209.689H209.681H209.673H209.665H209.658H209.65H209.642H209.635H209.627H209.619H209.612H209.604H209.596H209.589H209.581H209.573H209.565H209.558H209.55H209.542H209.535H209.527H209.519H209.512H209.504H209.496H209.489H209.481H209.473H209.465H209.458H209.45H209.442H209.435H209.427H209.419H209.412H209.404H209.396H209.389H209.381H209.373H209.365H209.358H209.35H209.342H209.335H209.327H209.319H209.311L209.303 69.6874L169.751 70C169.748 70 169.744 70 169.741 70C122.653 69.9217 81.8593 69.5296 52.2585 66.9782C37.4446 65.7014 25.5542 63.8925 17.1201 61.3564C12.9012 60.0878 9.65133 58.6672 7.35523 57.1111C5.06186 55.5569 3.87118 53.9743 3.45201 52.4089Z" fill="#FF1F3C" fill-opacity="0.2" stroke="#FF1F3C" stroke-width="4"/>
</svg>
