<svg width="153" height="168" viewBox="0 0 153 168" fill="none" xmlns="http://www.w3.org/2000/svg">
<g clip-path="url(#clip0_126_3874)">
<path d="M79.548 145.579C77.1278 145.722 74.85 145.722 72.7146 145.722C40.9682 145.722 34.562 130.064 31.8572 101.737C30.5759 89.2104 29.1523 71.9866 29.1523 62.1648C29.1523 53.4817 30.0065 43.8022 30.8606 33.2687C31.8572 20.7423 36.2703 11.7745 47.0897 7.07709C53.2112 4.37252 65.0272 1.8103 77.4126 1.8103C87.6625 1.8103 98.0548 3.51845 105.6 8.50054C115.565 15.0484 120.548 25.4397 121.117 35.2615C121.402 44.2293 122.114 58.6062 122.114 74.1218C122.114 77.6805 121.971 81.3814 121.971 84.7977C121.687 104.299 120.975 121.95 114.284 129.637C109.301 135.615 104.461 141.024 91.5062 144.725L79.548 145.579Z" fill="#DA243E"/>
<path d="M64.3148 27.1478C61.1829 27.2902 62.7488 33.411 65.7384 32.557C69.1551 31.7029 67.162 27.0055 64.3148 27.1478Z" fill="white"/>
<path d="M87.948 26.1514C88.0903 26.1514 88.375 26.1514 88.5174 26.2937C90.7952 27.0055 91.2223 30.7064 88.6598 31.2758C84.816 32.4146 84.6737 26.009 87.948 26.1514Z" fill="white"/>
<path fill-rule="evenodd" clip-rule="evenodd" d="M57.8043 139.205C58.4945 139.226 59.0375 139.802 59.0172 140.492C58.946 142.91 58.8749 145.293 58.8038 147.675L58.8036 147.681C58.7326 150.059 58.6616 152.437 58.5906 154.85C58.5894 156.175 58.4518 157.94 57.3527 159.414C56.3672 160.784 54.8704 161.266 53.7688 161.598C53.6993 161.619 53.6313 161.639 53.5649 161.659C52.4298 162 51.7282 162.211 51.2488 162.691C51.237 162.702 51.225 162.714 51.2128 162.725C50.8976 163.016 50.8007 163.244 50.7726 163.375C50.746 163.497 50.7606 163.618 50.8316 163.753C50.9913 164.058 51.4661 164.445 52.2198 164.551C55.0145 164.829 58.9239 164.967 61.6913 164.829L61.7056 164.828L61.7056 164.828C62.1943 164.809 62.6905 164.798 63.1914 164.786C64.6846 164.751 66.2196 164.715 67.7223 164.485C69.7069 164.183 71.3763 163.571 72.522 162.368C72.9981 161.868 73.7894 161.849 74.2894 162.325C74.7894 162.801 74.8087 163.592 74.3325 164.092C72.6309 165.879 70.3143 166.619 68.0993 166.957C66.4221 167.213 64.6539 167.254 63.1293 167.289C62.6632 167.3 62.2199 167.31 61.8089 167.326C58.8897 167.471 54.8446 167.326 51.9488 167.036C51.9351 167.035 51.9215 167.033 51.9079 167.031C50.5369 166.849 49.2388 166.101 48.6168 164.913C48.2963 164.302 48.1686 163.586 48.3289 162.846C48.486 162.12 48.8986 161.464 49.499 160.905C50.4515 159.964 51.7708 159.578 52.7398 159.295C52.8468 159.264 52.9494 159.234 53.0468 159.204C54.1842 158.861 54.8884 158.562 55.3267 157.949L55.3439 157.925C55.9399 157.13 56.0904 156.064 56.0904 154.832C56.0904 154.82 56.0905 154.807 56.0909 154.795C56.162 152.377 56.2332 149.994 56.3043 147.612L56.3045 147.606C56.3756 145.222 56.4468 142.838 56.518 140.418C56.5383 139.728 57.1142 139.185 57.8043 139.205Z" fill="#584023"/>
<path fill-rule="evenodd" clip-rule="evenodd" d="M78.0332 137.071C78.7231 137.099 79.259 137.682 79.2303 138.372C79.1967 139.177 79.1317 140.69 79.0501 142.589C78.785 148.757 78.3446 159.006 78.2348 162.396C78.2351 162.756 78.2429 163.039 78.2748 163.239C78.2963 163.252 78.3249 163.268 78.3623 163.286C78.4567 163.334 78.5649 163.379 78.7241 163.444L78.739 163.45C78.8486 163.496 78.9856 163.552 79.1271 163.618C85.9178 165.404 92.9738 165.95 99.8841 165.122C100.876 164.98 102.404 164.682 103.425 164.113C103.935 163.829 104.142 163.573 104.208 163.405C104.245 163.309 104.317 163.05 103.975 162.479C103.121 161.217 101.429 160.474 99.6733 160.349C99.6439 160.347 99.6147 160.344 99.5855 160.339C99.4897 160.326 99.3645 160.311 99.2209 160.295C98.8335 160.25 98.3128 160.19 97.8767 160.088C97.2187 159.935 96.4164 159.631 95.8124 158.906C95.7839 158.872 95.7573 158.836 95.7326 158.799C95.724 158.786 95.7152 158.773 95.7062 158.759C95.4318 158.348 95.0436 157.767 94.8482 156.985C94.8305 156.914 94.819 156.842 94.8139 156.769C94.7537 155.906 94.6932 155.069 94.6343 154.253C94.2777 149.313 93.9756 145.129 94.0995 140.422C94.1177 139.732 94.6919 139.187 95.3821 139.205C96.0723 139.223 96.6171 139.798 96.5989 140.488C96.4785 145.063 96.7706 149.114 97.1272 154.058C97.1835 154.838 97.2413 155.641 97.2994 156.471C97.3832 156.744 97.5279 156.983 97.7662 157.342C97.8797 157.458 98.074 157.567 98.4449 157.653C98.7414 157.723 99.0029 157.752 99.3167 157.787C99.4892 157.807 99.6774 157.828 99.8959 157.859C102.107 158.027 104.651 158.986 106.07 161.113C106.079 161.128 106.089 161.142 106.098 161.157C106.737 162.207 106.935 163.295 106.537 164.314C106.166 165.263 105.377 165.888 104.642 166.297C103.176 167.114 101.226 167.456 100.224 167.599L100.196 167.603C92.9133 168.477 85.4936 167.893 78.3724 166.004C78.2901 165.982 78.2101 165.952 78.1339 165.914C78.0395 165.867 77.9313 165.822 77.7721 165.756L77.7573 165.75C77.6156 165.692 77.428 165.614 77.2442 165.522C76.8643 165.333 76.3293 164.999 76.0089 164.358C75.9824 164.306 75.9597 164.251 75.941 164.195C75.7326 163.569 75.7338 162.823 75.7345 162.434C75.7345 162.414 75.7345 162.394 75.7345 162.376C75.7345 162.363 75.7347 162.349 75.7352 162.336C75.8444 158.951 76.2877 148.635 76.5531 142.458C76.6343 140.568 76.6989 139.066 76.7321 138.268C76.7609 137.578 77.3434 137.042 78.0332 137.071Z" fill="#584023"/>
<path d="M43.8161 103.872L76.9861 117.822L109.16 105.438L109.871 100.029L113.288 70.2785C113.857 63.5883 114.569 54.0511 115.708 46.7915C108.59 48.642 84.6736 56.044 77.2708 61.3107C64.6007 54.1935 52.5001 51.9159 40.6842 50.9195C39.6876 57.4674 40.9689 68.001 40.9689 74.5489L43.8161 103.872Z" fill="white"/>
<path fill-rule="evenodd" clip-rule="evenodd" d="M110.356 94.3439C111.137 94.4538 111.681 95.1761 111.572 95.9574L110.29 105.067C110.218 105.582 109.872 106.016 109.387 106.202L77.071 118.586C76.7263 118.719 76.3439 118.712 76.0039 118.568L42.9762 104.619C42.4473 104.395 42.1035 103.877 42.1035 103.303V96.7549C42.1035 95.966 42.7431 95.3264 43.5321 95.3264C44.3211 95.3264 44.9607 95.966 44.9607 96.7549V102.355L76.5857 115.713L107.578 103.836L108.742 95.5595C108.852 94.7783 109.574 94.2341 110.356 94.3439Z" fill="#584023"/>
<path fill-rule="evenodd" clip-rule="evenodd" d="M116.382 45.1636C116.739 45.4868 116.909 45.968 116.835 46.4436C116.534 48.3628 116.204 50.4149 115.866 52.5184C114.919 58.4057 113.908 64.6963 113.281 69.6055C113.181 70.388 112.466 70.9414 111.683 70.8415C110.901 70.7416 110.347 70.0263 110.447 69.2437C111.08 64.2846 112.103 57.9196 113.052 52.0186C113.262 50.7096 113.469 49.4233 113.667 48.1804C109.664 49.3063 103.239 51.2793 96.7852 53.5484C88.9555 56.301 81.3233 59.4088 77.8142 61.9054C77.3635 62.226 76.7684 62.2577 76.2862 61.9869C64.4444 55.3349 53.1011 52.9822 41.9299 51.9215C42.087 54.4959 42.1975 56.7107 42.2713 58.3647C42.316 59.3651 42.3473 60.1606 42.3674 60.7067C42.3775 60.9797 42.3848 61.1904 42.3896 61.3332L42.3949 61.4958L42.3966 61.5512C42.4205 62.3397 41.8006 62.9995 41.012 63.0234C40.2234 63.0473 39.5647 62.4274 39.5408 61.6389C39.5408 61.6389 39.5408 61.6389 39.5408 61.6389L39.5392 61.5867L39.534 61.4287C39.5293 61.2891 39.5221 61.0816 39.5122 60.812C39.4923 60.2726 39.4613 59.4845 39.417 58.4921C39.3284 56.507 39.1865 53.7057 38.9737 50.4433C38.9467 50.0282 39.1019 49.622 39.3988 49.3307C39.6957 49.0394 40.1049 48.892 40.5194 48.9269C52.2082 49.9126 64.2789 52.1498 76.9128 59.0675C81.0265 56.4169 88.5505 53.4151 95.8375 50.8532C103.664 48.1019 111.461 45.7765 115.064 44.8398C115.53 44.7187 116.025 44.8404 116.382 45.1636Z" fill="#584023"/>
<path fill-rule="evenodd" clip-rule="evenodd" d="M76.347 95.3283C77.135 95.3687 77.741 96.0402 77.7006 96.828C77.53 100.153 77.5143 102.7 77.498 105.334C77.4871 107.106 77.4759 108.916 77.4172 111.029C77.3953 111.818 76.7382 112.439 75.9495 112.417C75.1608 112.395 74.5392 111.738 74.5611 110.95C74.6159 108.976 74.6277 107.199 74.6394 105.43C74.6574 102.723 74.6752 100.034 74.8471 96.6817C74.8875 95.8939 75.5591 95.2879 76.347 95.3283Z" fill="#584023"/>
<path fill-rule="evenodd" clip-rule="evenodd" d="M122.005 55.6679C122.606 54.9786 123.652 54.9067 124.341 55.5074C134.471 64.3343 142.864 75.3283 148.656 87.3418C150.695 91.4215 152.362 95.9146 152.666 100.634C152.667 100.652 152.668 100.669 152.669 100.687C152.822 105.455 151.146 110.73 147.201 113.853C147.19 113.862 147.178 113.871 147.167 113.88C143.247 116.819 138.144 117.234 133.684 116.157C129.237 115.084 125.327 112.654 121.852 110.051C112.115 103.177 102.73 95.3906 95.1966 85.9743C94.6803 85.3289 94.719 84.4017 95.2873 83.8016C95.4146 83.6672 95.5597 83.5584 95.7159 83.476C95.4303 83.0831 95.1581 82.6612 94.9083 82.2014C94.7009 81.8554 94.3727 81.2989 94.1713 80.695C93.97 80.0909 93.7755 79.0803 94.3579 78.1097C94.4057 78.0301 94.4601 77.9546 94.5206 77.884C94.9172 77.4214 95.3838 77.1129 95.8761 76.9339C95.7157 76.6819 95.5772 76.4355 95.4765 76.2041C95.4072 76.0451 95.3309 75.8389 95.2872 75.6038C95.2455 75.379 95.2122 75.0159 95.3442 74.6108C95.4938 74.1513 95.8124 73.7759 96.2345 73.5516C96.4905 73.4155 96.7416 73.3571 96.9494 73.334C97.1257 73.2994 97.2951 73.2873 97.4465 73.2865C97.1395 72.403 97.4257 71.5511 97.8868 70.9978C98.3608 70.4291 99.1019 70.0463 99.9062 70.0463C99.9456 70.0463 99.9849 70.0477 100.024 70.0505C105.993 70.4768 111.602 70.9114 117.667 72.982C118.532 73.2775 118.994 74.2185 118.699 75.0838C118.403 75.9491 117.462 76.4111 116.597 76.1156C111.465 74.3634 106.667 73.8633 101.3 73.4632C101.551 73.7589 101.855 74.0449 102.217 74.3487C102.409 74.5097 102.637 74.6897 102.887 74.8866C103.571 75.4259 104.417 76.092 105.109 76.8421C105.704 77.4864 105.693 78.4827 105.084 79.1141C104.476 79.7454 103.481 79.7928 102.815 79.2221C102.294 78.7761 101.587 78.3173 100.827 77.906C100.925 78.0233 101.025 78.1423 101.126 78.2632C101.71 78.9624 102.346 79.7227 103.02 80.5592C103.079 80.6319 103.14 80.7073 103.201 80.7855C103.764 81.5023 103.642 82.5395 102.928 83.1058C102.214 83.6721 101.176 83.5545 100.606 82.8427C100.552 82.7751 100.498 82.707 100.442 82.6386C99.8674 81.9401 99.5347 81.7314 99.3285 81.616C99.2984 81.5991 99.2527 81.5767 99.1946 81.5481C98.9156 81.411 98.3493 81.1326 97.8356 80.6527C98.4365 81.7504 99.0911 82.4173 99.9779 83.3209C100.362 83.7118 100.789 84.1469 101.274 84.6804C101.843 85.3066 101.848 86.2614 101.286 86.894C101.111 87.0908 100.899 87.2368 100.668 87.3296C107.397 94.9212 115.398 101.442 123.781 107.359C123.794 107.368 123.807 107.378 123.82 107.387C127.174 109.902 130.66 112.021 134.461 112.938C138.251 113.853 142.25 113.417 145.163 111.243C148.034 108.959 149.483 104.861 149.36 100.82C149.09 96.7272 147.629 92.6924 145.689 88.812L145.678 88.7904C140.082 77.1788 131.963 66.5404 122.166 58.0038C121.476 57.4031 121.404 56.3573 122.005 55.6679ZM97.2807 79.5218C97.2809 79.5219 97.2817 79.5264 97.2821 79.5347C97.2806 79.5257 97.2804 79.5216 97.2807 79.5218ZM97.4441 76.5975C97.4439 76.5972 97.45 76.597 97.4631 76.5979C97.451 76.5982 97.4444 76.5977 97.4441 76.5975Z" fill="#584023"/>
<path d="M96.3474 85.2247C97.344 85.9364 98.9099 85.367 99.9065 86.0788C98.4828 84.513 97.2016 83.5166 96.2051 81.6661C95.778 80.9543 95.2086 79.9579 95.6356 79.2462C96.4898 78.2498 97.9134 78.6768 98.7676 79.6732C99.6217 80.5273 100.191 80.1003 101.757 82.0931C98.91 78.5345 95.778 75.2605 97.0592 75.2605C97.9134 74.9758 101.757 76.5416 103.75 78.2498C102.042 76.3993 99.7641 75.5452 98.91 73.1253C98.6252 72.556 99.1946 71.9866 99.7641 71.9866C104.035 72.2713 108.306 72.6983 112.577 73.5524C117.274 74.6911 118.698 76.2569 119.695 81.0967C120.691 85.7941 121.403 90.6338 121.688 95.4736C121.83 97.3241 121.83 99.1746 120.833 100.74C115.281 109.139 99.337 88.7833 96.3474 85.2247Z" fill="#DA243E"/>
<path fill-rule="evenodd" clip-rule="evenodd" d="M122.271 55.9006C122.744 55.3587 123.566 55.3022 124.108 55.7744C134.203 64.5705 142.566 75.527 148.338 87.498C150.367 91.5576 152.012 96.003 152.312 100.657C152.313 100.67 152.313 100.684 152.314 100.698C152.465 105.39 150.812 110.542 146.981 113.575C146.972 113.582 146.963 113.589 146.954 113.596C143.142 116.455 138.156 116.872 133.767 115.813C129.388 114.756 125.522 112.359 122.06 109.764C112.335 102.899 102.978 95.1343 95.4725 85.753C95.0666 85.2457 95.0971 84.5168 95.5438 84.0451C95.7496 83.8278 96.0147 83.6957 96.2925 83.6534C95.9081 83.1643 95.543 82.6301 95.2153 82.0257C95.0075 81.6791 94.6957 81.1499 94.5067 80.583C94.3179 80.0167 94.1575 79.131 94.661 78.2919C94.6985 78.2293 94.7413 78.1699 94.7888 78.1145C95.2609 77.5638 95.8426 77.2574 96.4439 77.1444C96.1748 76.7625 95.9439 76.3919 95.8005 76.0627C95.7376 75.9183 95.6719 75.7389 95.6348 75.5391C95.5992 75.3474 95.5732 75.0492 95.6803 74.7204C95.8013 74.3489 96.0583 74.0459 96.4001 73.8643C96.6141 73.7505 96.8257 73.7026 97.0023 73.6844C97.2979 73.624 97.5798 73.6375 97.7801 73.6573C97.8471 73.664 97.9151 73.6725 97.9839 73.6827C97.9356 73.5706 97.8898 73.4554 97.8466 73.337C97.4865 72.5303 97.7326 71.7352 98.1582 71.2245C98.5689 70.7318 99.2123 70.4004 99.9055 70.4004C99.9365 70.4004 99.9674 70.4015 99.9983 70.4037C105.969 70.8301 111.536 71.2631 117.552 73.3171C118.232 73.5494 118.595 74.2891 118.363 74.9693C118.131 75.6495 117.391 76.0127 116.711 75.7804C111.295 73.9313 106.25 73.4664 100.577 73.0549C100.908 73.6294 101.381 74.11 101.988 74.6198C102.195 74.7936 102.434 74.982 102.691 75.1846C103.371 75.72 104.176 76.3547 104.848 77.0823C105.316 77.5888 105.307 78.372 104.829 78.8683C104.35 79.3645 103.568 79.4018 103.045 78.9532C102.182 78.2141 100.851 77.4574 99.6025 76.9177C99.5765 76.9065 99.5507 76.8954 99.5249 76.8844C99.9291 77.3847 100.378 77.9218 100.86 78.4982C101.446 79.1995 102.081 79.959 102.743 80.7814C102.802 80.8529 102.861 80.9272 102.922 81.0043C103.365 81.5678 103.269 82.3831 102.707 82.8282C102.146 83.2734 101.33 83.1809 100.882 82.6214C100.828 82.5533 100.773 82.4848 100.717 82.4161C100.117 81.6864 99.751 81.447 99.5009 81.3069C99.4568 81.2822 99.3978 81.253 99.3273 81.218C99.015 81.0632 98.4755 80.7956 97.9887 80.3088C97.9651 80.2852 97.9425 80.2608 97.9208 80.2355C97.6507 79.9205 97.3312 79.7496 97.1032 79.7069C97.0408 79.6952 96.9928 79.6941 96.9568 79.6975C96.9623 79.7163 96.9687 79.7371 96.9763 79.7599C97.0674 80.0331 97.2431 80.3459 97.4626 80.7117C97.473 80.729 97.483 80.7466 97.4925 80.7643C98.1267 81.9419 98.8333 82.662 99.7533 83.5995C100.133 83.9864 100.549 84.4103 101.011 84.9186C101.459 85.4109 101.463 86.1614 101.021 86.6587C100.751 86.9618 100.369 87.1113 99.9887 87.0943C106.827 94.916 115.009 101.602 123.576 107.648C123.582 107.653 123.588 107.657 123.594 107.661C123.598 107.664 123.602 107.667 123.607 107.671C126.974 110.196 130.506 112.348 134.377 113.283C138.24 114.215 142.358 113.781 145.378 111.524C148.366 109.15 149.84 104.924 149.713 100.803C149.44 96.6418 147.957 92.5566 146.005 88.6536L145.997 88.6367L145.997 88.6366C140.379 76.9816 132.231 66.3047 122.398 57.7368C121.856 57.2645 121.799 56.4424 122.271 55.9006ZM96.9277 79.5376C96.9279 79.5377 96.9279 79.5401 96.9273 79.5445C96.9273 79.5397 96.9276 79.5375 96.9277 79.5376ZM98.1794 75.0041C98.1794 75.0041 98.1796 75.0048 98.1801 75.0062L98.1794 75.0041Z" fill="#584023"/>
<path fill-rule="evenodd" clip-rule="evenodd" d="M116.537 67.6109C117.067 67.1252 117.891 67.161 118.376 67.6908C121.503 71.101 125.163 75.0101 128.83 78.926L128.834 78.9297C132.497 82.8416 136.167 86.7601 139.303 90.1814C139.789 90.7113 139.753 91.5345 139.223 92.0202C138.693 92.5059 137.87 92.4701 137.384 91.9403C134.258 88.5301 130.597 84.621 126.93 80.7051L126.927 80.7019C123.264 76.7898 119.594 72.8711 116.457 69.4497C115.972 68.9199 116.007 68.0966 116.537 67.6109Z" fill="#584023"/>
<path d="M60.4713 71.702C54.6345 71.8444 48.9401 72.5561 43.2457 73.5525C39.402 74.2642 31.4298 72.8408 31.0027 78.2499C30.5756 83.8014 31.5721 90.634 32.8533 96.0431C33.8499 100.598 37.2665 98.89 40.2561 97.1819C42.5339 96.0431 44.6693 94.9043 46.9471 93.7656C49.0825 92.7692 50.7908 92.6268 53.0686 92.3421C58.1935 91.7727 63.3185 91.3457 68.4435 91.4881C69.0129 91.4881 69.44 91.488 70.0095 91.2034C70.4365 90.9187 70.7212 90.3493 70.5789 89.9222C70.4365 89.6376 70.0095 89.4952 69.7248 89.3529C68.4435 88.7835 67.3046 88.3564 66.0234 87.7871C68.0164 88.0718 70.0094 88.3564 72.0025 88.3564C72.4296 88.3564 72.8567 88.3564 73.2838 88.2141C73.7109 88.0718 73.9956 87.6447 73.8532 87.2177C73.7108 86.6483 73.1414 86.3636 72.572 86.2213C71.2907 85.9366 68.0164 85.0825 66.1657 84.9402C68.1588 85.2248 71.7178 85.0825 72.999 84.7978C74.1379 84.6555 75.9886 84.3708 74.7074 83.0897C73.8532 82.3779 72.2872 82.3779 71.2907 82.2356C69.2976 81.8086 67.447 81.2392 65.4539 80.8121C67.3046 80.8121 69.2977 80.6698 71.006 80.1004C71.4331 79.9581 72.0025 79.6734 72.1449 79.2463C72.2872 78.5346 71.2907 78.2499 70.5789 78.1076C66.1657 77.8229 61.7525 77.5382 57.197 77.2535C58.763 76.5418 60.3289 75.5454 61.6102 74.5489C62.0373 74.1219 62.6067 73.6949 62.4644 72.9831C62.6067 71.9867 61.4678 71.702 60.4713 71.702Z" fill="#DA243E"/>
<path fill-rule="evenodd" clip-rule="evenodd" d="M34.6103 52.7948C34.9898 53.3716 34.8298 54.1467 34.253 54.5261C28.864 58.0712 23.6319 61.7482 18.5482 65.8429L18.5408 65.8489L18.5408 65.8489C14.4426 69.0988 10.5516 72.5811 7.51343 76.5856C4.50626 80.5491 2.50028 85.415 2.50028 90.3493C2.50028 95.3064 4.64588 100.232 8.71564 102.651C11.168 104.069 14.0482 104.608 16.9954 104.474C17.0075 104.473 17.0196 104.473 17.0317 104.473C25.3687 104.336 33.0797 100.371 40.6695 96.3614L40.6944 96.3486C41.8249 95.7833 42.9212 95.2176 44.0255 94.6477L44.0284 94.6462C45.1297 94.0778 46.2391 93.5053 47.3853 92.9323C47.3954 92.9272 47.4055 92.9223 47.4157 92.9176C49.5604 91.9168 51.3457 91.6994 53.3404 91.4566C53.5285 91.4337 53.7185 91.4105 53.9108 91.3865L53.9278 91.3844L53.9278 91.3845C59.0643 90.8138 64.2514 90.3795 69.4579 90.5228C69.517 90.5227 69.5716 90.5226 69.6224 90.5221C69.2109 90.3463 68.8071 90.1801 68.3954 90.0106L68.3894 90.0081C67.788 89.7605 67.1695 89.5058 66.5129 89.2141C65.9428 88.9607 65.6468 88.3258 65.8192 87.7263C65.9917 87.1267 66.5798 86.7461 67.1975 86.8344C68.7463 87.0556 70.2333 87.2667 71.6991 87.3518C70.4557 87.0586 68.9394 86.713 67.7609 86.5487C67.4883 86.5255 67.2283 86.4969 66.9863 86.4623C66.3184 86.3669 65.8468 85.759 65.9204 85.0885C65.994 84.418 66.5863 83.9268 67.2589 83.9786C67.4912 83.9964 67.7441 84.0247 68.0113 84.061C68.8292 84.1285 69.8318 84.1446 70.8124 84.1177C71.9134 84.0875 72.8859 84.006 73.4674 83.911C73.3137 83.8912 73.1557 83.8739 72.9932 83.8571C72.9433 83.8519 72.8921 83.8467 72.84 83.8414C72.6 83.817 72.3416 83.7907 72.1112 83.7578C72.0963 83.7556 72.0815 83.7532 72.0667 83.7506C72.0531 83.7481 72.0396 83.7455 72.0261 83.7426C71.0035 83.5235 70.021 83.2688 69.0675 83.0216L69.0559 83.0186C68.0912 82.7685 67.1556 82.5262 66.1893 82.3191C65.564 82.1852 65.1407 81.601 65.2081 80.9652C65.2754 80.3294 65.8118 79.8469 66.4512 79.8469C67.7293 79.8469 69.0184 79.7757 70.1992 79.5561C66.217 79.2993 62.2245 79.0425 58.1164 78.7858C57.5436 78.75 57.0688 78.3289 56.9649 77.7646C56.861 77.2003 57.1546 76.6377 57.677 76.4003C59.1157 75.7464 60.5748 74.8242 61.7823 73.8917C61.8242 73.8507 61.8651 73.8114 61.9014 73.7765L61.9067 73.7714C61.9642 73.7162 62.0119 73.6703 62.0572 73.6251C62.0948 73.5874 62.1256 73.5552 62.151 73.5274C61.9321 73.439 61.5888 73.3804 61.1971 73.3791C48.6911 73.662 36.3257 76.3325 24.8033 81.2501C24.1683 81.5211 23.4338 81.2261 23.1627 80.5912C22.8917 79.9562 23.1868 79.2218 23.8218 78.9508C35.6419 73.9061 48.3267 71.1677 61.1558 70.8794L61.1839 70.8791C61.7764 70.8791 62.4905 70.9604 63.1239 71.2244C63.754 71.4868 64.5146 72.0339 64.6914 73.0425C64.8403 73.8194 64.58 74.4436 64.2654 74.8841C64.0532 75.1811 63.7454 75.4746 63.578 75.6341C63.5418 75.6686 63.5122 75.6969 63.4915 75.7176C63.4549 75.7542 63.416 75.7885 63.375 75.8204C63.0611 76.0645 62.7305 76.309 62.3869 76.55C65.5093 76.7483 68.5834 76.9466 71.6567 77.1449C71.712 77.1485 71.7671 77.1557 71.8214 77.1666C72.1889 77.2401 72.7831 77.3757 73.2867 77.6555C73.5444 77.7986 73.8669 78.027 74.1034 78.3879C74.3644 78.7863 74.4692 79.2708 74.3681 79.7762C74.3579 79.827 74.3446 79.8772 74.3282 79.9264C74.1295 80.5223 73.686 80.8963 73.373 81.1049C73.2376 81.1952 73.0982 81.2734 72.9616 81.3407C72.9974 81.3444 73.0341 81.3481 73.0719 81.352C73.1291 81.3578 73.1887 81.3639 73.2511 81.3704C73.5555 81.402 73.9061 81.441 74.261 81.5018C74.9339 81.6172 75.8144 81.8386 76.505 82.4141C76.534 82.4383 76.5619 82.4638 76.5887 82.4905C76.9773 82.8791 77.4271 83.4705 77.3868 84.2281C77.342 85.0706 76.7415 85.5375 76.3689 85.7461C76.0671 85.9151 75.731 86.0253 75.4311 86.1011C75.7032 86.3653 75.9312 86.7084 76.0516 87.1542C76.4302 88.3798 75.569 89.3872 74.6764 89.6847C74.0538 89.8922 73.4501 89.8916 73.0498 89.8912C73.0328 89.8912 73.0161 89.8912 72.9998 89.8912C72.9287 89.8912 72.8576 89.8908 72.7866 89.8902C72.9528 90.4679 72.8256 91.023 72.6401 91.4247C72.4413 91.8555 72.1149 92.2518 71.7003 92.5282C71.6571 92.5569 71.6122 92.583 71.5659 92.6061C70.7314 93.0233 70.0535 93.023 69.4816 93.0228L69.4408 93.0228C69.4332 93.0228 69.4256 93.0227 69.4179 93.0226C69.414 93.0225 69.4101 93.0224 69.4061 93.0223C64.3713 92.8825 59.3171 93.3013 54.2122 93.8683C54.0318 93.8908 53.8563 93.9124 53.6853 93.9334C51.6631 94.1819 50.2529 94.3552 48.488 95.1761C47.3629 95.7387 46.2716 96.3019 45.1723 96.8692L45.1694 96.8707C44.0721 97.437 42.9669 98.0074 41.8251 98.5784C34.333 102.536 26.1097 106.819 17.0906 106.972C13.7822 107.12 10.4077 106.52 7.45706 104.812L7.44514 104.805L7.44518 104.805C2.40777 101.814 0 95.9233 0 90.3493C0 84.75 2.26478 79.3671 5.52148 75.0746C8.74621 70.8243 12.8261 67.1902 16.9835 63.893C22.1486 59.733 27.4498 56.0089 32.8789 52.4376C33.4557 52.0581 34.2309 52.2181 34.6103 52.7948ZM62.2896 73.6004C62.2891 73.6005 62.2857 73.5981 62.2806 73.5926C62.2875 73.5976 62.29 73.6003 62.2896 73.6004ZM72.0997 79.8578C72.0996 79.8578 72.0981 79.8568 72.0953 79.8546C72.0984 79.8566 72.0998 79.8577 72.0997 79.8578Z" fill="#584023"/>
<path fill-rule="evenodd" clip-rule="evenodd" d="M87.7761 42.9316C88.257 43.4658 88.2137 44.2887 87.6794 44.7696C83.055 48.9311 76.1536 50.3097 70.3006 48.3075C69.6204 48.0749 69.2577 47.335 69.4903 46.6549C69.723 45.9748 70.463 45.6121 71.1432 45.8448C76.1096 47.5436 82.0207 46.36 85.9379 42.8348C86.4722 42.354 87.2952 42.3973 87.7761 42.9316Z" fill="white"/>
</g>
<defs>
<clipPath id="clip0_126_3874">
<rect width="153" height="168" fill="white"/>
</clipPath>
</defs>
</svg>
