<svg width="144" height="179" viewBox="0 0 144 179" fill="none" xmlns="http://www.w3.org/2000/svg">
<g id="Illus / 12">
<path id="Vector" d="M67.521 156.997C65.0036 157.226 62.4861 157.226 60.1976 157.226C26.5556 157.226 19.6898 140.061 16.9436 109.165C15.5704 95.4339 14.1973 76.6675 14.1973 65.9112C14.1973 56.528 15.1127 46.0005 16.0281 34.3287C17.1724 20.5972 21.7496 10.9852 33.1924 5.72146C39.8293 2.7463 52.1876 0 65.2324 0C75.9887 0 86.9739 1.83087 94.9839 7.32347C105.511 14.4181 110.775 25.861 111.462 36.6173C111.919 46.4582 112.606 62.2495 112.606 78.9561C112.606 82.8467 112.377 86.7373 112.377 90.6279C112.148 112.141 111.462 131.365 104.367 139.832C99.1033 146.469 93.8396 152.42 80.337 156.31L67.521 156.997Z" fill="#E72F43"/>
<path id="Vector_2" d="M41.8887 26.777C41.8887 27.4636 42.1175 27.9213 42.3464 28.379C43.033 29.981 44.8638 31.1253 46.4658 31.1253C48.7544 31.1253 50.1275 29.0656 50.1275 26.777C50.1275 26.3193 50.1275 25.8616 49.8987 25.4038C49.6698 24.9461 49.6698 24.4884 49.2121 24.0307C48.7544 23.573 48.5255 23.1153 47.839 22.6575C47.6101 22.6575 47.6101 22.4287 47.3812 22.4287C47.1524 22.1998 46.6947 22.1998 46.4658 21.971C45.7792 21.7421 45.0927 21.7421 44.635 21.971C43.9484 22.1998 43.4907 22.4287 43.033 22.8864C42.3464 24.0307 41.8887 25.4038 41.8887 26.777Z" fill="white"/>
<path id="Vector_3" d="M73.0137 26.777C73.0137 27.4636 73.2425 27.9213 73.4714 28.379C74.158 29.981 75.9888 31.1253 77.5908 31.1253C79.8794 31.1253 81.2525 29.0656 81.2525 26.777C81.2525 26.3193 81.2525 25.8616 81.0237 25.4038C80.7948 24.9461 80.7948 24.4884 80.3371 24.0307C79.8794 23.573 79.6505 23.1153 78.964 22.6575C78.7351 22.6575 78.7351 22.4287 78.5062 22.4287C78.2774 22.1998 77.8197 22.1998 77.5908 21.971C76.9042 21.7421 76.2177 21.7421 75.76 21.971C75.0734 22.1998 74.6157 22.4287 74.158 22.8864C73.4714 24.0307 73.0137 25.4038 73.0137 26.777Z" fill="white"/>
<path id="Vector (Stroke)" fill-rule="evenodd" clip-rule="evenodd" d="M106.759 60.3792C106.78 59.8053 107.264 59.3573 107.839 59.3787C114.218 59.6149 122.575 62.1385 129.522 66.4584C136.449 70.7662 142.206 77.013 142.938 84.805C143.786 93.1731 139.391 99.7066 133.688 105.032C130.831 107.699 127.609 110.099 124.48 112.306C123.403 113.066 122.342 113.799 121.31 114.512C119.32 115.888 117.438 117.188 115.754 118.461C115.295 118.808 114.641 118.718 114.293 118.26C113.945 117.803 114.035 117.15 114.494 116.804C116.212 115.505 118.158 114.16 120.173 112.767C121.196 112.06 122.238 111.34 123.276 110.608C126.383 108.416 129.512 106.082 132.262 103.514C137.772 98.3695 141.616 92.4315 140.863 85.0103L140.862 85.0024C140.22 78.1493 135.107 72.3824 128.418 68.2231C121.748 64.0753 113.741 61.6784 107.762 61.457C107.186 61.4357 106.737 60.9531 106.759 60.3792Z" fill="#603F1B"/>
<path id="Vector (Stroke)_2" fill-rule="evenodd" clip-rule="evenodd" d="M119.726 120.046C120.291 119.934 120.84 120.299 120.952 120.863L120.962 120.912C121.413 123.167 121.888 125.54 121.888 127.932C121.888 129.995 121.68 132.66 119.786 134.583C118.358 136.266 116.169 136.761 114.143 136.524C112.281 136.505 110.504 135.71 108.884 134.784C108.384 134.499 108.211 133.863 108.498 133.365C108.784 132.867 109.421 132.694 109.921 132.98C111.486 133.874 112.89 134.444 114.208 134.444C114.252 134.444 114.295 134.447 114.338 134.452C115.941 134.653 117.366 134.233 118.212 133.217C118.232 133.193 118.254 133.17 118.276 133.148C119.555 131.869 119.802 129.976 119.802 127.932C119.802 125.763 119.369 123.577 118.907 121.269C118.794 120.706 119.161 120.158 119.726 120.046Z" fill="#603F1B"/>
<path id="Vector (Stroke)_3" fill-rule="evenodd" clip-rule="evenodd" d="M60.4799 146.296C61.0831 146.324 61.5489 146.835 61.5202 147.436C61.4664 148.567 61.4777 150.52 61.4916 152.915L61.4928 153.129C61.5071 155.602 61.5216 158.49 61.464 161.31C61.4066 164.124 61.277 166.901 60.9982 169.146C60.859 170.267 60.6791 171.286 60.4415 172.124C60.216 172.92 59.8947 173.721 59.3714 174.244C59.3563 174.26 59.3407 174.274 59.3248 174.289C59.045 174.537 58.6826 174.706 58.3629 174.828C58.0196 174.959 57.6139 175.077 57.1689 175.185C56.2774 175.403 55.1459 175.6 53.8708 175.777C51.3157 176.133 48.096 176.421 44.8769 176.623C41.6559 176.824 38.4154 176.939 35.8146 176.946C34.5156 176.95 33.3641 176.927 32.4493 176.872C31.5908 176.821 30.7906 176.736 30.302 176.559C30.2626 176.544 30.224 176.528 30.1865 176.509C29.6132 176.222 29.0046 175.778 28.5639 175.177C28.1214 174.573 27.8283 173.776 27.9906 172.866C28.0348 172.512 28.2235 172.269 28.3133 172.164C28.4374 172.019 28.5804 171.904 28.6975 171.818C28.9363 171.644 29.2417 171.47 29.5545 171.305C30.0474 171.046 30.6794 170.747 31.3379 170.436C31.522 170.349 31.7081 170.262 31.8939 170.173C32.7645 169.759 33.654 169.324 34.4191 168.886C35.1512 168.466 35.6759 168.094 35.9663 167.794C35.971 167.781 35.9768 167.765 35.9833 167.745C36.0189 167.637 36.0611 167.475 36.1069 167.252C36.1982 166.809 36.2878 166.203 36.3739 165.461C36.5457 163.981 36.6945 162.045 36.8229 159.962C37.0264 156.66 37.1761 153.037 37.2866 150.36C37.3154 149.662 37.3416 149.029 37.3654 148.482C37.3915 147.88 37.9018 147.414 38.5051 147.44C39.1084 147.466 39.5763 147.975 39.5501 148.576C39.5267 149.116 39.5007 149.744 39.4721 150.437C39.3616 153.114 39.2107 156.769 39.0056 160.096C38.8765 162.19 38.7249 164.173 38.5462 165.712C38.4572 166.479 38.359 167.156 38.2491 167.691C38.1944 167.957 38.1326 168.208 38.0609 168.426C37.9983 168.616 37.8943 168.89 37.7105 169.12C37.7005 169.132 37.6902 169.144 37.6796 169.157C37.1514 169.76 36.3272 170.307 35.5091 170.776C34.665 171.26 33.7094 171.726 32.835 172.142C32.6314 172.238 32.4335 172.332 32.2423 172.422C31.5931 172.729 31.0222 172.999 30.5757 173.234C30.3919 173.33 30.2485 173.412 30.1413 173.477C30.162 173.608 30.2216 173.743 30.3291 173.889C30.5054 174.13 30.7848 174.357 31.0999 174.525C31.2858 174.576 31.7572 174.646 32.58 174.695C33.4316 174.746 34.533 174.769 35.8085 174.766C38.3571 174.759 41.5531 174.645 44.7401 174.446C47.9291 174.247 51.0887 173.963 53.5685 173.618C54.8108 173.445 55.8607 173.259 56.6499 173.067C57.0452 172.971 57.3546 172.878 57.5808 172.791C57.7421 172.73 57.8248 172.685 57.8571 172.666C57.9689 172.528 58.1503 172.19 58.3371 171.531C58.5321 170.843 58.6954 169.946 58.828 168.878C59.0928 166.746 59.2207 164.059 59.2777 161.266C59.3345 158.478 59.3204 155.617 59.3061 153.141L59.3044 152.859C59.2908 150.523 59.2792 148.524 59.3359 147.333C59.3645 146.732 59.8767 146.267 60.4799 146.296Z" fill="#603F1B"/>
<path id="Vector (Stroke)_4" fill-rule="evenodd" clip-rule="evenodd" d="M68.4894 147.745C69.0503 147.522 69.6863 147.795 69.9101 148.354C70.128 148.899 70.3075 149.707 70.4651 150.622C70.627 151.562 70.779 152.7 70.9214 153.953C71.2063 156.459 71.4579 159.473 71.6727 162.381C71.85 164.78 72.003 167.116 72.1293 169.045C72.1561 169.456 72.1817 169.847 72.2061 170.217C72.2759 171.275 72.3354 172.15 72.3844 172.775C72.3965 172.93 72.4078 173.067 72.4183 173.186C72.4884 173.207 72.567 173.23 72.6545 173.255C73.1747 173.402 73.9234 173.581 74.8558 173.777C76.7158 174.169 79.2506 174.615 82.0317 174.998C87.6402 175.771 94.0703 176.26 98.0079 175.603L98.0384 175.599C101.046 175.184 102.141 173.58 102.158 172.428C102.175 171.317 101.187 169.732 98.111 169.301C96.028 169.282 94.242 168.494 92.7745 167.515C92.7577 167.504 92.7411 167.493 92.725 167.48C92.2577 167.13 91.9544 166.578 91.7425 166.081C91.5153 165.548 91.3224 164.903 91.1559 164.199C90.822 162.788 90.5658 161.019 90.3777 159.167C90.0013 155.461 89.8841 151.287 90.0013 148.709C90.0287 148.107 90.5399 147.642 91.1431 147.669C91.7464 147.696 92.2132 148.206 92.1859 148.807C92.0743 151.264 92.1859 155.329 92.5533 158.947C92.7371 160.756 92.9816 162.42 93.2842 163.698C93.4359 164.339 93.5952 164.853 93.7551 165.228C93.9047 165.579 94.013 165.707 94.0356 165.733C95.2842 166.557 96.6613 167.121 98.1882 167.121C98.2367 167.121 98.2851 167.124 98.3331 167.13C102.07 167.629 104.385 169.805 104.345 172.461C104.305 175.082 101.974 177.252 98.3534 177.757C94.0515 178.47 87.3315 177.929 81.7325 177.158C78.9066 176.769 76.3207 176.314 74.4047 175.911C73.4489 175.71 72.6457 175.519 72.0574 175.353C71.7662 175.27 71.5055 175.188 71.2977 175.106C71.1956 175.066 71.0813 175.017 70.9737 174.957L70.9706 174.956C70.9039 174.919 70.6698 174.789 70.5013 174.536C70.4763 174.499 70.4536 174.459 70.4334 174.419C70.3688 174.29 70.3418 174.17 70.3351 174.14L70.3344 174.137C70.3229 174.087 70.3145 174.038 70.3083 173.999C70.2958 173.92 70.2844 173.826 70.2739 173.729C70.2525 173.531 70.2293 173.264 70.2043 172.945C70.1541 172.305 70.0937 171.416 70.0241 170.36C69.9995 169.989 69.9738 169.596 69.9469 169.185C69.8206 167.256 69.6684 164.93 69.4919 162.541C69.2776 159.642 69.0285 156.662 68.7485 154.198C68.6084 152.966 68.4618 151.874 68.3099 150.991C68.1537 150.084 68.0042 149.475 67.8789 149.162C67.6552 148.603 67.9285 147.968 68.4894 147.745Z" fill="#603F1B"/>
<path id="Vector (Stroke)_5" fill-rule="evenodd" clip-rule="evenodd" d="M86.6263 47.8658C86.7337 48.43 86.362 48.9742 85.7962 49.0812C81.667 49.8624 79.227 50.8606 76.9051 51.8233C76.8665 51.8393 76.8279 51.8553 76.7894 51.8713C74.4736 52.8318 72.2191 53.7668 68.604 54.3499C68.0355 54.4416 67.5 54.0563 67.4081 53.4894C67.3161 52.9224 67.7025 52.3885 68.271 52.2968C71.6436 51.7528 73.7125 50.8948 76.0088 49.9426C76.0406 49.9294 76.0724 49.9162 76.1043 49.9029C78.4741 48.9204 81.0688 47.8588 85.4074 47.0379C85.9733 46.9309 86.519 47.3015 86.6263 47.8658Z" fill="white"/>
<path id="Vector_4" d="M13.5113 61.3334C9.84959 61.1045 6.18787 65.224 4.35701 67.7414C0.237584 73.4629 -0.906703 81.4729 0.695298 88.3386C2.98387 96.3487 9.16301 102.986 17.6307 104.588C25.8696 106.19 35.7105 104.359 42.3473 98.8661C49.4419 92.9158 54.019 83.9903 57.6807 75.5226C58.3673 73.9206 56.0787 72.5474 55.3922 74.1494C52.6459 80.5575 49.213 86.7366 44.8647 92.2292C42.805 94.7467 40.5165 97.2641 37.5413 98.8661C34.1084 100.926 29.5313 101.841 25.6407 102.299C21.2924 102.757 16.4864 102.299 12.8247 100.239C9.39187 98.4084 6.64559 95.2044 5.04359 91.5427C2.06844 85.3635 1.83958 77.5823 5.04359 71.4031C6.41673 68.8857 10.0784 63.6219 13.5113 63.8508C15.1133 64.0797 15.1133 61.5622 13.5113 61.3334Z" fill="#603F1B"/>
<path id="Vector_5" d="M12.1379 76.8963C16.0285 83.5331 26.327 85.364 32.9639 82.3889C38.6853 79.8714 41.6605 74.6077 45.0933 69.5728C46.0088 68.1996 43.7202 66.8265 42.8048 68.1996C40.0585 72.3191 37.541 76.8962 32.9639 79.4137C29.9887 81.0157 26.7847 81.2446 23.5807 80.7868C19.919 80.1003 16.4862 78.7271 14.4265 75.5231C13.511 74.15 11.2225 75.5231 12.1379 76.8963Z" fill="#603F1B"/>
<path id="Vector_6" d="M57.2236 76.4396C60.1987 75.0665 63.1739 72.3202 64.3182 69.1162C65.0047 67.5142 65.2336 65.6833 64.0893 64.0813C62.945 62.4793 60.8853 62.2504 59.2833 63.3947L61.5719 64.7679C62.2584 61.7927 59.741 58.8175 56.7659 59.733C55.1639 60.1907 55.8504 62.7081 57.4524 62.2504C58.5967 62.0216 59.5122 62.937 59.0544 64.0813C58.5967 65.4544 60.1987 66.141 61.343 65.4544C61.5719 65.2256 61.8007 65.4544 62.0296 65.6833C62.2584 65.9121 62.4873 66.3699 62.4873 66.5987C62.4873 67.743 61.8007 68.8873 61.1142 69.8027C59.741 71.6336 58.139 73.2356 55.8504 74.3799C55.1639 74.6088 55.1639 75.5242 55.3927 76.2108C55.8504 76.6685 56.537 76.6685 57.2236 76.4396Z" fill="#603F1B"/>
<path id="Vector_7" d="M51.0433 60.8761C52.6453 58.8164 54.4761 57.2144 56.307 55.3836C57.2224 54.4681 58.1379 53.7815 59.2821 52.8661C59.2821 52.8661 59.2821 52.8661 59.511 52.6372L59.7399 52.4084C59.9687 52.1795 60.1976 51.9507 60.4264 51.9507C60.8841 51.7218 61.113 51.493 61.5707 51.493C61.7996 51.493 61.7996 51.493 62.0284 51.493H62.2573C62.4861 51.493 62.4861 51.493 62.4861 51.493C62.4861 51.2641 62.2573 51.0352 62.2573 50.8064C62.2573 50.5775 62.2573 51.0352 62.2573 51.0352C62.2573 51.2641 62.2573 51.493 62.0284 51.7218C62.0284 52.1795 61.7996 52.4084 61.7996 52.6372C61.3419 53.3238 60.6553 53.7815 59.9687 54.2393C58.5956 55.3836 57.2224 56.9856 56.0781 58.5876C55.6204 59.0453 56.0781 59.9607 56.5359 60.4184C57.2224 60.8761 57.909 60.4184 58.3667 59.9607C59.0533 59.0453 59.9687 58.1298 60.6553 57.2144C61.113 56.7567 61.5707 56.299 62.0284 56.0701C62.4861 55.6124 62.9439 55.3835 63.4016 54.9258C64.0881 54.0104 64.5459 52.8661 64.7747 51.7218C65.0036 51.0352 65.0036 50.3487 64.5459 49.6621C64.0881 48.9755 63.4016 48.7467 62.4861 48.7467C60.4264 48.5178 58.5956 50.1198 57.2224 51.2641C55.8493 52.4084 54.4761 53.7815 53.103 54.9258C51.7299 56.0701 50.3567 57.4433 49.2124 58.8164C48.7547 59.2741 48.7547 60.1896 49.2124 60.6473C49.6701 61.3339 50.5856 61.3339 51.0433 60.8761Z" fill="#603F1B"/>
<path id="Vector_8" d="M45.0943 68.8856C46.4674 64.7661 46.2386 60.4178 46.2386 56.2984C46.2386 55.3829 46.2386 54.4675 46.4674 53.5521C46.6963 53.3232 46.6963 53.0944 46.9251 53.3232C47.154 53.3232 47.3829 53.5521 47.6117 53.5521C48.2983 54.0098 48.2983 55.1541 48.2983 56.0695C48.2983 57.2138 48.5271 58.3581 48.5271 59.5024C48.756 61.1044 51.2734 61.1044 51.0446 59.5024C50.8157 58.1292 50.8157 56.5272 50.5869 55.1541C50.358 54.0098 50.1291 52.8655 49.2137 51.7212C47.6117 49.8903 44.6366 50.1192 43.7211 52.6366C43.2634 53.7809 43.2634 54.9252 43.2634 56.0695C43.2634 57.4427 43.2634 58.8158 43.2634 60.189C43.2634 62.9353 43.0346 65.4527 42.1191 67.9702C42.1191 69.801 44.6366 70.4876 45.0943 68.8856Z" fill="#603F1B"/>
</g>
</svg>
