<svg width="300" height="312" viewBox="0 0 300 312" fill="none" xmlns="http://www.w3.org/2000/svg">
<g clip-path="url(#clip0_12_1014)">
<path d="M160.019 272.965C155.288 273.244 151.113 272.965 146.939 272.686C87.1059 270.456 75.6959 240.064 72.913 186.252C71.5215 162.552 70.1301 129.652 70.9649 110.971C71.5215 94.5202 74.0262 76.3969 76.5308 56.3218C79.592 32.622 88.4974 15.8928 109.091 7.80703C121.058 3.3459 143.321 -0.836407 166.698 5.47841e-05C185.9 0.836516 205.659 4.74 219.573 14.7775C237.941 27.8821 246.568 47.9572 246.846 66.6381C246.846 83.6462 247.124 110.971 246.011 140.526C245.733 147.217 245.176 154.188 244.898 160.879C242.672 197.963 240.167 231.421 226.809 245.362C217.069 256.236 207.329 266.274 182.839 272.408L160.019 272.965Z" fill="#DA243E"/>
<path fill-rule="evenodd" clip-rule="evenodd" d="M185.774 50.4904C185.914 49.1879 187.082 48.2462 188.382 48.387L188.128 50.7453L187.873 53.1036C186.573 52.9628 185.633 51.7928 185.774 50.4904ZM188.128 50.7453L187.873 53.1036L188.329 53.1525C188.622 53.1837 189.046 53.2286 189.569 53.2832C190.617 53.3925 192.065 53.5412 193.672 53.6986C196.87 54.012 200.742 54.3653 203.302 54.5078C204.608 54.5805 205.725 53.579 205.798 52.271C205.87 50.963 204.871 49.8437 203.565 49.771C201.116 49.6347 197.335 49.2909 194.133 48.977C192.539 48.8208 191.1 48.6732 190.06 48.5646C189.54 48.5104 189.12 48.4659 188.83 48.435L188.382 48.387L188.128 50.7453Z" fill="white"/>
<path d="M123.285 44.6112C123.285 45.7265 123.563 46.5629 123.842 47.6782C124.955 50.4664 128.016 52.697 131.077 52.697C134.973 52.697 137.756 49.3511 138.035 45.4476C138.035 44.6112 138.035 43.7747 137.756 42.9383C137.478 42.1018 137.2 41.2653 136.643 40.7077C136.087 39.5924 135.252 39.0348 134.417 38.1983C134.139 37.9195 133.86 37.9195 133.86 37.6407C133.304 37.3619 132.747 37.083 132.191 36.8042C131.077 36.5254 129.964 36.5254 128.851 36.5254C127.738 36.8042 126.625 37.3619 125.79 37.9195C124.12 39.8712 123.285 42.3806 123.285 44.6112Z" fill="white"/>
<path fill-rule="evenodd" clip-rule="evenodd" d="M236.136 107.754C236.218 106.446 237.343 105.453 238.648 105.536C250.099 106.262 264.824 111.23 276.921 119.238C288.966 127.212 298.95 138.582 299.859 152.353C300.91 167.277 292.494 178.47 281.941 187.37C276.65 191.832 270.723 195.804 264.993 199.451C263.202 200.59 261.439 201.693 259.72 202.768C255.883 205.168 252.262 207.434 249.028 209.672C247.953 210.417 246.478 210.147 245.735 209.07C244.991 207.992 245.26 206.515 246.336 205.77C249.663 203.466 253.438 201.104 257.325 198.673C259.023 197.611 260.742 196.536 262.454 195.446C268.142 191.826 273.851 187.991 278.892 183.74C289 175.215 296.03 165.358 295.135 152.682L295.134 152.671C294.371 141.072 285.849 130.835 274.311 123.196C262.822 115.59 248.883 110.939 238.349 110.271C237.044 110.188 236.053 109.061 236.136 107.754Z" fill="#584023"/>
<path fill-rule="evenodd" clip-rule="evenodd" d="M255.499 211.823C256.773 211.528 258.044 212.324 258.338 213.601C259.23 217.472 259.512 221.854 259.512 225.845C259.512 225.905 259.51 225.966 259.505 226.027C259.364 227.865 259.142 230.02 258.55 232.079C257.959 234.131 256.957 236.238 255.157 237.882C252.222 240.787 248.058 241.34 244.685 241.033C244.615 241.026 244.545 241.017 244.476 241.004C241.08 240.386 238.04 238.862 235.342 237.51L235.214 237.446C234.044 236.86 233.57 235.436 234.155 234.264C234.74 233.092 236.162 232.617 237.331 233.203C240.131 234.605 242.586 235.818 245.219 236.317C247.91 236.543 250.356 235.983 251.852 234.484C251.882 234.454 251.912 234.426 251.943 234.398C252.896 233.539 253.552 232.318 254 230.764C254.443 229.224 254.64 227.509 254.777 225.754C254.772 221.966 254.496 218.019 253.724 214.668C253.43 213.391 254.225 212.118 255.499 211.823Z" fill="#584023"/>
<path fill-rule="evenodd" clip-rule="evenodd" d="M44.1772 25.8733C48.4432 24.6252 52.4717 27.6232 54.1586 31.0035C55.86 34.4128 55.7979 38.0449 55.5129 41.192C54.6713 51.3063 53.2631 61.2204 50.4282 71.1693C50.012 72.752 49.5673 74.2775 49.1316 75.7722C48.0297 79.5522 46.9853 83.1354 46.6046 86.9491C46.0718 92.2873 46.6664 97.4155 49.4772 101.176C53.3641 106.28 60.3497 108.655 67.6012 110.332L67.6172 110.336C73.4595 111.729 79.2634 112.669 84.4092 110.951C85.6496 110.536 86.9905 111.208 87.4039 112.451C87.8174 113.694 87.147 115.037 85.9066 115.451C79.367 117.635 72.3728 116.347 66.5285 114.953C59.3138 113.284 50.7228 110.642 45.705 104.043L45.6942 104.029L45.6942 104.029C41.8304 98.8676 41.3129 92.2884 41.8929 86.4771C42.3205 82.1938 43.5522 77.9686 44.6964 74.0437C45.1078 72.6325 45.5079 71.2601 45.8553 69.9378L45.8684 69.8899C48.594 60.3321 49.9672 50.7393 50.7948 40.7896L50.7962 40.7718L50.7963 40.7718C51.0671 37.787 51.0032 35.2889 49.9234 33.1251C48.8342 30.9428 46.7663 30.0479 45.4857 30.4328C45.4505 30.4434 45.4152 30.4531 45.3796 30.4621C44.8886 30.585 44.3656 30.9225 43.7677 31.576C43.2024 32.1939 42.7215 32.9181 42.1836 33.7281C42.1462 33.7844 42.1085 33.8412 42.0705 33.8984C39.0881 38.7932 36.3587 44.2586 33.8846 49.7669C33.348 50.9616 31.9464 51.4943 30.754 50.9567C29.5616 50.4191 29.03 49.0148 29.5665 47.8201C32.0951 42.1905 34.9235 36.5177 38.0542 31.385C38.0704 31.3584 38.0872 31.3321 38.1044 31.3062C38.1537 31.232 38.2051 31.1545 38.2583 31.074C38.7643 30.3094 39.4476 29.277 40.2772 28.3703C41.2001 27.3615 42.4691 26.3162 44.1772 25.8733Z" fill="#584023"/>
<path fill-rule="evenodd" clip-rule="evenodd" d="M11.6389 75.4738C12.9163 75.7537 13.7253 77.0181 13.4459 78.2979C11.5707 86.8866 11.5659 96.0445 13.1817 104.678L13.1841 104.691L13.1841 104.691C16.4132 122.485 28.7084 139.263 45.7868 142.653C48.9891 143.186 52.2065 143.457 55.5338 143.734C58.6061 143.875 61.7427 144.084 64.8499 144.292L64.8619 144.293C67.9973 144.502 71.1028 144.71 74.1348 144.848C75.441 144.907 76.4518 146.016 76.3924 147.325C76.333 148.634 75.226 149.646 73.9197 149.587C70.8331 149.446 67.6812 149.236 64.559 149.027L64.5469 149.026C61.4115 148.817 58.306 148.61 55.2741 148.472C55.2444 148.47 55.2146 148.468 55.185 148.466L55.1401 148.462C51.83 148.186 48.4093 147.9 44.9738 147.327C44.951 147.323 44.9282 147.319 44.9055 147.314C25.269 143.439 11.9761 124.543 8.52647 105.546C6.80392 96.3373 6.79969 86.5378 8.8201 77.2841C9.09953 76.0043 10.3616 75.1938 11.6389 75.4738Z" fill="#584023"/>
<path fill-rule="evenodd" clip-rule="evenodd" d="M34.012 47.0229C34.1427 47.0837 34.2682 47.1421 34.3883 47.1977C34.4657 47.2335 34.5411 47.2734 34.6142 47.3174C37.5207 49.0645 41.3216 52.1314 43.0286 55.8177C43.567 56.8307 43.8189 58.0248 43.8825 59.1403C43.9493 60.3116 43.8198 61.5817 43.4433 62.7607C43.1423 63.7031 42.6451 64.7011 41.8576 65.5155C42.1358 66.2625 42.1979 67.037 42.1268 67.7564C41.9207 69.8423 40.5847 71.8581 39.2318 73.3104C37.8499 74.7938 35.9861 76.1882 34.1124 76.729C33.4098 76.9318 32.5579 77.0553 31.6813 76.8967C31.239 77.591 30.6976 78.2008 30.0629 78.7228C28.5747 79.9467 26.7589 80.536 24.9759 80.7999C21.4855 81.3165 17.359 80.6779 14.083 80.1309L14.056 80.1264L14.056 80.1262C9.57983 79.3254 5.39339 76.6267 3.13319 73.3558C1.99405 71.7072 1.21741 69.7209 1.38971 67.6362C1.46702 66.7008 1.72959 65.8174 2.16459 65.0041C1.72206 64.6191 1.33933 64.1612 1.02537 63.6304C0.0992027 62.0645 -0.0121484 60.2174 0.149759 58.5953L0.156292 58.5371C0.166598 58.4545 0.176999 58.3689 0.187729 58.2806C0.433353 56.2601 0.850818 52.8259 4.22971 51.1333C4.2884 51.1038 4.34829 51.0769 4.40922 51.0525C4.93962 50.8399 5.41503 50.7282 5.86149 50.6862C6.01522 50.4739 6.16872 50.2241 6.34629 49.9128C6.3985 49.8213 6.45748 49.7155 6.52161 49.6006C6.71309 49.2573 6.95046 48.8319 7.19048 48.4561C7.91498 47.3219 8.98145 46.097 10.8924 45.4444C21.7863 41.3324 30.1806 45.2395 34.012 47.0229ZM32.0812 51.3555C28.4018 49.6468 21.5637 46.4713 12.5271 49.897C12.4976 49.9082 12.4679 49.9188 12.438 49.9288C11.8746 50.117 11.5614 50.4145 11.1788 51.0135C11.0196 51.2626 10.8899 51.4952 10.7262 51.7888C10.647 51.9309 10.5599 52.0872 10.4576 52.2665C10.1842 52.7459 9.83597 53.3242 9.37265 53.8898C9.11405 54.2303 8.7569 54.6449 8.26528 54.9527C7.62264 55.3551 7.01459 55.4178 6.61042 55.4178C6.53038 55.4178 6.45877 55.4154 6.41653 55.4138L6.32202 55.4105C6.3154 55.4103 6.31016 55.4102 6.3061 55.4102C6.29546 55.4127 6.27866 55.4173 6.25501 55.4251C5.40725 55.8948 5.15678 56.7158 4.8587 59.095C4.74768 60.2439 4.91346 60.8982 5.09898 61.2118C5.19948 61.3817 5.41942 61.6829 6.33775 61.7666C7.3329 61.8572 8.16411 62.5641 8.41509 63.5331C8.66606 64.5022 8.28275 65.5248 7.45714 66.0888C6.42802 66.7918 6.15455 67.4731 6.10871 68.0277C6.05489 68.6789 6.28707 69.5854 7.0264 70.6554C8.52123 72.8186 11.5645 74.8574 14.8755 75.4537C18.2738 76.0209 21.6555 76.4957 24.2839 76.1067C25.5621 75.9175 26.4597 75.5484 27.0586 75.0558C27.6075 74.6044 28.0782 73.9109 28.2754 72.6764C28.4507 71.5784 29.3638 70.7498 30.4716 70.6833C31.4973 70.6218 32.4351 71.2288 32.8105 72.1676C33.5634 71.9471 34.7211 71.1995 35.7701 70.0734C36.8523 68.9118 37.36 67.8431 37.4147 67.2889C37.4174 67.2621 37.4187 67.2401 37.4192 67.2223C37.3373 67.1717 37.154 67.0828 36.7962 67.0059C35.5238 66.7328 34.7099 65.482 34.9739 64.2054C35.2378 62.9288 36.4806 62.1048 37.7565 62.3605C38.1731 62.444 38.3025 62.345 38.3695 62.2932C38.5128 62.1826 38.7479 61.8955 38.9334 61.3148C39.1134 60.7511 39.1926 60.0695 39.1551 59.411C39.1162 58.73 38.9639 58.2543 38.8404 58.0315C38.8096 57.9759 38.781 57.9191 38.7547 57.8611C37.6751 55.4815 34.8923 53.0379 32.2842 51.4497C32.2176 51.4188 32.15 51.3874 32.0812 51.3555ZM37.4164 67.1598C37.4165 67.1597 37.4171 67.1618 37.4177 67.1667L37.4164 67.1598ZM6.32033 55.4073C6.32025 55.4074 6.31781 55.4079 6.3132 55.4085L6.32033 55.4073Z" fill="#584023"/>
<path fill-rule="evenodd" clip-rule="evenodd" d="M17.1393 67.4661C12.8781 65.6737 8.93571 65.2433 5.80711 66.3627C4.5757 66.8034 3.22094 66.1604 2.78115 64.9267C2.34137 63.6929 2.9831 62.3356 4.2145 61.895C8.8781 60.2263 14.1194 61.0505 18.9723 63.0919C23.8585 65.1472 28.6304 68.5459 32.5662 72.4891C33.4908 73.4154 33.4908 74.9174 32.5662 75.8437C31.6416 76.7701 30.1425 76.7701 29.2179 75.8437C25.6398 72.2588 21.3672 69.2446 17.1393 67.4661Z" fill="#584023"/>
<path fill-rule="evenodd" clip-rule="evenodd" d="M25.5361 57.9419C20.758 55.8768 14.174 54.9545 4.37388 56.9721C3.09306 57.2357 1.8414 56.4092 1.57822 55.126C1.31504 53.8427 2.13999 52.5887 3.42081 52.325C13.9361 50.1603 21.545 51.0503 27.4116 53.5858C33.2428 56.1059 37.0802 60.144 40.1831 63.6767C41.0469 64.6601 40.9514 66.159 39.9698 67.0245C38.9882 67.8899 37.4921 67.7942 36.6283 66.8108C33.6088 63.3729 30.3496 60.0222 25.5361 57.9419Z" fill="#584023"/>
<path fill-rule="evenodd" clip-rule="evenodd" d="M147.744 252.368C149.107 252.505 150.102 253.723 149.966 255.089C149.768 257.075 149.648 260.594 149.508 264.964L149.491 265.485C149.356 269.687 149.2 274.539 148.931 279.276C148.651 284.196 148.245 289.068 147.597 293.005C147.274 294.97 146.879 296.775 146.38 298.268C145.917 299.658 145.245 301.158 144.148 302.137C143.554 302.678 142.81 303.004 142.22 303.217C141.564 303.454 140.804 303.652 139.99 303.824C138.36 304.168 136.304 304.446 134.007 304.672C129.402 305.126 123.607 305.389 117.834 305.494C112.055 305.599 106.249 305.547 101.61 305.362C99.2933 305.269 97.2425 305.143 95.6202 304.983C94.1316 304.836 92.6569 304.634 91.7513 304.271L91.6954 304.248C90.302 303.65 89.0709 302.644 88.2636 301.404C87.4596 300.169 86.9512 298.472 87.5357 296.715C87.5729 296.604 87.6179 296.495 87.6704 296.39C87.9742 295.781 88.4425 295.417 88.6278 295.279C88.8772 295.092 89.144 294.935 89.3777 294.808C89.8496 294.553 90.4308 294.292 91.0305 294.039C91.7641 293.729 92.6668 293.372 93.6111 292.999C94.1899 292.771 94.7842 292.536 95.3648 292.302C96.9507 291.663 98.5368 290.99 99.8786 290.306C101.118 289.674 101.935 289.136 102.367 288.738C102.426 288.578 102.503 288.331 102.593 287.979C102.781 287.243 102.983 286.224 103.191 284.959C103.606 282.441 104.017 279.132 104.398 275.559C105.159 268.422 105.782 260.374 106.059 255.807C106.141 254.436 107.318 253.392 108.686 253.475C110.054 253.559 111.096 254.737 111.013 256.108C110.733 260.742 110.103 268.866 109.334 276.087C108.949 279.694 108.526 283.112 108.088 285.769C107.87 287.092 107.641 288.273 107.401 289.213C107.282 289.68 107.148 290.132 106.996 290.532C106.866 290.873 106.639 291.411 106.246 291.87C106.23 291.889 106.214 291.907 106.198 291.925C105.176 293.05 103.605 293.986 102.13 294.738C100.585 295.526 98.8313 296.265 97.2168 296.916C96.5521 297.183 95.9244 297.431 95.3373 297.663C94.4472 298.014 93.6503 298.329 92.9588 298.621C92.796 298.689 92.6468 298.754 92.5107 298.814C92.7519 299.128 93.134 299.445 93.6028 299.656C93.6242 299.663 93.6729 299.678 93.7563 299.698C93.8868 299.729 94.0641 299.766 94.2941 299.805C94.7554 299.883 95.3612 299.96 96.1069 300.034C97.5959 300.181 99.5412 300.303 101.808 300.393C106.335 300.574 112.044 300.626 117.744 300.522C123.45 300.418 129.1 300.159 133.522 299.723C135.739 299.505 137.592 299.248 138.969 298.958C139.658 298.812 140.176 298.669 140.536 298.539C140.724 298.471 140.827 298.422 140.869 298.4C140.883 298.385 140.902 298.362 140.926 298.329C140.98 298.256 141.051 298.148 141.133 297.996C141.3 297.688 141.484 297.259 141.673 296.691C142.053 295.551 142.397 294.035 142.7 292.196C143.304 288.526 143.699 283.866 143.975 278.993C144.241 274.319 144.395 269.521 144.531 265.306L144.547 264.804C144.684 260.522 144.808 256.791 145.027 254.595C145.164 253.228 146.38 252.231 147.744 252.368ZM92.2505 298.262C92.2507 298.262 92.2506 298.264 92.2495 298.27L92.2505 298.262ZM102.311 288.873C102.311 288.873 102.313 288.868 102.318 288.859C102.313 288.869 102.311 288.873 102.311 288.873Z" fill="#584023"/>
<path fill-rule="evenodd" clip-rule="evenodd" d="M162.232 256.409C163.52 255.939 164.944 256.605 165.412 257.896C165.79 258.937 166.06 260.421 166.276 262.035C166.499 263.706 166.688 265.715 166.851 267.915C167.176 272.318 167.404 277.594 167.578 282.673C167.691 285.975 167.783 289.218 167.864 292.092C167.907 293.634 167.948 295.069 167.987 296.349C168.043 298.194 168.097 299.711 168.153 300.788C168.159 300.895 168.164 300.996 168.17 301.092C168.18 301.095 168.191 301.098 168.202 301.102C169.094 301.381 170.401 301.735 172.044 302.134C175.321 302.93 179.816 303.878 184.761 304.741C194.747 306.484 206.181 307.811 213.164 307.021C218.356 306.4 220.125 303.758 220.228 302.153C220.319 300.716 219.118 298.045 213.618 297.169L213.564 297.159C210.181 296.543 207.078 295.304 204.282 293.436C204.244 293.411 204.207 293.384 204.17 293.356C203.2 292.628 202.62 291.519 202.246 290.594C201.841 289.594 201.522 288.408 201.263 287.146C200.742 284.614 200.403 281.471 200.191 278.215C199.766 271.694 199.836 264.407 200.121 259.979C200.209 258.609 201.39 257.57 202.757 257.658C204.125 257.747 205.162 258.929 205.074 260.3C204.803 264.515 204.733 271.587 205.144 277.892C205.349 281.05 205.67 283.935 206.124 286.143C206.352 287.251 206.598 288.114 206.846 288.725C207.019 289.155 207.147 289.342 207.185 289.397C209.353 290.817 211.759 291.773 214.426 292.262C221.155 293.344 225.506 297.361 225.181 302.469C224.866 307.416 220.235 311.185 213.744 311.96L213.73 311.961L213.73 311.961C205.963 312.842 193.886 311.381 183.909 309.64C178.87 308.76 174.268 307.791 170.874 306.967C169.183 306.556 167.761 306.173 166.723 305.849C166.212 305.689 165.743 305.527 165.366 305.368C165.183 305.291 164.957 305.189 164.738 305.058C164.629 304.993 164.473 304.893 164.308 304.753C164.18 304.645 163.91 304.399 163.693 304.005C163.535 303.721 163.467 303.474 163.447 303.403L163.446 303.397C163.407 303.257 163.382 303.13 163.367 303.04C163.335 302.857 163.312 302.659 163.295 302.476C163.258 302.1 163.226 301.611 163.197 301.047C163.137 299.912 163.082 298.347 163.026 296.502C162.986 295.198 162.945 293.752 162.901 292.204C162.821 289.342 162.73 286.134 162.617 282.844C162.444 277.781 162.219 272.584 161.901 268.283C161.742 266.13 161.561 264.229 161.356 262.695C161.144 261.104 160.926 260.087 160.748 259.595C160.279 258.305 160.944 256.878 162.232 256.409Z" fill="#584023"/>
<path fill-rule="evenodd" clip-rule="evenodd" d="M207.75 82.2543C208.363 83.4112 207.925 84.8474 206.77 85.462C188.543 95.1635 167.748 99.1619 147.509 96.8771C146.21 96.7305 145.275 95.5562 145.421 94.2544C145.568 92.9526 146.74 92.0162 148.039 92.1628C167.318 94.3392 187.154 90.5306 204.548 81.2724C205.703 80.6577 207.136 81.0974 207.75 82.2543Z" fill="white"/>
<path fill-rule="evenodd" clip-rule="evenodd" d="M248.124 151.501C247.244 151.027 246.477 151.03 245.957 151.29C244.787 151.876 243.365 151.401 242.78 150.23C242.196 149.058 242.67 147.633 243.839 147.047C246.102 145.914 248.535 146.335 250.369 147.324C252.189 148.306 253.776 150.024 254.401 152.112L254.418 152.169C255.496 156.13 254.065 160.246 251.734 162.947C249.772 165.447 247.076 167.02 244.751 168.376C244.359 168.605 243.977 168.827 243.611 169.047C242.49 169.721 241.036 169.357 240.363 168.234C239.69 167.11 240.054 165.653 241.175 164.979C241.634 164.704 242.075 164.444 242.498 164.194C244.86 162.803 246.68 161.73 248.038 159.981C248.066 159.944 248.095 159.909 248.125 159.875C249.656 158.122 250.427 155.591 249.858 153.449C249.64 152.755 249.006 151.977 248.124 151.501Z" fill="#584023"/>
</g>
<defs>
<clipPath id="clip0_12_1014">
<rect width="300" height="312" fill="white"/>
</clipPath>
</defs>
</svg>
