<svg width="24" height="24" viewBox="0 0 24 24" fill="none" xmlns="http://www.w3.org/2000/svg">
<g clip-path="url(#clip0_2098_11127)">
<path d="M0.712891 12C0.712891 16.9124 3.86289 21.0749 8.21289 22.6124V1.38745C3.86289 2.92495 0.712891 7.08745 0.712891 12Z" fill="#002495"/>
<path d="M23.2129 12C23.2129 7.08745 20.1004 2.92495 15.7129 1.38745V22.6124C20.1004 21.0749 23.2129 16.9124 23.2129 12Z" fill="#ED2939"/>
<path d="M8.21289 22.6125C9.37539 23.025 10.6504 23.25 11.9629 23.25C13.2754 23.25 14.5504 23.025 15.7129 22.6125V1.3875C14.5504 0.975 13.3129 0.75 11.9629 0.75C10.6129 0.75 9.37539 0.975 8.21289 1.3875V22.6125Z" fill="white"/>
</g>
<defs>
<clipPath id="clip0_2098_11127">
<rect width="24" height="24" fill="white"/>
</clipPath>
</defs>
</svg>
