<svg width="180" height="140" viewBox="0 0 180 140" fill="none" xmlns="http://www.w3.org/2000/svg">
<g id="Frame" clip-path="url(#clip0_8_1039)">
<g id="Group">
<g id="Clip path group">
<mask id="mask0_8_1039" style="mask-type:luminance" maskUnits="userSpaceOnUse" x="0" y="0" width="180" height="140">
<g id="SVGID_2_">
<path id="Vector" d="M180 0H0V140H180V0Z" fill="white"/>
</g>
</mask>
<g mask="url(#mask0_8_1039)">
<g id="Group_2">
<path id="Vector_2" d="M172.407 3.36736C172.145 3.36736 171.884 3.10834 171.884 2.84932C171.884 2.5903 172.015 2.20178 172.407 2.20178C172.8 2.20178 173.324 2.20178 173.978 2.20178C174.895 2.20178 175.942 2.20178 177.12 2.07227C177.382 2.07227 177.775 2.20178 177.775 2.5903C177.775 2.84932 177.644 3.23785 177.251 3.23785C175.942 3.36736 174.895 3.36736 173.978 3.36736C173.324 3.23785 172.8 3.23785 172.407 3.36736Z" fill="#603F1B"/>
</g>
</g>
</g>
<g id="Clip path group_2">
<mask id="mask1_8_1039" style="mask-type:luminance" maskUnits="userSpaceOnUse" x="0" y="0" width="180" height="140">
<g id="SVGID_2__2">
<path id="Vector_3" d="M180 0H0V140H180V0Z" fill="white"/>
</g>
</mask>
<g mask="url(#mask1_8_1039)">
<g id="Group_3">
<path id="Vector_4" d="M173.978 8.28853C173.716 8.28853 173.454 8.15902 173.454 7.9C173.324 7.64098 173.585 7.25245 173.847 7.25245C174.24 7.12294 174.895 7.12294 175.549 7.12294C176.073 7.12294 176.727 7.12294 176.989 6.99343C177.251 6.86392 177.644 7.12294 177.644 7.38196C177.774 7.64098 177.513 8.02951 177.251 8.02951C176.858 8.15902 176.204 8.15902 175.549 8.15902C175.025 8.15902 174.502 8.15902 173.978 8.28853C174.109 8.28853 174.109 8.28853 173.978 8.28853Z" fill="#603F1B"/>
</g>
</g>
</g>
<g id="Clip path group_3">
<mask id="mask2_8_1039" style="mask-type:luminance" maskUnits="userSpaceOnUse" x="0" y="0" width="180" height="140">
<g id="SVGID_2__3">
<path id="Vector_5" d="M180 0H0V140H180V0Z" fill="white"/>
</g>
</mask>
<g mask="url(#mask2_8_1039)">
<g id="Group_4">
<path id="Vector_6" d="M172.407 13.3395C172.146 13.3395 171.884 13.21 171.884 12.951C171.753 12.692 172.015 12.3034 172.276 12.3034C173.847 11.9149 175.549 11.7854 177.12 12.0444C177.382 12.0444 177.644 12.433 177.644 12.692C177.644 12.951 177.251 13.21 176.989 13.21C175.549 12.951 174.109 13.0805 172.669 13.469C172.538 13.21 172.538 13.3395 172.407 13.3395Z" fill="#603F1B"/>
</g>
</g>
</g>
<g id="Clip path group_4">
<mask id="mask3_8_1039" style="mask-type:luminance" maskUnits="userSpaceOnUse" x="0" y="0" width="180" height="140">
<g id="SVGID_2__4">
<path id="Vector_7" d="M180 0H0V140H180V0Z" fill="white"/>
</g>
</mask>
<g mask="url(#mask3_8_1039)">
<g id="Group_5">
<path id="Vector_8" d="M175.156 18.002C174.895 18.002 174.633 18.002 174.371 17.8725C174.109 17.743 173.847 17.4839 173.978 17.2249C174.109 16.9659 174.371 16.7069 174.633 16.8364C175.156 16.9659 175.418 16.8364 175.811 16.8364C176.204 16.7069 176.727 16.7069 177.251 16.8364C177.513 16.9659 177.644 17.3544 177.513 17.6134C177.382 17.8725 176.989 18.002 176.727 17.8725C176.465 17.743 176.335 17.8725 175.942 17.8725C175.811 17.8725 175.549 18.002 175.156 18.002Z" fill="#603F1B"/>
</g>
</g>
</g>
<g id="Clip path group_5">
<mask id="mask4_8_1039" style="mask-type:luminance" maskUnits="userSpaceOnUse" x="0" y="0" width="180" height="140">
<g id="SVGID_2__5">
<path id="Vector_9" d="M180 0H0V140H180V0Z" fill="white"/>
</g>
</mask>
<g mask="url(#mask4_8_1039)">
<g id="Group_6">
<path id="Vector_10" d="M176.989 22.9233H173.324C173.062 22.9233 172.8 22.6643 172.8 22.4052C172.8 22.1462 173.062 21.8872 173.324 21.8872H176.989C177.251 21.8872 177.513 22.1462 177.513 22.4052C177.513 22.6643 177.382 22.9233 176.989 22.9233Z" fill="#603F1B"/>
</g>
</g>
</g>
<g id="Clip path group_6">
<mask id="mask5_8_1039" style="mask-type:luminance" maskUnits="userSpaceOnUse" x="0" y="0" width="180" height="140">
<g id="SVGID_2__6">
<path id="Vector_11" d="M180 0H0V140H180V0Z" fill="white"/>
</g>
</mask>
<g mask="url(#mask5_8_1039)">
<g id="Group_7">
<path id="Vector_12" d="M174.764 27.4559C174.502 27.4559 174.24 27.1968 174.24 26.9378C174.24 26.6788 174.502 26.2903 174.764 26.2903L176.989 26.0312C177.251 26.0312 177.644 26.2903 177.644 26.5493C177.644 26.8083 177.382 27.1968 177.12 27.1968L174.764 27.4559C174.895 27.4559 174.895 27.4559 174.764 27.4559Z" fill="#603F1B"/>
</g>
</g>
</g>
<g id="Clip path group_7">
<mask id="mask6_8_1039" style="mask-type:luminance" maskUnits="userSpaceOnUse" x="0" y="0" width="180" height="140">
<g id="SVGID_2__7">
<path id="Vector_13" d="M180 0H0V140H180V0Z" fill="white"/>
</g>
</mask>
<g mask="url(#mask6_8_1039)">
<g id="Group_8">
<path id="Vector_14" d="M172.8 32.6363C172.538 32.6363 172.276 32.5068 172.276 32.2477C172.145 31.9887 172.276 31.6002 172.669 31.4707C174.109 30.9526 175.68 30.8231 177.251 31.0821C177.513 31.0821 177.775 31.4707 177.775 31.7297C177.775 31.9887 177.382 32.2477 177.12 32.2477C175.811 31.9887 174.371 32.1182 173.062 32.6363C172.931 32.6363 172.8 32.6363 172.8 32.6363Z" fill="#603F1B"/>
</g>
</g>
</g>
<g id="Clip path group_8">
<mask id="mask7_8_1039" style="mask-type:luminance" maskUnits="userSpaceOnUse" x="0" y="0" width="180" height="140">
<g id="SVGID_2__8">
<path id="Vector_15" d="M180 0H0V140H180V0Z" fill="white"/>
</g>
</mask>
<g mask="url(#mask7_8_1039)">
<g id="Group_9">
<path id="Vector_16" d="M175.156 37.1692C174.895 37.1692 174.633 36.9102 174.633 36.6512C174.633 36.3922 174.764 36.0036 175.156 36.0036L177.12 35.7446C177.382 35.7446 177.775 35.8741 177.775 36.2627C177.775 36.5217 177.644 36.9102 177.251 36.9102L175.156 37.1692Z" fill="#603F1B"/>
</g>
</g>
</g>
<g id="Clip path group_9">
<mask id="mask8_8_1039" style="mask-type:luminance" maskUnits="userSpaceOnUse" x="0" y="0" width="180" height="140">
<g id="SVGID_2__9">
<path id="Vector_17" d="M180 0H0V140H180V0Z" fill="white"/>
</g>
</mask>
<g mask="url(#mask8_8_1039)">
<g id="Group_10">
<path id="Vector_18" d="M171.884 42.997C171.622 42.997 171.36 42.8675 171.36 42.6085C171.229 42.3494 171.491 41.9609 171.753 41.9609C173.455 41.5724 175.287 41.4429 177.12 41.4429C177.382 41.4429 177.644 41.7019 177.644 42.0904C177.644 42.3494 177.382 42.6085 177.12 42.6085H176.727C176.596 42.6085 176.596 42.6085 176.596 42.6085C175.156 42.6085 173.585 42.738 172.145 43.1265C172.015 42.997 171.884 42.997 171.884 42.997Z" fill="#603F1B"/>
</g>
</g>
</g>
<g id="Clip path group_10">
<mask id="mask9_8_1039" style="mask-type:luminance" maskUnits="userSpaceOnUse" x="0" y="0" width="180" height="140">
<g id="SVGID_2__10">
<path id="Vector_19" d="M180 0H0V140H180V0Z" fill="white"/>
</g>
</mask>
<g mask="url(#mask9_8_1039)">
<g id="Group_11">
<path id="Vector_20" d="M175.025 47.6595C174.764 47.6595 174.502 47.4005 174.502 47.1414C174.502 46.8824 174.633 46.4939 175.025 46.4939L177.12 46.2349C177.382 46.2349 177.775 46.3644 177.775 46.7529C177.775 47.0119 177.644 47.4004 177.251 47.4004L175.025 47.6595Z" fill="#603F1B"/>
</g>
</g>
</g>
<g id="Clip path group_11">
<mask id="mask10_8_1039" style="mask-type:luminance" maskUnits="userSpaceOnUse" x="0" y="0" width="180" height="140">
<g id="SVGID_2__11">
<path id="Vector_21" d="M180 0H0V140H180V0Z" fill="white"/>
</g>
</mask>
<g mask="url(#mask10_8_1039)">
<g id="Group_12">
<path id="Vector_22" d="M172.8 53.7466C172.538 53.7466 172.276 53.6171 172.276 53.3581C172.145 53.0991 172.276 52.7105 172.669 52.581C174.109 52.063 175.68 51.9335 177.251 52.1925C177.513 52.1925 177.775 52.581 177.775 52.84C177.775 53.0991 177.382 53.3581 177.12 53.3581C175.811 53.0991 174.371 53.2286 173.062 53.7466C172.931 53.7466 172.8 53.7466 172.8 53.7466Z" fill="#603F1B"/>
</g>
</g>
</g>
<g id="Clip path group_12">
<mask id="mask11_8_1039" style="mask-type:luminance" maskUnits="userSpaceOnUse" x="0" y="0" width="180" height="140">
<g id="SVGID_2__12">
<path id="Vector_23" d="M180 0H0V140H180V0Z" fill="white"/>
</g>
</mask>
<g mask="url(#mask11_8_1039)">
<g id="Group_13">
<path id="Vector_24" d="M174.764 59.0564C174.633 59.0564 174.371 58.9269 174.24 58.7974C174.109 58.5384 174.109 58.1498 174.371 58.0203C175.156 57.5023 176.204 57.3728 176.989 57.5023C177.251 57.6318 177.513 57.8908 177.382 58.1498C177.251 58.4088 176.989 58.6679 176.727 58.5384C176.204 58.4088 175.549 58.5384 174.895 58.9269C175.025 59.0564 174.895 59.0564 174.764 59.0564Z" fill="#603F1B"/>
</g>
</g>
</g>
<g id="Clip path group_13">
<mask id="mask12_8_1039" style="mask-type:luminance" maskUnits="userSpaceOnUse" x="0" y="0" width="180" height="140">
<g id="SVGID_2__13">
<path id="Vector_25" d="M180 0H0V140H180V0Z" fill="white"/>
</g>
</mask>
<g mask="url(#mask12_8_1039)">
<g id="Group_14">
<path id="Vector_26" d="M172.8 64.755C172.538 64.755 172.276 64.496 172.276 64.237C172.276 63.978 172.407 63.5894 172.8 63.5894L177.12 62.9419C177.382 62.9419 177.775 63.0714 177.775 63.4599C177.775 63.8485 177.644 64.1075 177.251 64.1075L172.8 64.755Z" fill="#603F1B"/>
</g>
</g>
</g>
<g id="Clip path group_14">
<mask id="mask13_8_1039" style="mask-type:luminance" maskUnits="userSpaceOnUse" x="0" y="0" width="180" height="140">
<g id="SVGID_2__14">
<path id="Vector_27" d="M180 0H0V140H180V0Z" fill="white"/>
</g>
</mask>
<g mask="url(#mask13_8_1039)">
<g id="Group_15">
<path id="Vector_28" d="M176.989 69.2875H174.764C174.502 69.2875 174.24 69.0285 174.24 68.7695C174.24 68.5105 174.502 68.2515 174.764 68.2515H176.989C177.251 68.2515 177.513 68.5105 177.513 68.7695C177.513 69.0285 177.382 69.2875 176.989 69.2875Z" fill="#603F1B"/>
</g>
</g>
</g>
<g id="Clip path group_15">
<mask id="mask14_8_1039" style="mask-type:luminance" maskUnits="userSpaceOnUse" x="0" y="0" width="180" height="140">
<g id="SVGID_2__15">
<path id="Vector_29" d="M180 0H0V140H180V0Z" fill="white"/>
</g>
</mask>
<g mask="url(#mask14_8_1039)">
<g id="Group_16">
<path id="Vector_30" d="M172.538 74.5978C172.276 74.5978 172.015 74.4683 172.015 74.2093C171.884 73.9503 172.145 73.5617 172.407 73.5617L176.858 72.5257C177.12 72.3961 177.513 72.6552 177.513 72.9142C177.644 73.1732 177.382 73.5617 177.12 73.5617L172.538 74.5978C172.669 74.5978 172.669 74.5978 172.538 74.5978Z" fill="#603F1B"/>
</g>
</g>
</g>
<g id="Clip path group_16">
<mask id="mask15_8_1039" style="mask-type:luminance" maskUnits="userSpaceOnUse" x="0" y="0" width="180" height="140">
<g id="SVGID_2__16">
<path id="Vector_31" d="M180 0H0V140H180V0Z" fill="white"/>
</g>
</mask>
<g mask="url(#mask15_8_1039)">
<g id="Group_17">
<path id="Vector_32" d="M175.025 79.1307C174.764 79.1307 174.502 78.8716 174.502 78.6126C174.502 78.3536 174.764 77.9651 175.025 77.9651L177.12 77.7061C177.382 77.7061 177.775 77.9651 177.775 78.2241C177.775 78.4831 177.513 78.8716 177.251 78.8716L175.025 79.1307Z" fill="#603F1B"/>
</g>
</g>
</g>
<g id="Clip path group_17">
<mask id="mask16_8_1039" style="mask-type:luminance" maskUnits="userSpaceOnUse" x="0" y="0" width="180" height="140">
<g id="SVGID_2__17">
<path id="Vector_33" d="M180 0H0V140H180V0Z" fill="white"/>
</g>
</mask>
<g mask="url(#mask16_8_1039)">
<g id="Group_18">
<path id="Vector_34" d="M175.025 84.8287C174.764 84.8287 174.371 84.8287 174.109 84.6992C173.847 84.5697 173.716 84.3107 173.716 83.9222C173.847 83.6631 174.109 83.5336 174.502 83.5336C174.894 83.6631 175.287 83.5336 175.68 83.5336C176.073 83.5336 176.596 83.4041 176.989 83.5336C177.251 83.5336 177.513 83.9222 177.513 84.1812C177.513 84.4402 177.12 84.6992 176.858 84.6992C176.596 84.6992 176.204 84.6992 175.811 84.6992C175.68 84.8287 175.287 84.8287 175.025 84.8287Z" fill="#603F1B"/>
</g>
</g>
</g>
<g id="Clip path group_18">
<mask id="mask17_8_1039" style="mask-type:luminance" maskUnits="userSpaceOnUse" x="0" y="0" width="180" height="140">
<g id="SVGID_2__18">
<path id="Vector_35" d="M180 0H0V140H180V0Z" fill="white"/>
</g>
</mask>
<g mask="url(#mask17_8_1039)">
<g id="Group_19">
<path id="Vector_36" d="M151.069 91.3041C149.891 91.4336 148.844 91.4336 147.927 91.4336C133.265 91.4336 130.255 84.3106 129.076 71.3596C128.553 65.6612 127.898 57.7611 127.898 53.2283C127.898 49.343 128.291 44.8101 128.684 40.0183C129.207 34.3198 131.171 30.1755 136.145 27.9739C139.025 26.8083 144.393 25.5132 150.153 25.5132C154.865 25.5132 159.709 26.2902 163.113 28.6214C167.695 31.6001 170.051 36.392 170.313 40.7953C170.444 44.9396 170.836 51.5446 170.836 58.5382C170.836 60.0923 170.705 61.7759 170.705 63.4595C170.575 72.3957 170.182 80.4253 167.171 83.9221C164.945 86.6418 162.589 89.1024 156.698 90.7861L151.069 91.3041Z" fill="#E72F43"/>
</g>
</g>
</g>
<g id="Clip path group_19">
<mask id="mask18_8_1039" style="mask-type:luminance" maskUnits="userSpaceOnUse" x="0" y="0" width="180" height="140">
<g id="SVGID_2__19">
<path id="Vector_37" d="M180 0H0V140H180V0Z" fill="white"/>
</g>
</mask>
<g mask="url(#mask18_8_1039)">
<g id="Group_20">
<path id="Vector_38" d="M159.316 102.831C157.746 102.831 156.044 102.701 154.473 102.572C153.164 102.442 151.855 102.442 150.807 102.442C150.546 102.442 150.284 102.183 150.284 101.924C150.284 101.665 150.546 101.406 150.807 101.406C151.855 101.406 153.164 101.536 154.473 101.536C157.222 101.665 160.364 101.924 162.458 101.536C163.244 101.406 163.506 101.147 163.506 100.888C163.506 100.5 162.589 99.852 161.28 99.9815C161.149 99.9815 161.018 99.9815 160.887 99.852C160.756 99.7225 160.626 99.593 160.626 99.4635C160.495 97.2618 160.495 92.988 160.626 90.5273C160.626 90.2683 160.887 90.0093 161.28 90.0093C161.542 90.0093 161.804 90.2683 161.804 90.6568C161.673 92.988 161.673 96.6143 161.804 98.9454C163.375 98.9454 164.553 99.852 164.684 100.759C164.684 101.147 164.815 102.313 162.72 102.701C161.673 102.831 160.495 102.831 159.316 102.831Z" fill="#603F1B"/>
</g>
</g>
</g>
<g id="Clip path group_20">
<mask id="mask19_8_1039" style="mask-type:luminance" maskUnits="userSpaceOnUse" x="0" y="0" width="180" height="140">
<g id="SVGID_2__20">
<path id="Vector_39" d="M180 0H0V140H180V0Z" fill="white"/>
</g>
</mask>
<g mask="url(#mask19_8_1039)">
<g id="Group_21">
<path id="Vector_40" d="M146.095 102.96C144 102.96 141.644 102.831 139.549 102.701C138.109 102.572 136.669 102.572 135.753 102.572C135.491 102.572 135.229 102.313 135.229 102.054V86.2534C135.229 85.9944 135.491 85.7354 135.753 85.7354C136.015 85.7354 136.276 85.9944 136.276 86.2534V101.277C137.193 101.277 138.371 101.406 139.549 101.406C143.084 101.665 147.535 101.795 149.76 101.406C150.415 101.277 150.807 101.018 150.807 100.758C150.807 100.37 149.891 99.7224 148.582 99.8519C148.451 99.8519 148.32 99.8519 148.189 99.7224C148.058 99.5929 147.927 99.4634 147.927 99.3339C147.796 97.2617 147.796 94.283 147.927 91.4338C147.927 91.1748 148.189 90.9157 148.582 90.9157C148.844 90.9157 149.105 91.1748 149.105 91.5633C148.975 94.024 148.975 96.7437 149.105 98.8158C150.676 98.8158 151.855 99.7224 151.985 100.629C151.985 101.017 152.116 102.183 150.022 102.572C149.105 102.831 147.665 102.96 146.095 102.96Z" fill="#603F1B"/>
</g>
</g>
</g>
<g id="Clip path group_21">
<mask id="mask20_8_1039" style="mask-type:luminance" maskUnits="userSpaceOnUse" x="0" y="0" width="180" height="140">
<g id="SVGID_2__21">
<path id="Vector_41" d="M180 0H0V140H180V0Z" fill="white"/>
</g>
</mask>
<g mask="url(#mask20_8_1039)">
<g id="Group_22">
<path id="Vector_42" d="M154.996 36.2627C153.556 36.3922 154.211 39.1119 155.651 38.7234C157.222 38.3349 156.306 36.2627 154.996 36.2627Z" fill="white"/>
</g>
</g>
</g>
<g id="Clip path group_22">
<mask id="mask21_8_1039" style="mask-type:luminance" maskUnits="userSpaceOnUse" x="0" y="0" width="180" height="140">
<g id="SVGID_2__22">
<path id="Vector_43" d="M180 0H0V140H180V0Z" fill="white"/>
</g>
</mask>
<g mask="url(#mask21_8_1039)">
<g id="Group_23">
<path id="Vector_44" d="M163.505 35.8742C163.636 35.8742 163.636 35.8742 163.767 35.8742C164.814 36.1332 164.945 37.8169 163.898 38.2054C162.065 38.7234 161.934 35.7447 163.505 35.8742Z" fill="white"/>
</g>
</g>
</g>
<g id="Clip path group_23">
<mask id="mask22_8_1039" style="mask-type:luminance" maskUnits="userSpaceOnUse" x="0" y="0" width="180" height="140">
<g id="SVGID_2__23">
<path id="Vector_45" d="M180 0H0V140H180V0Z" fill="white"/>
</g>
</mask>
<g mask="url(#mask22_8_1039)">
<g id="Group_24">
<path id="Vector_46" d="M157.745 46.8823C156.698 46.8823 155.782 46.7528 154.735 46.4937C154.473 46.3642 154.342 46.1052 154.473 45.9757C154.604 45.7167 154.865 45.5872 154.996 45.7167C159.055 47.0118 163.898 45.1986 166.255 41.7019C166.385 41.4429 166.647 41.4429 166.909 41.5724C167.171 41.7019 167.171 41.9609 167.04 42.2199C165.076 45.0691 161.411 46.8823 157.745 46.8823Z" fill="white"/>
</g>
</g>
</g>
<g id="Clip path group_24">
<mask id="mask23_8_1039" style="mask-type:luminance" maskUnits="userSpaceOnUse" x="0" y="0" width="180" height="140">
<g id="SVGID_2__24">
<path id="Vector_47" d="M180 0H0V140H180V0Z" fill="white"/>
</g>
</mask>
<g mask="url(#mask23_8_1039)">
<g id="Group_25">
<path id="Vector_48" d="M131.564 64.6254C131.433 64.6254 131.433 64.6254 131.302 64.6254C127.898 63.2008 125.149 60.6106 122.531 58.1499L121.876 57.5023C118.342 54.2646 115.855 49.9908 114.938 45.4579C113.498 38.7234 115.593 31.3414 120.175 26.161C126.851 18.6494 137.062 17.7429 142.56 17.8724C146.618 18.0019 151.2 18.2609 154.473 19.815C154.996 20.074 156.175 20.7216 156.305 21.8872C156.305 22.2757 156.175 22.9232 155.389 23.5708C154.996 23.8298 154.604 23.9593 154.08 24.0888C154.211 24.2183 154.211 24.4774 154.211 24.7364C154.211 24.9954 154.08 25.2544 153.818 25.2544C152.509 25.643 150.807 25.5134 149.236 25.3839C148.451 25.3839 147.796 25.2544 147.142 25.2544C144.393 25.2544 142.036 25.5134 140.073 25.902C136.8 26.5495 126.065 29.3987 126.72 39.5005C126.982 44.0333 129.862 48.4367 133.92 50.6383C134.182 50.7678 134.313 51.1564 134.182 51.4154C134.051 51.6744 133.658 51.8039 133.396 51.6744C128.945 49.3432 125.935 44.5514 125.542 39.63C125.018 30.8233 132.611 26.161 139.811 24.8659C141.905 24.4774 144.262 24.2183 147.142 24.2183C147.796 24.2183 148.582 24.2183 149.367 24.3479C150.545 24.4774 151.724 24.4774 152.771 24.3479C152.509 24.2183 151.985 24.2183 151.331 24.2183H151.069C150.807 24.2183 150.545 23.9593 150.545 23.7003C150.545 23.4413 150.807 23.1823 151.069 23.0528C151.462 23.0528 151.855 23.0528 152.378 23.0528C153.295 23.0528 154.342 23.0528 154.865 22.6642C155.127 22.5347 155.389 22.2757 155.389 22.0167C155.389 21.6282 154.865 21.2396 154.211 20.8511C151.069 19.4265 146.618 19.1675 142.691 19.038C137.455 18.9084 127.636 19.815 121.222 26.938C116.902 31.8594 114.938 38.8529 116.247 45.3284C117.164 49.6022 119.52 53.7466 122.924 56.8548L123.578 57.5023C126.196 59.8335 128.815 62.2942 132.087 63.7188C132.349 63.8483 132.48 64.2368 132.349 64.4959C131.956 64.4959 131.825 64.6254 131.564 64.6254Z" fill="#603F1B"/>
</g>
</g>
</g>
<g id="Clip path group_25">
<mask id="mask24_8_1039" style="mask-type:luminance" maskUnits="userSpaceOnUse" x="0" y="0" width="180" height="140">
<g id="SVGID_2__25">
<path id="Vector_49" d="M180 0H0V140H180V0Z" fill="white"/>
</g>
</mask>
<g mask="url(#mask24_8_1039)">
<g id="Group_26">
<path id="Vector_50" d="M0.654545 103.478C0.392727 103.478 0 103.219 0 102.96C0 102.572 0.261818 102.313 0.523636 102.313C3.66545 102.183 15.9709 102.183 27.8836 102.183C39.7964 102.183 52.1018 102.183 55.2436 102.054C61.2655 101.795 103.418 100.888 108.916 101.535C109.964 101.665 172.015 101.795 178.822 101.795V0.776943C178.822 0.388414 179.084 0.129395 179.476 0.129395C179.869 0.129395 180.131 0.388414 180.131 0.776943V102.313C180.131 102.442 180 102.701 179.869 102.701C179.476 103.09 109.571 102.701 108.916 102.701C103.418 102.183 61.5273 102.96 55.5055 103.219C52.3636 103.349 40.0582 103.349 28.1455 103.349C16.1018 103.219 3.79636 103.219 0.654545 103.478Z" fill="#603F1B"/>
</g>
</g>
</g>
<g id="Clip path group_26">
<mask id="mask25_8_1039" style="mask-type:luminance" maskUnits="userSpaceOnUse" x="0" y="0" width="180" height="140">
<g id="SVGID_2__26">
<path id="Vector_51" d="M180 0H0V140H180V0Z" fill="white"/>
</g>
</mask>
<g mask="url(#mask25_8_1039)">
<g id="Group_27">
<path id="Vector_52" d="M155.127 22.9231C154.996 22.9231 154.996 22.9231 154.865 22.9231C153.556 22.4051 152.116 22.0165 150.676 22.0165C150.415 22.0165 150.153 21.7575 150.153 21.4985C150.153 21.2395 150.415 20.9805 150.676 20.9805C152.247 20.9805 153.818 21.369 155.258 21.887C155.52 22.0165 155.651 22.4051 155.52 22.6641C155.651 22.7936 155.389 22.9231 155.127 22.9231Z" fill="#603F1B"/>
</g>
</g>
</g>
<g id="Clip path group_27">
<mask id="mask26_8_1039" style="mask-type:luminance" maskUnits="userSpaceOnUse" x="0" y="0" width="180" height="140">
<g id="SVGID_2__27">
<path id="Vector_53" d="M180 0H0V140H180V0Z" fill="white"/>
</g>
</mask>
<g mask="url(#mask26_8_1039)">
<g id="Group_28">
<path id="Vector_54" d="M152.64 82.368C151.985 82.368 151.331 82.368 150.676 82.2385C150.153 82.109 149.629 81.9794 149.105 81.7204C148.713 81.5909 148.32 81.3319 147.796 81.2024C147.404 80.9434 147.011 80.8139 146.618 80.5548L148.582 77.1876C148.713 77.3171 148.975 77.4466 149.236 77.5761C149.498 77.7056 149.76 77.8351 150.022 77.9647C150.284 78.0942 150.545 78.0942 150.676 78.2237C150.938 78.3532 151.069 78.3532 151.2 78.3532C151.593 78.4827 151.855 78.4827 152.116 78.3532C152.378 78.2237 152.64 78.2237 152.902 77.9647C153.164 77.8351 153.295 77.5761 153.425 77.3171C153.556 77.0581 153.556 76.7991 153.687 76.54C153.687 76.4105 153.687 76.281 153.687 76.022C153.687 75.763 153.556 75.6335 153.425 75.3745C153.295 75.1154 153.164 74.9859 153.033 74.7269C152.902 74.4679 152.64 74.4679 152.378 74.3384C152.247 74.3384 152.116 74.3384 151.985 74.3384C151.855 74.3384 151.724 74.3384 151.593 74.2089C151.462 74.0794 151.2 74.2089 150.938 74.0794C150.676 73.9498 150.415 74.0794 150.022 74.0794V70.5826L151.855 70.4531C152.116 70.4531 152.378 70.3236 152.64 70.1941C152.902 70.0646 153.033 69.8055 153.164 69.676C153.295 69.417 153.425 69.2875 153.425 69.0285C153.425 68.7695 153.556 68.6399 153.556 68.3809C153.556 67.7334 153.295 67.3449 153.033 67.0858C152.771 66.8268 152.378 66.6973 151.985 66.6973C151.855 66.6973 151.593 66.6973 151.462 66.8268C151.331 66.9563 150.938 66.9563 150.676 67.0858C150.415 67.2153 150.153 67.3449 149.76 67.4744C149.498 67.6039 149.236 67.7334 148.975 67.8629L147.273 64.6251C148.189 63.9776 149.105 63.4596 149.891 63.2005C150.676 62.9415 151.462 62.812 152.247 62.812C152.64 62.812 152.902 62.812 153.295 62.812C153.687 62.812 153.949 62.9415 154.211 62.9415C154.473 62.9415 154.865 63.071 155.127 63.3301C155.389 63.4596 155.782 63.7186 155.913 63.8481C156.044 63.9776 156.436 64.2366 156.567 64.4956C156.698 64.7547 156.96 65.0137 156.96 65.1432C157.091 65.5317 157.222 66.0498 157.353 66.4383C157.484 66.9563 157.484 67.4744 157.484 67.9924C157.484 68.7695 157.353 69.5465 157.091 70.1941C156.829 70.9711 156.305 71.4892 155.52 72.0072C155.913 72.2662 156.305 72.5252 156.567 72.7843C156.829 73.0433 157.091 73.4318 157.222 73.8203C157.353 74.2089 157.484 74.5974 157.615 74.9859C157.745 75.3745 157.745 75.763 157.745 76.1515C157.745 76.9286 157.615 77.7056 157.484 78.4827C157.353 79.2597 157.091 79.7778 156.829 80.1663C156.698 80.5548 156.436 80.8139 156.044 81.0729C155.782 81.3319 155.389 81.5909 154.996 81.8499C154.604 82.109 154.211 82.2385 153.818 82.368C153.295 82.368 152.902 82.368 152.64 82.368Z" fill="white"/>
</g>
</g>
</g>
<g id="Clip path group_28">
<mask id="mask27_8_1039" style="mask-type:luminance" maskUnits="userSpaceOnUse" x="0" y="0" width="180" height="140">
<g id="SVGID_2__28">
<path id="Vector_55" d="M180 0H0V140H180V0Z" fill="white"/>
</g>
</mask>
<g mask="url(#mask27_8_1039)">
<g id="Group_29" opacity="0.3">
<g id="Group_30">
<g id="Clip path group_29">
<mask id="mask28_8_1039" style="mask-type:luminance" maskUnits="userSpaceOnUse" x="2" y="39" width="46" height="64">
<g id="SVGID_4_">
<path id="Vector_56" d="M47.9128 39.1118H2.0946V102.572H47.9128V39.1118Z" fill="white"/>
</g>
</mask>
<g mask="url(#mask28_8_1039)">
<g id="Group_31">
<path id="Vector_57" d="M26.7055 54.3938C26.5746 54.3938 26.4437 54.3938 26.3128 54.2643C25.3964 53.2282 25.2655 51.6741 25.9201 49.8609C26.4437 48.4363 27.3601 47.4002 28.2764 46.6232C28.5383 46.4937 28.8001 46.3642 29.0619 46.2346C29.4546 43.3854 31.2874 40.6657 34.0364 39.3706C34.2983 39.2411 34.691 39.3706 34.8219 39.6297C34.9528 39.8887 34.8219 40.2772 34.5601 40.4067C32.3346 41.4428 30.7637 43.5149 30.371 45.8461C31.1564 45.7166 31.811 45.8461 32.4655 46.1051C33.9055 46.7527 34.8219 48.4363 34.4292 49.8609C34.1673 50.638 33.5128 51.2855 32.7274 51.5445C31.9419 51.8036 31.1564 51.6741 30.5019 51.2855C29.8473 50.897 29.4546 50.1199 29.1928 49.0839C29.0619 48.5658 29.0619 48.0478 29.0619 47.5297C28.2764 48.0478 27.6219 48.9543 27.0983 50.2494C26.8364 50.7675 26.3128 52.4511 27.2292 53.4872C27.491 53.7462 27.491 54.1347 27.2292 54.2643C26.9673 54.2643 26.8364 54.3938 26.7055 54.3938ZM30.2401 46.8822C30.2401 47.5297 30.2401 48.0478 30.371 48.6953C30.5019 49.4724 30.7637 49.9904 31.1564 50.2494C31.4183 50.5085 31.811 50.5085 32.3346 50.379C32.8583 50.2494 33.251 49.8609 33.3819 49.3429C33.6437 48.4363 33.1201 47.4002 32.0728 47.0117C31.5492 46.7527 30.8946 46.7527 30.2401 46.8822Z" fill="#603F1B"/>
</g>
</g>
</g>
<g id="Clip path group_30">
<mask id="mask29_8_1039" style="mask-type:luminance" maskUnits="userSpaceOnUse" x="2" y="39" width="46" height="64">
<g id="SVGID_4__2">
<path id="Vector_58" d="M47.9128 39.1118H2.0946V102.572H47.9128V39.1118Z" fill="white"/>
</g>
</mask>
<g mask="url(#mask29_8_1039)">
<g id="Group_32">
<path id="Vector_59" d="M26.3128 101.147C20.5528 101.406 13.4837 101.665 8.64007 98.0387C6.02188 96.096 4.32007 93.1173 3.4037 90.0091C1.83279 84.8287 2.09461 79.2598 2.09461 73.8204C2.09461 59.1858 11.651 54.0054 25.2655 54.0054C30.5019 54.0054 36.9164 54.9119 41.4982 58.0202C45.4255 60.7399 46.6037 65.1432 46.8655 69.676C47.1273 74.9859 48.4364 80.5549 47.9128 85.8648C47.5201 89.6205 45.9492 93.3763 43.331 96.2255C38.8801 100.758 32.0728 101.017 26.3128 101.147Z" fill="#E72F43"/>
</g>
</g>
</g>
<g id="Clip path group_31">
<mask id="mask30_8_1039" style="mask-type:luminance" maskUnits="userSpaceOnUse" x="2" y="39" width="46" height="64">
<g id="SVGID_4__3">
<path id="Vector_60" d="M47.9128 39.1118H2.0946V102.572H47.9128V39.1118Z" fill="white"/>
</g>
</mask>
<g mask="url(#mask30_8_1039)">
<g id="Group_33">
<path id="Vector_61" d="M17.8037 60.0924C15.971 59.9629 16.3637 63.4596 18.0655 63.2006C20.0292 63.0711 19.3746 60.3514 17.8037 60.0924Z" fill="white"/>
</g>
</g>
</g>
<g id="Clip path group_32">
<mask id="mask31_8_1039" style="mask-type:luminance" maskUnits="userSpaceOnUse" x="2" y="39" width="46" height="64">
<g id="SVGID_4__4">
<path id="Vector_62" d="M47.9128 39.1118H2.0946V102.572H47.9128V39.1118Z" fill="white"/>
</g>
</mask>
<g mask="url(#mask31_8_1039)">
<g id="Group_34">
<path id="Vector_63" d="M31.9419 59.704C32.0728 59.704 32.2037 59.704 32.3346 59.8335C33.6437 60.3515 33.5128 62.5532 31.9419 62.6827C29.7164 62.9417 30.1091 59.3154 31.9419 59.704Z" fill="white"/>
</g>
</g>
</g>
<g id="Clip path group_33">
<mask id="mask32_8_1039" style="mask-type:luminance" maskUnits="userSpaceOnUse" x="2" y="39" width="46" height="64">
<g id="SVGID_4__5">
<path id="Vector_64" d="M47.9128 39.1118H2.0946V102.572H47.9128V39.1118Z" fill="white"/>
</g>
</mask>
<g mask="url(#mask32_8_1039)">
<g id="Group_35">
<path id="Vector_65" d="M26.9673 75.3743C25.92 75.3743 25.0036 75.2448 23.9564 74.8563C22.2546 74.3383 21.2073 73.0432 20.8146 71.23C20.5527 69.9349 20.9455 68.5103 21.6 67.4742C22.9091 65.5316 25.2655 65.1431 26.9673 65.1431C28.1455 65.1431 29.0618 65.2726 29.8473 65.6611C31.4182 66.4382 32.5964 67.9923 32.7273 69.9349C32.8582 71.8776 32.0727 73.4317 30.6327 74.3383C29.7164 75.1153 28.4073 75.3743 26.9673 75.3743ZM27.2291 66.0496C25.5273 66.0496 23.5636 66.4382 22.5164 67.9923C21.8618 68.8988 21.6 70.0644 21.8618 71.23C22.1236 72.7841 22.9091 73.6907 24.3491 74.2087C26.5746 74.8563 28.9309 74.7268 30.3709 73.8202C31.5491 73.0432 32.2036 71.7481 32.0727 70.1939C31.9418 68.5103 31.0255 67.2152 29.7164 66.5677C28.9309 66.1791 28.1455 66.0496 27.2291 66.0496Z" fill="white"/>
</g>
</g>
</g>
<g id="Clip path group_34">
<mask id="mask33_8_1039" style="mask-type:luminance" maskUnits="userSpaceOnUse" x="2" y="39" width="46" height="64">
<g id="SVGID_4__6">
<path id="Vector_66" d="M47.9128 39.1118H2.0946V102.572H47.9128V39.1118Z" fill="white"/>
</g>
</mask>
<g mask="url(#mask33_8_1039)">
<g id="Group_36">
<path id="Vector_67" d="M26.8364 72.6548C26.7055 72.6548 26.5746 72.6548 26.4437 72.6548C25.7891 72.5253 25.1346 72.1368 24.7418 71.4892C24.3491 70.9712 24.3491 70.3236 24.48 69.6761C24.7418 68.899 25.3964 68.5105 26.1818 68.381C27.0982 68.2515 28.1455 68.64 28.8 69.4171C29.3237 70.0646 29.3237 70.7122 29.0618 71.4892C28.6691 72.1368 27.7528 72.6548 26.8364 72.6548ZM26.5746 69.2876C26.4437 69.2876 26.4437 69.2876 26.3128 69.2876C26.0509 69.2876 25.5273 69.5466 25.3964 70.0646C25.2655 70.3236 25.2655 70.7122 25.5273 71.1007C25.7891 71.4892 26.1818 71.7482 26.5746 71.8778C27.2291 72.0073 27.8837 71.6187 28.1455 71.1007C28.2764 70.7122 28.2764 70.3236 28.0146 69.9351C27.7528 69.5466 27.2291 69.2876 26.5746 69.2876Z" fill="white"/>
</g>
</g>
</g>
<g id="Clip path group_35">
<mask id="mask34_8_1039" style="mask-type:luminance" maskUnits="userSpaceOnUse" x="2" y="39" width="46" height="64">
<g id="SVGID_4__7">
<path id="Vector_68" d="M47.9128 39.1118H2.0946V102.572H47.9128V39.1118Z" fill="white"/>
</g>
</mask>
<g mask="url(#mask34_8_1039)">
<g id="Group_37">
<path id="Vector_69" d="M26.9674 77.9645C25.2655 77.9645 23.5637 76.7989 22.9092 75.2448C22.2546 73.4316 23.171 71.3595 24.8728 70.7119C25.1346 70.5824 25.3964 70.7119 25.5273 70.971C25.6583 71.23 25.5273 71.489 25.2655 71.6185C23.9564 72.1365 23.3019 73.6907 23.8255 75.1153C24.2183 76.4104 25.7892 77.3169 27.2292 77.1874C28.5383 77.0579 29.8474 76.0218 30.1092 74.8563C30.371 73.5612 29.5855 72.1366 28.4074 71.748C28.1455 71.6185 28.0146 71.3595 28.1455 71.23C28.2764 70.971 28.4073 70.8415 28.6692 70.971C30.371 71.489 31.4183 73.3021 31.0255 75.1153C30.6328 76.6694 29.0619 77.9645 27.3601 78.094C27.2292 77.9645 27.0983 77.9645 26.9674 77.9645Z" fill="white"/>
</g>
</g>
</g>
<g id="Clip path group_36">
<mask id="mask35_8_1039" style="mask-type:luminance" maskUnits="userSpaceOnUse" x="2" y="39" width="46" height="64">
<g id="SVGID_4__8">
<path id="Vector_70" d="M47.9128 39.1118H2.0946V102.572H47.9128V39.1118Z" fill="white"/>
</g>
</mask>
<g mask="url(#mask35_8_1039)">
<g id="Group_38">
<path id="Vector_71" d="M24.7419 84.9584C24.4801 85.0879 24.3492 85.2174 24.2183 85.3469C24.0874 85.4765 23.9565 85.4765 23.8256 85.606C23.6946 85.7355 23.5637 85.7355 23.4328 85.865C23.3019 85.9945 23.0401 86.124 22.7783 86.2535C22.5165 85.865 22.2546 85.4765 22.1237 84.9584C21.9928 84.4404 21.731 83.9223 21.6001 83.5338L25.6583 81.2026H28.2765C28.2765 81.5912 28.2765 82.1092 28.2765 82.6272C28.2765 83.1453 28.2765 83.7928 28.2765 84.4404C28.2765 85.0879 28.2765 85.865 28.2765 86.5125V91.0454C28.2765 91.8224 28.2765 92.47 28.2765 93.247C28.2765 93.8946 28.2765 94.5421 28.2765 95.1897C28.2765 95.8372 28.2765 96.2258 28.2765 96.7438C27.8837 96.7438 27.6219 96.7438 27.3601 96.7438C27.0983 96.7438 26.9674 96.7438 26.7056 96.7438C26.4437 96.7438 26.3128 96.7438 26.1819 96.7438C26.051 96.7438 25.7892 96.7438 25.6583 96.7438C25.5274 96.7438 25.3965 96.7438 25.1346 96.7438C24.8728 96.7438 24.7419 96.7438 24.4801 96.7438C24.4801 95.4487 24.4801 94.2831 24.4801 93.1175C24.4801 91.9519 24.4801 90.9159 24.4801 89.8798C24.4801 88.8437 24.4801 87.9371 24.4801 87.1601C24.7419 86.124 24.7419 85.4765 24.7419 84.9584Z" fill="white"/>
</g>
</g>
</g>
</g>
</g>
</g>
</g>
<g id="Clip path group_37">
<mask id="mask36_8_1039" style="mask-type:luminance" maskUnits="userSpaceOnUse" x="0" y="0" width="180" height="140">
<g id="SVGID_2__29">
<path id="Vector_72" d="M180 0H0V140H180V0Z" fill="white"/>
</g>
</mask>
<g mask="url(#mask36_8_1039)">
<g id="Group_39">
<path id="Vector_73" d="M82.6037 114.875C83.1273 114.098 83.9128 113.709 85.091 113.709C86.2691 113.709 87.0546 114.098 87.5782 114.875C88.1019 115.652 88.3637 116.688 88.3637 117.983C88.3637 119.278 88.1019 120.314 87.5782 121.092C87.0546 121.869 86.2691 122.257 85.091 122.257C83.9128 122.257 83.1273 121.869 82.6037 121.092C82.0801 120.314 81.8182 119.278 81.8182 117.983C81.8182 116.688 82.0801 115.652 82.6037 114.875ZM86.0073 116.17C85.8764 115.782 85.4837 115.523 84.9601 115.523C84.4364 115.523 84.0437 115.782 83.9128 116.17C83.7819 116.559 83.651 117.206 83.651 117.983C83.651 118.501 83.651 118.89 83.7819 119.278C83.9128 119.667 83.9128 119.926 84.1746 120.055C84.3055 120.314 84.6982 120.314 84.9601 120.314C85.2219 120.314 85.6146 120.185 85.7455 120.055C85.8764 119.926 86.0073 119.537 86.1382 119.278C86.2692 119.019 86.2691 118.501 86.2691 117.983C86.2691 117.206 86.2691 116.559 86.0073 116.17Z" fill="#603F1B"/>
<path id="Vector_74" d="M94.3855 117.465V119.019H89.28V117.465H94.3855Z" fill="#603F1B"/>
<path id="Vector_75" d="M101.716 115.652H98.1819V117.206C98.3128 117.076 98.5746 116.947 98.8364 116.817C99.0982 116.688 99.36 116.688 99.7528 116.688C100.276 116.688 100.8 116.817 101.193 117.076C101.585 117.336 101.847 117.724 101.978 118.113C102.109 118.501 102.24 119.019 102.24 119.408C102.24 120.314 101.978 120.962 101.455 121.48C100.931 121.998 100.276 122.257 99.36 122.257C98.7055 122.257 98.1818 122.127 97.7891 121.998C97.3964 121.739 97.0037 121.48 96.7419 121.091C96.48 120.703 96.3491 120.314 96.3491 119.796H98.1819C98.1819 120.055 98.3128 120.185 98.5746 120.444C98.7055 120.573 98.9673 120.703 99.36 120.703C99.7528 120.703 100.015 120.573 100.145 120.314C100.276 120.055 100.407 119.796 100.407 119.408C100.407 119.019 100.276 118.76 100.145 118.501C100.015 118.242 99.7528 118.242 99.36 118.242C99.0982 118.242 98.8364 118.242 98.7055 118.372C98.5746 118.501 98.4437 118.631 98.3128 118.89H96.3491V113.968H101.716V115.652Z" fill="#603F1B"/>
</g>
</g>
</g>
<g id="Clip path group_38">
<mask id="mask37_8_1039" style="mask-type:luminance" maskUnits="userSpaceOnUse" x="0" y="0" width="180" height="140">
<g id="SVGID_2__30">
<path id="Vector_76" d="M180 0H0V140H180V0Z" fill="white"/>
</g>
</mask>
<g mask="url(#mask37_8_1039)">
<g id="Group_40">
<path id="Vector_77" d="M82.7346 126.79L78.6764 136.115H76.5819L78.0219 132.877L75.4037 126.79H77.6291L79.0691 130.805L80.5091 126.79H82.7346Z" fill="#603F1B"/>
<path id="Vector_78" d="M89.411 130.416H84.9601C84.9601 130.805 85.091 131.064 85.3528 131.323C85.6146 131.582 85.8765 131.582 86.1383 131.582C86.6619 131.582 86.9237 131.323 87.1855 130.934H89.2801C89.1492 131.323 89.0183 131.712 88.7565 132.1C88.4946 132.489 88.1019 132.748 87.7092 132.877C87.3165 133.007 86.7928 133.136 86.2692 133.136C85.6146 133.136 85.091 133.007 84.5674 132.748C84.0437 132.489 83.651 132.1 83.3892 131.582C83.1274 131.064 82.9965 130.546 82.9965 129.898C82.9965 129.251 83.1274 128.603 83.3892 128.215C83.651 127.826 84.0437 127.308 84.5674 127.049C85.091 126.79 85.6146 126.661 86.2692 126.661C86.9237 126.661 87.4474 126.79 87.971 127.049C88.4946 127.308 88.8874 127.697 89.1492 128.215C89.411 128.733 89.5419 129.251 89.5419 129.898C89.411 130.028 89.411 130.157 89.411 130.416ZM87.3165 129.251C87.3165 128.862 87.1856 128.603 86.9237 128.474C86.6619 128.344 86.531 128.215 86.1383 128.215C85.7456 128.215 85.4837 128.344 85.3528 128.474C85.091 128.603 84.9601 128.992 84.9601 129.251H87.3165Z" fill="#603F1B"/>
<path id="Vector_79" d="M90.3273 128.215C90.5891 127.697 90.8509 127.308 91.3746 127.049C91.7673 126.79 92.2909 126.661 92.8146 126.661C93.2073 126.661 93.6 126.79 93.9928 126.92C94.3855 127.049 94.6473 127.308 94.7782 127.697V126.79H96.7418V133.136H94.7782V132.23C94.6473 132.489 94.2546 132.748 93.9928 133.007C93.7309 133.266 93.2073 133.266 92.8146 133.266C92.2909 133.266 91.7673 133.136 91.3746 132.877C90.9819 132.618 90.5891 132.23 90.3273 131.712C90.0655 131.193 89.9346 130.675 89.9346 130.028C89.9346 129.38 90.0655 128.733 90.3273 128.215ZM94.3855 128.733C94.1237 128.474 93.7309 128.344 93.3382 128.344C92.9455 128.344 92.5528 128.474 92.2909 128.733C92.0291 128.992 91.8982 129.38 91.8982 129.898C91.8982 130.416 92.0291 130.805 92.2909 131.064C92.5528 131.323 92.9455 131.452 93.3382 131.452C93.7309 131.452 94.1237 131.323 94.3855 131.064C94.6473 130.805 94.7782 130.416 94.7782 129.898C94.7782 129.38 94.6473 128.992 94.3855 128.733Z" fill="#603F1B"/>
<path id="Vector_80" d="M100.8 126.92C101.193 126.661 101.586 126.661 101.978 126.661V128.733H101.455C100.931 128.733 100.538 128.862 100.407 128.992C100.146 129.251 100.015 129.51 100.015 130.028V133.007H98.051V126.661H100.015V127.697C100.276 127.438 100.538 127.179 100.8 126.92Z" fill="#603F1B"/>
<path id="Vector_81" d="M103.942 132.877C103.549 132.748 103.156 132.489 102.895 132.1C102.633 131.712 102.502 131.452 102.502 130.934H104.465C104.465 131.193 104.596 131.323 104.727 131.452C104.858 131.582 105.12 131.712 105.382 131.712C105.644 131.712 105.775 131.712 105.905 131.582C106.036 131.452 106.167 131.323 106.167 131.193C106.167 131.064 106.036 130.934 105.905 130.805C105.775 130.675 105.382 130.675 104.989 130.546C104.465 130.416 104.204 130.287 103.811 130.157C103.418 130.028 103.287 129.898 103.025 129.639C102.764 129.38 102.633 128.992 102.633 128.603C102.633 128.215 102.764 127.956 102.895 127.567C103.025 127.179 103.418 127.049 103.811 126.92C104.204 126.79 104.727 126.661 105.251 126.661C106.036 126.661 106.691 126.92 107.215 127.308C107.738 127.697 108 128.215 108 128.862H106.167C106.167 128.603 106.036 128.474 105.905 128.344C105.775 128.215 105.513 128.215 105.251 128.215C104.989 128.215 104.858 128.215 104.727 128.344C104.596 128.474 104.596 128.603 104.596 128.733C104.596 128.862 104.727 128.992 104.858 129.121C104.989 129.251 105.382 129.251 105.775 129.38C106.298 129.51 106.691 129.639 106.953 129.769C107.215 129.898 107.476 130.028 107.738 130.287C108 130.546 108.131 130.934 108.131 131.323C108.131 131.712 108 131.971 107.869 132.359C107.738 132.748 107.345 132.877 106.953 133.007C106.56 133.136 106.036 133.266 105.513 133.266C104.858 133.136 104.335 133.136 103.942 132.877Z" fill="#603F1B"/>
</g>
</g>
</g>
<g id="Clip path group_39">
<mask id="mask38_8_1039" style="mask-type:luminance" maskUnits="userSpaceOnUse" x="0" y="0" width="180" height="140">
<g id="SVGID_2__31">
<path id="Vector_82" d="M180 0H0V140H180V0Z" fill="white"/>
</g>
</mask>
<g mask="url(#mask38_8_1039)">
<g id="Group_41">
<path id="Vector_83" d="M93.4691 90.9158C92.4219 91.0453 91.3746 91.0453 90.4582 91.0453C76.32 91.4338 73.3091 86.2534 71.8691 76.6697C71.2146 72.5254 70.4291 66.6975 70.2982 63.3302C70.1673 60.481 70.56 57.1137 70.8219 53.617C71.2146 49.3431 73.0473 46.3644 77.76 44.5513C80.5091 43.6447 85.7455 42.6086 91.1128 42.3496C95.6946 42.2201 100.276 42.7381 103.68 44.2923C108.262 46.3644 110.487 49.8612 110.88 53.0989C111.142 56.0777 111.535 60.999 111.665 66.1794C111.665 67.345 111.665 68.6401 111.665 69.8057C111.665 76.4107 111.535 82.3681 108.655 85.0878C106.56 87.16 104.335 89.1026 98.7055 90.5272L93.4691 90.9158Z" fill="#E72F43"/>
</g>
</g>
</g>
<g id="Clip path group_40">
<mask id="mask39_8_1039" style="mask-type:luminance" maskUnits="userSpaceOnUse" x="0" y="0" width="180" height="140">
<g id="SVGID_2__32">
<path id="Vector_84" d="M180 0H0V140H180V0Z" fill="white"/>
</g>
</mask>
<g mask="url(#mask39_8_1039)">
<g id="Group_42">
<path id="Vector_85" d="M100.669 102.053C99.0981 102.053 97.5272 101.924 96.0872 101.794C94.7781 101.665 93.6 101.665 92.5527 101.665C92.2909 101.665 92.0291 101.406 92.0291 101.147C92.0291 100.888 92.2909 100.629 92.5527 100.629C93.6 100.629 94.7781 100.758 96.0872 100.758C98.7054 100.888 101.716 101.147 103.811 100.758C104.465 100.629 104.858 100.37 104.858 100.24C104.858 99.8518 103.942 99.3337 102.764 99.4632C102.633 99.4632 102.502 99.4632 102.371 99.3337C102.24 99.2042 102.24 99.0747 102.109 98.9452C101.978 96.7435 101.978 92.7287 102.109 90.268C102.109 90.009 102.371 89.75 102.633 89.75C102.895 89.75 103.156 90.009 103.156 90.268C103.025 92.4697 103.025 95.9665 103.156 98.1681C104.727 98.1681 105.775 99.0747 105.905 99.9813C105.905 100.37 106.036 101.406 104.073 101.794C103.025 102.053 101.847 102.053 100.669 102.053Z" fill="#603F1B"/>
</g>
</g>
</g>
<g id="Clip path group_41">
<mask id="mask40_8_1039" style="mask-type:luminance" maskUnits="userSpaceOnUse" x="0" y="0" width="180" height="140">
<g id="SVGID_2__33">
<path id="Vector_86" d="M180 0H0V140H180V0Z" fill="white"/>
</g>
</mask>
<g mask="url(#mask40_8_1039)">
<g id="Group_43">
<path id="Vector_87" d="M87.9709 102.054C86.0073 102.054 83.6509 101.924 81.6873 101.795C80.2473 101.665 78.9382 101.665 78.0218 101.665C77.76 101.665 77.4982 101.406 77.4982 101.147V86.124C77.4982 85.865 77.76 85.606 78.0218 85.606C78.2836 85.606 78.5454 85.865 78.5454 86.124V100.629C79.4618 100.629 80.5091 100.759 81.6873 100.759C85.0909 100.888 89.4109 101.147 91.5054 100.759C92.16 100.629 92.5527 100.37 92.5527 100.111C92.5527 99.7225 91.6363 99.2045 90.4582 99.334C90.3273 99.334 90.1964 99.334 90.0654 99.2045C89.9345 99.075 89.9345 98.9455 89.8036 98.816C89.6727 96.8733 89.6727 93.8946 89.8036 91.1749C89.8036 90.9159 90.0654 90.6568 90.3273 90.6568C90.5891 90.6568 90.8509 90.9159 90.8509 91.1749C90.72 93.6356 90.72 96.2258 90.8509 98.1684C92.4218 98.1684 93.4691 99.075 93.6 99.9815C93.6 100.37 93.7309 101.406 91.7673 101.795C90.8509 102.054 89.4109 102.054 87.9709 102.054Z" fill="#603F1B"/>
</g>
</g>
</g>
<g id="Clip path group_42">
<mask id="mask41_8_1039" style="mask-type:luminance" maskUnits="userSpaceOnUse" x="0" y="0" width="180" height="140">
<g id="SVGID_2__34">
<path id="Vector_88" d="M180 0H0V140H180V0Z" fill="white"/>
</g>
</mask>
<g mask="url(#mask41_8_1039)">
<g id="Group_44">
<path id="Vector_89" d="M90.9818 50.8976C89.5418 50.768 89.8036 53.4877 91.2436 53.3582C92.8145 53.2287 92.2909 51.0271 90.9818 50.8976Z" fill="white"/>
</g>
</g>
</g>
<g id="Clip path group_43">
<mask id="mask42_8_1039" style="mask-type:luminance" maskUnits="userSpaceOnUse" x="0" y="0" width="180" height="140">
<g id="SVGID_2__35">
<path id="Vector_90" d="M180 0H0V140H180V0Z" fill="white"/>
</g>
</mask>
<g mask="url(#mask42_8_1039)">
<g id="Group_45">
<path id="Vector_91" d="M99.0982 51.6741C99.2291 51.6741 99.2292 51.6741 99.3601 51.8037C100.407 52.1922 100.276 53.8758 99.0982 54.0053C97.2655 54.1348 97.6582 51.4151 99.0982 51.6741Z" fill="white"/>
</g>
</g>
</g>
<g id="Clip path group_44">
<mask id="mask43_8_1039" style="mask-type:luminance" maskUnits="userSpaceOnUse" x="0" y="0" width="180" height="140">
<g id="SVGID_2__36">
<path id="Vector_92" d="M180 0H0V140H180V0Z" fill="white"/>
</g>
</mask>
<g mask="url(#mask43_8_1039)">
<g id="Group_46">
<path id="Vector_93" d="M93.6001 61.5172C92.0291 61.5172 90.5891 61.2582 89.1491 60.4811C88.8873 60.3516 88.8873 60.0926 88.8873 59.9631C89.0182 59.7041 89.2801 59.7041 89.411 59.7041C93.0764 61.5172 97.9201 60.4811 100.669 57.5024C100.8 57.3729 101.062 57.3729 101.324 57.5024C101.455 57.6319 101.586 57.8909 101.324 58.15C99.6219 60.2221 96.611 61.5172 93.6001 61.5172Z" fill="white"/>
</g>
</g>
</g>
<g id="Clip path group_45">
<mask id="mask44_8_1039" style="mask-type:luminance" maskUnits="userSpaceOnUse" x="0" y="0" width="180" height="140">
<g id="SVGID_2__37">
<path id="Vector_94" d="M180 0H0V140H180V0Z" fill="white"/>
</g>
</mask>
<g mask="url(#mask44_8_1039)">
<g id="Group_47">
<path id="Vector_95" d="M86.6619 70.0648C87.3164 69.6763 87.8401 69.4173 88.3637 69.1583C88.8873 68.8992 89.2801 68.6402 89.6728 68.5107C90.0655 68.3812 90.4582 68.2517 90.9819 68.1222C91.3746 67.9927 91.8982 67.9927 92.4219 67.9927C93.3382 67.9927 94.1237 68.1222 94.7782 68.5107C95.4328 68.8992 95.9564 69.2878 96.3491 69.8058C96.611 70.1943 96.8728 70.5829 97.0037 71.1009C97.1346 71.619 97.2655 72.137 97.2655 72.655C97.2655 73.3026 97.1346 73.8206 97.0037 74.3387C96.8728 74.8567 96.4801 75.3747 96.0873 75.8928C95.6946 76.2813 95.4328 76.6698 95.171 76.9288C94.9091 77.3174 94.5164 77.5764 94.1237 77.9649C93.731 78.3535 93.3382 78.742 92.8146 79.001C92.291 79.26 92.0291 79.7781 91.6364 80.4256C91.6364 80.4256 91.6364 80.5551 91.5055 80.5551C91.5055 80.6846 91.3746 80.8141 91.3746 80.9436C91.3746 81.0732 91.2437 81.3322 91.2437 81.4617C91.2437 81.5912 91.2437 81.9797 91.2437 82.2387C92.0291 82.2387 93.0764 82.2387 94.1237 82.2387C95.171 82.2387 96.2182 82.2387 97.3964 82.2387C97.3964 82.4978 97.3964 82.6273 97.3964 82.8863C97.3964 83.0158 97.3964 83.2748 97.3964 83.4043C97.3964 83.6634 97.3964 83.9224 97.3964 84.1814C97.3964 84.4404 97.3964 84.6994 97.3964 84.9584C97.3964 85.2175 97.3964 85.347 97.3964 85.606C97.3964 85.865 97.3964 86.124 97.5273 86.3831C96.3491 86.3831 95.3019 86.3831 94.3855 86.3831C93.4691 86.3831 92.5528 86.3831 91.6364 86.3831C90.851 86.3831 90.0655 86.3831 89.28 86.3831C88.4946 86.3831 87.7091 86.3831 86.6619 86.5126C86.6619 85.865 86.6619 85.347 86.6619 84.9584C86.6619 84.5699 86.6619 84.0519 86.6619 83.6634C86.6619 83.2748 86.6619 82.8863 86.6619 82.6273C86.6619 82.2387 86.6619 81.9797 86.7928 81.7207C86.7928 81.4617 86.9237 81.2027 86.9237 80.8141C87.0546 80.5551 87.0546 80.2961 87.1855 79.9076C87.4473 79.1305 87.8401 78.483 88.3637 77.9649C88.8873 77.4469 89.411 76.9288 89.9346 76.5403C90.1964 76.2813 90.5891 76.0223 90.9819 75.7633C91.3746 75.5042 91.6364 75.1157 91.8982 74.9862C92.0291 74.8567 92.1601 74.7272 92.291 74.5977C92.4219 74.4682 92.5528 74.2091 92.6837 74.0796C92.8146 73.8206 92.8146 73.5616 92.8146 73.3026C92.8146 73.0436 92.6837 72.655 92.4219 72.2665C92.16 72.137 91.7673 72.0075 91.5055 72.0075C91.1128 72.0075 90.851 72.137 90.4582 72.2665C90.0655 72.396 89.6728 72.5255 89.411 72.7845C89.0182 72.914 88.7564 73.1731 88.4946 73.3026L86.6619 70.0648Z" fill="white"/>
</g>
</g>
</g>
<g id="Clip path group_46">
<mask id="mask45_8_1039" style="mask-type:luminance" maskUnits="userSpaceOnUse" x="0" y="0" width="180" height="140">
<g id="SVGID_2__38">
<path id="Vector_96" d="M180 0H0V140H180V0Z" fill="white"/>
</g>
</mask>
<g mask="url(#mask45_8_1039)">
<g id="Group_48">
<path id="Vector_97" d="M69.5127 76.9286C67.5491 76.9286 65.5855 76.54 63.7527 75.763C60.48 74.3384 57.4691 71.6187 55.6364 68.2514C54.3273 66.0497 53.9346 63.5891 53.5418 61.2579C53.28 60.0923 53.1491 58.9267 52.8873 57.8906L51.84 54.3939C51.5782 53.2283 51.84 52.3217 52.6255 52.1922C52.7564 52.1922 52.8873 52.1922 53.0182 52.1922V52.0627C52.8873 51.4151 52.7564 50.8971 52.7564 50.2496C52.7564 49.9905 52.7564 49.602 53.0182 49.343C53.1491 49.084 53.4109 49.084 53.6727 48.9545C53.9346 48.9545 54.1964 48.9545 54.3273 49.084C54.3273 48.9545 54.3273 48.8249 54.3273 48.6954C54.4582 47.7889 54.9818 46.8823 55.8982 47.0118C56.0291 47.0118 56.0291 47.0118 56.16 47.0118C56.2909 46.4938 56.5527 46.1052 56.9455 45.9757C57.4691 45.8462 58.1236 46.1052 58.5164 46.7528C59.3018 47.7889 59.8255 48.9545 60.0873 50.2496V50.5086C60.2182 51.1561 60.3491 51.8037 60.8727 52.1922C61.2655 52.4512 61.6582 52.4512 62.0509 52.1922C62.3127 51.9332 62.8364 51.6742 63.36 51.8037C63.6218 51.9332 63.7527 52.0627 63.8836 52.3217C64.0146 52.8398 63.7527 53.2283 63.36 53.4873C63.36 53.6168 63.2291 53.6168 63.2291 53.6168C62.7055 54.5234 62.5745 55.5595 62.5745 56.3365C62.4436 58.2792 63.0982 60.0923 64.4073 61.5169C66.6327 63.8481 70.4291 64.3661 73.1782 62.6825C73.44 62.553 73.8327 62.553 73.9636 62.812C74.0946 63.071 74.0946 63.4595 73.8327 63.5891C70.6909 65.5317 66.1091 64.8842 63.6218 62.1645C62.1818 60.6103 61.3964 58.4087 61.5273 56.207C61.5273 55.4299 61.7891 54.2644 62.3127 53.2283C61.6582 53.4873 60.8727 53.3578 60.3491 52.9693C59.5636 52.4512 59.3018 51.5447 59.1709 50.6381V50.3791C58.9091 49.343 58.3855 48.1774 57.7309 47.2708C57.6 47.0118 57.3382 46.8823 57.3382 46.8823C57.3382 46.8823 57.3382 47.1413 57.3382 47.4003C57.3382 47.9184 57.4691 48.3069 57.6 48.825L58.3855 50.8971C58.5164 51.1561 58.3855 51.4151 58.1236 51.5447C57.8618 51.6742 57.6 51.5447 57.3382 51.2856C56.9455 50.6381 56.6836 49.861 56.4218 49.2135L56.16 48.5659C55.8982 48.0479 55.7673 48.0479 55.7673 48.0479C55.6364 48.0479 55.5055 48.3069 55.3745 48.825C55.2436 49.4725 55.3746 50.12 55.5055 50.7676C55.7673 51.1561 55.8982 51.6742 56.0291 52.1922C56.0291 52.4512 55.8982 52.7102 55.6364 52.8398C55.3746 52.9693 55.1127 52.8397 54.9818 52.5807C54.8509 52.1922 54.5891 51.6742 54.5891 51.2856C54.5891 51.2856 54.5891 51.1561 54.4582 51.1561C54.3273 51.0266 54.3273 50.8971 54.1964 50.6381C54.0655 50.3791 53.9345 50.2496 53.8036 50.12C53.8036 50.12 53.8036 49.9905 53.8036 50.2496C53.8036 50.7676 53.9345 51.2856 54.0655 51.8037V52.0627C54.0655 52.3217 54.1964 52.5807 54.1964 52.7102C54.1964 52.8398 54.3273 53.0988 54.3273 53.2283C54.4582 53.4873 54.4582 53.8758 54.4582 54.1348C54.4582 54.3939 54.1964 54.6529 53.9346 54.7824C53.6727 54.7824 53.4109 54.5234 53.28 54.2644C53.28 54.0053 53.28 53.8758 53.1491 53.6168V53.4873C53.0182 53.3578 52.8873 53.3578 52.8873 53.3578C52.7564 53.3578 52.7564 53.7463 52.8873 54.2644L53.8036 57.6316C54.0655 58.7972 54.3273 59.9628 54.5891 61.1284C54.9818 63.4595 55.3746 65.6612 56.5527 67.7334C58.3855 70.9711 61.1346 73.4318 64.1455 74.8564C67.5491 76.281 71.3455 76.281 74.3564 74.8564C74.6182 74.7269 75.0109 74.8564 75.1418 75.1154C75.2727 75.3744 75.1418 75.763 74.88 75.8925C73.1782 76.54 71.3455 76.9286 69.5127 76.9286Z" fill="#603F1B"/>
</g>
</g>
</g>
</g>
</g>
<defs>
<clipPath id="clip0_8_1039">
<rect width="180" height="140" fill="white"/>
</clipPath>
</defs>
</svg>
