<svg width="81" height="101" viewBox="0 0 81 101" fill="none" xmlns="http://www.w3.org/2000/svg">
<g id="Group 5">
<path id="Vector" d="M38.0402 88.6988C36.6219 88.8281 35.2037 88.8281 33.9143 88.8281C14.9611 88.8281 11.0931 79.1307 9.54586 61.6754C8.77226 53.9175 7.99866 43.315 7.99866 37.238C7.99866 31.9367 8.51439 25.989 9.03013 19.3948C9.6748 11.6369 12.2535 6.20633 18.7002 3.23246C22.4392 1.55158 29.4016 0 36.7509 0C42.8107 0 48.9996 1.03439 53.5122 4.13755C59.4432 8.1458 62.4087 14.6107 62.7955 20.6878C63.0533 26.2476 63.4401 35.1692 63.4401 44.608C63.4401 46.8061 63.3112 49.0041 63.3112 51.2022C63.1823 63.3563 62.7955 74.2173 58.7985 79.0014C55.833 82.751 52.8676 86.1128 45.2605 88.3109L38.0402 88.6988Z" fill="#E72F43"/>
<path id="Vector_2" d="M23.5997 15.1282C23.5997 15.5161 23.7287 15.7747 23.8576 16.0332C24.2444 16.9383 25.2759 17.5848 26.1784 17.5848C27.4677 17.5848 28.2413 16.4211 28.2413 15.1282C28.2413 14.8696 28.2413 14.611 28.1124 14.3524C27.9835 14.0938 27.9835 13.8352 27.7256 13.5766C27.4677 13.318 27.3388 13.0594 26.952 12.8008C26.8231 12.8008 26.8231 12.6715 26.6941 12.6715C26.5652 12.5422 26.3073 12.5422 26.1784 12.4129C25.7916 12.2836 25.4048 12.2836 25.1469 12.4129C24.7601 12.5422 24.5023 12.6715 24.2444 12.9301C23.8576 13.5766 23.5997 14.3524 23.5997 15.1282Z" fill="white"/>
<path id="Vector_3" d="M41.1348 15.1282C41.1348 15.5161 41.2637 15.7747 41.3926 16.0332C41.7794 16.9383 42.8109 17.5848 43.7134 17.5848C45.0028 17.5848 45.7764 16.4211 45.7764 15.1282C45.7764 14.8696 45.7764 14.611 45.6474 14.3524C45.5185 14.0938 45.5185 13.8352 45.2606 13.5766C45.0028 13.318 44.8738 13.0594 44.487 12.8008C44.3581 12.8008 44.3581 12.6715 44.2292 12.6715C44.1002 12.5422 43.8424 12.5422 43.7134 12.4129C43.3266 12.2836 42.9398 12.2836 42.682 12.4129C42.2952 12.5422 42.0373 12.6715 41.7794 12.9301C41.3926 13.5766 41.1348 14.3524 41.1348 15.1282Z" fill="white"/>
<path id="Vector (Stroke)" fill-rule="evenodd" clip-rule="evenodd" d="M60.1456 34.1126C60.1576 33.7883 60.4302 33.5352 60.7545 33.5473C64.3483 33.6808 69.0562 35.1065 72.9699 37.5472C76.8726 39.9809 80.116 43.5102 80.5285 47.9124C81.0059 52.6402 78.5301 56.3315 75.3169 59.3401C73.7076 60.8469 71.8923 62.2028 70.1295 63.4496C69.5225 63.8789 68.9248 64.2932 68.3435 64.6962C67.2226 65.4732 66.1624 66.2082 65.2133 66.9273C64.9547 67.1232 64.5862 67.0724 64.3903 66.8138C64.1943 66.5552 64.2451 66.1867 64.5037 65.9907C65.4717 65.2573 66.568 64.4973 67.7029 63.7104C68.2795 63.3106 68.8661 62.904 69.451 62.4903C71.2016 61.2521 72.9643 59.9332 74.5138 58.4823C77.6178 55.576 79.7834 52.2212 79.3592 48.0285L79.3588 48.024C78.9969 44.1522 76.1163 40.8941 72.3481 38.5442C68.5903 36.2007 64.0794 34.8466 60.7108 34.7215C60.3866 34.7094 60.1335 34.4368 60.1456 34.1126Z" fill="#603F1B"/>
<path id="Vector (Stroke)_2" fill-rule="evenodd" clip-rule="evenodd" d="M67.4513 67.8225C67.7695 67.759 68.0789 67.9655 68.1423 68.2837L68.1478 68.3115C68.402 69.5856 68.6694 70.9264 68.6694 72.2776C68.6694 73.443 68.5524 74.9491 67.485 76.0354C66.6805 76.9865 65.4474 77.2659 64.3058 77.1318C63.2571 77.1214 62.2557 76.6721 61.3431 76.1491C61.0616 75.9878 60.9641 75.6288 61.1255 75.3473C61.2868 75.0657 61.6458 74.9683 61.9273 75.1296C62.809 75.6349 63.5999 75.957 64.3428 75.957C64.3672 75.957 64.3917 75.9585 64.4159 75.9615C65.3191 76.0747 66.1217 75.8378 66.5986 75.2639C66.6099 75.2502 66.6219 75.2371 66.6344 75.2245C67.3548 74.5021 67.4944 73.4328 67.4944 72.2776C67.4944 71.0526 67.25 69.8171 66.99 68.5136C66.9265 68.1954 67.1331 67.886 67.4513 67.8225Z" fill="#603F1B"/>
<path id="Vector (Stroke)_3" fill-rule="evenodd" clip-rule="evenodd" d="M34.0726 82.653C34.4125 82.6692 34.6749 82.9577 34.6587 83.2976C34.6284 83.9365 34.6348 85.0394 34.6426 86.3927L34.6433 86.5134C34.6513 87.9108 34.6595 89.5427 34.6271 91.1358C34.5947 92.7257 34.5217 94.2944 34.3646 95.5628C34.2862 96.196 34.1848 96.7718 34.051 97.2455C33.924 97.695 33.7429 98.1477 33.4481 98.4433C33.4396 98.4519 33.4309 98.4602 33.4218 98.4682C33.2642 98.6087 33.0601 98.7039 32.8799 98.7729C32.6866 98.8469 32.458 98.9137 32.2073 98.975C31.705 99.0977 31.0676 99.2091 30.3492 99.3094C28.9097 99.5103 27.0958 99.6732 25.2822 99.7869C23.4676 99.9006 21.6419 99.9658 20.1767 99.9699C19.4448 99.9719 18.7961 99.9587 18.2807 99.9279C17.7971 99.8989 17.3463 99.8512 17.071 99.7508C17.0488 99.7427 17.0271 99.7333 17.0059 99.7227C16.6829 99.5608 16.34 99.3095 16.0918 98.97C15.8425 98.629 15.6774 98.1786 15.7688 97.6643C15.7937 97.4648 15.9 97.3271 15.9506 97.2679C16.0205 97.1861 16.1011 97.1209 16.167 97.0726C16.3016 96.9742 16.4736 96.8759 16.6499 96.7828C16.9276 96.6362 17.2836 96.4676 17.6546 96.2919C17.7583 96.2428 17.8632 96.1931 17.9678 96.1432C18.4583 95.9093 18.9595 95.6635 19.3905 95.4157C19.8029 95.1786 20.0985 94.9686 20.2621 94.799C20.2648 94.7917 20.268 94.7826 20.2717 94.7714C20.2918 94.7103 20.3156 94.6189 20.3414 94.4931C20.3928 94.2423 20.4433 93.9 20.4918 93.4808C20.5886 92.6449 20.6724 91.551 20.7447 90.3743C20.8594 88.5086 20.9437 86.4615 21.006 84.9494C21.0222 84.555 21.037 84.197 21.0504 83.8882C21.0651 83.5483 21.3526 83.2847 21.6925 83.2994C22.0324 83.3142 22.2959 83.6016 22.2812 83.9415C22.268 84.2463 22.2534 84.6011 22.2372 84.9931C22.175 86.5051 22.09 88.5701 21.9744 90.4499C21.9017 91.6329 21.8163 92.7532 21.7156 93.6225C21.6655 94.0558 21.6102 94.4387 21.5483 94.7406C21.5174 94.891 21.4826 95.0327 21.4422 95.1558C21.4069 95.2632 21.3484 95.4181 21.2448 95.548C21.2392 95.555 21.2334 95.562 21.2274 95.5688C20.9298 95.9099 20.4655 96.2187 20.0046 96.4837C19.529 96.7571 18.9906 97.0204 18.498 97.2553C18.3833 97.3099 18.2718 97.3628 18.1641 97.4138C17.7984 97.587 17.4768 97.7394 17.2252 97.8722C17.1217 97.9269 17.0409 97.9727 16.9804 98.01C16.9921 98.0836 17.0257 98.1599 17.0863 98.2428C17.1856 98.3786 17.343 98.5068 17.5205 98.6019C17.6253 98.6306 17.8908 98.6703 18.3544 98.6981C18.8341 98.7268 19.4547 98.7399 20.1733 98.7379C21.6091 98.7339 23.4097 98.6698 25.2052 98.5573C27.0018 98.4447 28.7818 98.2843 30.1789 98.0892C30.8788 97.9915 31.4702 97.8868 31.9149 97.7782C32.1376 97.7238 32.3119 97.6711 32.4394 97.6223C32.5302 97.5875 32.5768 97.5623 32.595 97.5517C32.658 97.4737 32.7602 97.2828 32.8654 96.9105C32.9753 96.5216 33.0673 96.0146 33.142 95.4114C33.2911 94.2069 33.3632 92.6886 33.3953 91.1107C33.4274 89.536 33.4194 87.9193 33.4113 86.5205L33.4104 86.3609C33.4027 85.0415 33.3962 83.9119 33.4281 83.2391C33.4442 82.8993 33.7328 82.6369 34.0726 82.653Z" fill="#603F1B"/>
<path id="Vector (Stroke)_4" fill-rule="evenodd" clip-rule="evenodd" d="M38.5858 83.4722C38.9018 83.3462 39.2602 83.5002 39.3862 83.8162C39.509 84.124 39.6101 84.5803 39.6989 85.0975C39.7901 85.6287 39.8757 86.2714 39.956 86.9792C40.1165 88.3955 40.2582 90.098 40.3793 91.7409C40.4791 93.0963 40.5653 94.4163 40.6365 95.5062C40.6516 95.7378 40.666 95.9591 40.6798 96.1681C40.7191 96.7656 40.7526 97.2604 40.7802 97.6133C40.787 97.7007 40.7934 97.778 40.7993 97.8452C40.8388 97.8574 40.8831 97.8705 40.9324 97.8845C41.2254 97.9677 41.6473 98.0689 42.1725 98.1796C43.2204 98.4006 44.6485 98.6527 46.2153 98.8692C49.375 99.3057 52.9976 99.582 55.216 99.2112L55.2331 99.2086C56.9276 98.9742 57.5444 98.0683 57.5543 97.4175C57.5638 96.7895 57.007 95.8941 55.2741 95.6506C54.1005 95.6398 53.0943 95.1945 52.2676 94.6418C52.2581 94.6354 52.2488 94.6288 52.2397 94.622C51.9764 94.424 51.8055 94.112 51.6862 93.8312C51.5582 93.53 51.4495 93.1656 51.3557 92.7681C51.1676 91.9711 51.0232 90.9714 50.9173 89.9249C50.7052 87.8312 50.6392 85.4734 50.7052 84.0165C50.7206 83.6766 51.0086 83.4136 51.3485 83.429C51.6884 83.4444 51.9514 83.7324 51.936 84.0723C51.8731 85.46 51.936 87.7569 52.143 89.8007C52.2465 90.823 52.3842 91.7628 52.5547 92.4851C52.6402 92.8472 52.7299 93.1373 52.82 93.3493C52.9043 93.5476 52.9653 93.6202 52.978 93.6347C53.6815 94.1002 54.4573 94.4188 55.3175 94.4188C55.3449 94.4188 55.3721 94.4206 55.3992 94.4242C57.5043 94.7057 58.8088 95.9352 58.7861 97.4361C58.7638 98.9166 57.4503 100.143 55.4106 100.428C52.987 100.831 49.2011 100.525 46.0467 100.09C44.4547 99.8697 42.9978 99.6127 41.9184 99.3851C41.3799 99.2716 40.9274 99.1638 40.5959 99.0697C40.4319 99.0231 40.285 98.9764 40.168 98.9304C40.1104 98.9078 40.0461 98.88 39.9854 98.8462L39.9837 98.8452C39.9461 98.8243 39.8142 98.751 39.7193 98.6082C39.7052 98.587 39.6924 98.5649 39.681 98.5421C39.6447 98.4692 39.6294 98.4014 39.6256 98.3846L39.6253 98.383C39.6188 98.3544 39.614 98.327 39.6106 98.3049C39.6035 98.2599 39.5971 98.2072 39.5912 98.152C39.5791 98.0402 39.5661 97.8896 39.552 97.7094C39.5237 97.3477 39.4897 96.8455 39.4504 96.249C39.4366 96.039 39.4221 95.817 39.407 95.5848C39.3358 94.495 39.25 93.1812 39.1506 91.8314C39.0299 90.1933 38.8896 88.5098 38.7318 87.1179C38.6529 86.4216 38.5703 85.8047 38.4847 85.306C38.3967 84.7933 38.3125 84.4496 38.2419 84.2726C38.1158 83.9566 38.2698 83.5983 38.5858 83.4722Z" fill="#603F1B"/>
<path id="Vector (Stroke)_5" fill-rule="evenodd" clip-rule="evenodd" d="M48.8033 27.0426C48.8638 27.3613 48.6544 27.6688 48.3356 27.7293C46.0094 28.1706 44.6347 28.7345 43.3266 29.2784C43.3048 29.2875 43.2831 29.2965 43.2614 29.3056C41.9567 29.8482 40.6866 30.3765 38.6499 30.7059C38.3296 30.7577 38.0279 30.54 37.9761 30.2197C37.9243 29.8994 38.142 29.5978 38.4623 29.546C40.3623 29.2386 41.5279 28.7539 42.8216 28.2159C42.8395 28.2084 42.8575 28.201 42.8754 28.1935C44.2105 27.6384 45.6723 27.0386 48.1166 26.5749C48.4354 26.5144 48.7428 26.7238 48.8033 27.0426Z" fill="white"/>
<path id="Vector_4" d="M7.612 34.6517C5.54906 34.5224 3.48612 36.8497 2.45466 38.272C0.13385 41.5045 -0.510818 46.0299 0.391717 49.9089C1.68105 54.4343 5.16226 58.184 9.93281 59.0891C14.5744 59.9942 20.1186 58.9598 23.8576 55.8566C27.8546 52.4948 30.4333 47.4522 32.4962 42.6682C32.883 41.7631 31.5937 40.9873 31.2069 41.8924C29.6597 45.5127 27.7257 49.0038 25.2759 52.1069C24.1155 53.5292 22.8262 54.9515 21.15 55.8566C19.216 57.0203 16.6374 57.5375 14.4455 57.7961C11.9957 58.0547 9.28814 57.7961 7.2252 56.6324C5.2912 55.598 3.74399 53.7878 2.84146 51.7191C1.16532 48.228 1.03639 43.8318 2.84146 40.3408C3.61506 38.9185 5.678 35.9446 7.612 36.0739C8.51454 36.2032 8.51454 34.7809 7.612 34.6517Z" fill="#603F1B"/>
<path id="Vector_5" d="M6.83849 43.4442C9.03036 47.1938 14.8324 48.2282 18.5715 46.5473C21.7948 45.125 23.4709 42.1512 25.4049 39.3066C25.9207 38.5308 24.6313 37.755 24.1156 38.5308C22.5684 40.8582 21.1501 43.4442 18.5715 44.8664C16.8953 45.7715 15.0902 45.9008 13.2852 45.6422C11.2222 45.2543 9.28823 44.4785 8.12783 42.6684C7.61209 41.8926 6.32275 42.6684 6.83849 43.4442Z" fill="#603F1B"/>
<path id="Vector_6" d="M32.2383 43.1863C33.9145 42.4105 35.5906 40.859 36.2353 39.0488C36.6221 38.1437 36.751 37.1093 36.1064 36.2042C35.4617 35.2991 34.3013 35.1698 33.3987 35.8163L34.6881 36.5921C35.0749 34.9112 33.6566 33.2304 31.9805 33.7476C31.0779 34.0061 31.4647 35.4284 32.3673 35.1698C33.0119 35.0405 33.5277 35.5577 33.2698 36.2042C33.0119 36.98 33.9145 37.3679 34.5591 36.98C34.6881 36.8507 34.817 36.98 34.9459 37.1093C35.0749 37.2386 35.2038 37.4972 35.2038 37.6265C35.2038 38.273 34.817 38.9195 34.4302 39.4367C33.6566 40.4711 32.7541 41.3762 31.4647 42.0227C31.0779 42.152 31.0779 42.6691 31.2069 43.057C31.4647 43.3156 31.8515 43.3156 32.2383 43.1863Z" fill="#603F1B"/>
<path id="Vector_7" d="M28.757 34.3936C29.6595 33.2299 30.691 32.3248 31.7224 31.2904C32.2382 30.7732 32.7539 30.3853 33.3986 29.8681C33.3986 29.8681 33.3986 29.8681 33.5275 29.7389L33.6565 29.6096C33.7854 29.4803 33.9143 29.351 34.0433 29.351C34.3011 29.2217 34.4301 29.0924 34.6879 29.0924C34.8169 29.0924 34.8169 29.0924 34.9458 29.0924H35.0747C35.2037 29.0924 35.2037 29.0924 35.2037 29.0924C35.2037 28.9631 35.0747 28.8338 35.0747 28.7045C35.0747 28.5752 35.0747 28.8338 35.0747 28.8338C35.0747 28.9631 35.0747 29.0924 34.9458 29.2217C34.9458 29.4803 34.8169 29.6096 34.8169 29.7389C34.559 30.1267 34.1722 30.3853 33.7854 30.6439C33.0118 31.2904 32.2382 32.1955 31.5935 33.1006C31.3356 33.3592 31.5935 33.8764 31.8514 34.135C32.2382 34.3936 32.625 34.135 32.8829 33.8764C33.2697 33.3592 33.7854 32.842 34.1722 32.3248C34.4301 32.0662 34.6879 31.8076 34.9458 31.6783C35.2037 31.4197 35.4615 31.2904 35.7194 31.0318C36.1062 30.5146 36.3641 29.8681 36.493 29.2217C36.6219 28.8338 36.6219 28.4459 36.3641 28.058C36.1062 27.6701 35.7194 27.5408 35.2037 27.5408C34.0433 27.4115 33.0118 28.3166 32.2382 28.9631C31.4646 29.6096 30.691 30.3853 29.9174 31.0318C29.1438 31.6783 28.3702 32.4541 27.7255 33.2299C27.4676 33.4885 27.4676 34.0057 27.7255 34.2643C27.9834 34.6522 28.4991 34.6522 28.757 34.3936Z" fill="#603F1B"/>
<path id="Vector_8" d="M25.4048 38.9185C26.1784 36.5911 26.0494 34.1345 26.0494 31.8071C26.0494 31.2899 26.0494 30.7727 26.1784 30.2555C26.3073 30.1262 26.3073 29.9969 26.4362 30.1262C26.5652 30.1262 26.6941 30.2555 26.823 30.2555C27.2098 30.5141 27.2098 31.1606 27.2098 31.6778C27.2098 32.3243 27.3388 32.9708 27.3388 33.6173C27.4677 34.5224 28.886 34.5224 28.757 33.6173C28.6281 32.8415 28.6281 31.9364 28.4992 31.1606C28.3702 30.5141 28.2413 29.8676 27.7256 29.2211C26.823 28.1867 25.1469 28.316 24.6312 29.7383C24.3733 30.3848 24.3733 31.0313 24.3733 31.6778C24.3733 32.4536 24.3733 33.2294 24.3733 34.0052C24.3733 35.5567 24.2444 36.979 23.7286 38.4013C23.7286 39.4357 25.1469 39.8236 25.4048 38.9185Z" fill="#603F1B"/>
</g>
</svg>
