<svg width="90" height="100" viewBox="0 0 90 100" fill="none" xmlns="http://www.w3.org/2000/svg">
<path d="M47.1889 90.3452C45.9651 90.4171 44.8133 90.4171 43.7335 90.4171C27.6806 90.4171 24.4413 82.5096 23.0735 68.2043C22.4257 61.8783 21.7058 53.1801 21.7058 48.2199C21.7058 43.8349 22.1377 38.9466 22.5696 33.6271C23.0735 27.3011 25.3051 22.7723 30.7761 20.4C33.8715 19.0342 39.8463 17.7402 46.1091 17.7402C51.2921 17.7402 56.5471 18.6029 60.3623 21.1189C65.4014 24.4256 67.9209 29.6733 68.2088 34.6335C68.3528 39.1623 68.7127 46.4228 68.7127 54.2584C68.7127 56.0555 68.6407 57.9246 68.6407 59.6498C68.4968 69.4982 68.1368 78.4121 64.7535 82.294C62.234 85.3132 59.7864 88.0448 53.2357 89.9139L47.1889 90.3452Z" fill="#DA243E"/>
<path d="M45.8931 39.5938C46.325 39.5938 46.6129 39.5219 46.8289 39.5219C49.0605 39.3062 59.8584 36.287 57.8428 41.319C56.403 44.9134 50.5002 46.2792 47.1168 46.5667C44.8133 46.7105 38.9104 46.2073 37.5427 44.1226C35.1671 40.3126 42.7977 39.8094 45.8931 39.5938Z" fill="white"/>
<path d="M33.1517 30.2485C31.568 30.3204 32.3599 33.4115 33.8716 32.9802C35.5993 32.5489 34.6634 30.2485 33.1517 30.2485Z" fill="white"/>
<path d="M55.1073 28.4514C55.1792 28.4514 55.3232 28.4514 55.3952 28.5233C56.547 28.8828 56.7629 30.7518 55.4672 31.0393C53.5236 31.5425 53.4516 28.3077 55.1073 28.4514Z" fill="white"/>
<path fill-rule="evenodd" clip-rule="evenodd" d="M43.9181 85.1146C44.2665 85.1371 44.5307 85.4373 44.5083 85.7852C44.4742 86.3119 44.4824 87.2391 44.4971 88.3918C44.4984 88.4923 44.4998 88.5943 44.5011 88.6978C44.5151 89.7655 44.5309 90.9791 44.5185 92.167C44.505 93.467 44.4575 94.7566 44.3331 95.8064C44.271 96.3305 44.1877 96.8132 44.0731 97.2156C43.9659 97.5924 43.8077 97.9883 43.5406 98.2597C43.4016 98.4058 43.224 98.5018 43.0789 98.567C42.9184 98.6393 42.7323 98.7022 42.5343 98.7581C42.1374 98.8702 41.638 98.9695 41.082 99.0571C39.9665 99.233 38.5627 99.3716 37.1626 99.4666C35.761 99.5618 34.3497 99.6141 33.2163 99.6152C32.6503 99.6158 32.1462 99.6036 31.7437 99.5766C31.5428 99.5631 31.36 99.5455 31.2037 99.5224C31.0647 99.5018 30.91 99.472 30.7759 99.4213C30.4299 99.3019 30.1113 99.0555 29.8971 98.748C29.6771 98.4322 29.5278 97.9886 29.6627 97.5097C29.7152 97.3186 29.8374 97.1992 29.8808 97.1581C29.9429 97.0994 30.0103 97.0511 30.066 97.0143C30.1794 96.9395 30.3203 96.8631 30.463 96.7901C30.6391 96.7 30.8588 96.5949 31.0884 96.485C31.2265 96.4189 31.3683 96.3511 31.5064 96.2837C31.8893 96.097 32.272 95.901 32.594 95.704C32.9059 95.5131 33.1034 95.3548 33.1995 95.2419C33.2011 95.2374 33.2029 95.232 33.2049 95.2258C33.2203 95.1789 33.2393 95.1067 33.2603 95.0049C33.3023 94.8021 33.344 94.5245 33.3841 94.1828C33.4642 93.5017 33.5331 92.6125 33.5913 91.6549C33.7077 89.7422 33.7794 87.5937 33.8154 86.373C33.8256 86.0245 34.1169 85.7503 34.4658 85.7606C34.8148 85.7708 35.0894 86.0616 35.0791 86.4101C35.0431 87.6335 34.9709 89.7982 34.8533 91.7314C34.7946 92.6968 34.724 93.6137 34.6398 94.3299C34.5979 94.6868 34.5512 95.0057 34.4984 95.2605C34.4721 95.3876 34.4421 95.5096 34.4068 95.6176C34.3758 95.7124 34.324 95.8507 34.2331 95.9717C33.9948 96.289 33.6137 96.5607 33.2546 96.7804C32.8792 97.0102 32.4521 97.2276 32.0612 97.4182C31.9005 97.4966 31.7495 97.5688 31.6089 97.636C31.394 97.7388 31.2034 97.8299 31.0394 97.9138C30.9894 97.9393 30.9457 97.9624 30.9077 97.983C30.915 97.9967 30.924 98.0114 30.935 98.0271C31.0054 98.1282 31.1121 98.2024 31.1918 98.229C31.2036 98.2329 31.2152 98.2371 31.2267 98.2417C31.2263 98.2416 31.2266 98.2417 31.2278 98.242C31.2358 98.2443 31.2823 98.2577 31.3887 98.2734C31.5001 98.2899 31.6469 98.3047 31.8286 98.3169C32.1913 98.3413 32.664 98.3533 33.215 98.3527C34.3153 98.3516 35.698 98.3006 37.0769 98.207C38.4573 98.1133 39.8204 97.9779 40.8848 97.8101C41.4186 97.7259 41.8624 97.6358 42.1901 97.5433C42.3544 97.4969 42.4761 97.4535 42.5596 97.4159C42.6072 97.3945 42.6307 97.3801 42.6383 97.3754C42.6384 97.3753 42.6385 97.3752 42.6386 97.3751C42.6726 97.3411 42.762 97.2043 42.857 96.8705C42.9458 96.5585 43.0193 96.1494 43.0776 95.658C43.1938 94.6771 43.2409 93.4418 43.2543 92.1538C43.2665 90.9816 43.2509 89.7827 43.2369 88.7129C43.2356 88.61 43.2342 88.5083 43.233 88.4079C43.2185 87.2782 43.2086 86.2914 43.2466 85.7039C43.2691 85.356 43.5697 85.0922 43.9181 85.1146Z" fill="#584023"/>
<path fill-rule="evenodd" clip-rule="evenodd" d="M50.2097 85.9429C50.5373 85.8224 50.9007 85.9899 51.0214 86.317C51.1755 86.7348 51.3129 87.5198 51.4349 88.4221C51.5604 89.3508 51.6784 90.478 51.7779 91.6298C51.9755 93.9167 52.1044 96.3495 52.0682 97.5434C52.0683 97.7256 52.0722 97.8686 52.0884 97.9696C52.0993 97.9761 52.1137 97.9841 52.1326 97.9936C52.1804 98.0174 52.2351 98.0402 52.3156 98.0733L52.3231 98.0764C52.3787 98.0993 52.4481 98.1278 52.5199 98.1611C53.9159 98.5273 55.3414 98.5603 56.826 98.5947C57.2168 98.6038 57.6116 98.6129 58.0111 98.6283C58.0205 98.6286 58.0299 98.6292 58.0393 98.63C58.8912 98.7009 60.3681 98.788 61.7903 98.7009C62.5019 98.6573 63.1807 98.5711 63.752 98.4251C64.3356 98.276 64.7387 98.0813 64.9655 97.8673C65.131 97.709 65.2017 97.5945 65.2298 97.5275C65.2528 97.4726 65.247 97.4526 65.2459 97.4492C65.2459 97.449 65.2459 97.4489 65.2458 97.4488C65.2376 97.4158 65.1695 97.2865 64.8627 97.1115C64.2769 96.7772 63.3486 96.5744 62.8644 96.5054C62.8159 96.4985 62.7526 96.4911 62.68 96.4828C62.4841 96.4602 62.2208 96.4298 62.0003 96.3784C61.6675 96.3008 61.2619 96.1474 60.9565 95.7814C60.9421 95.7641 60.9286 95.7461 60.9161 95.7274C60.8707 95.6594 60.8442 95.5909 60.8362 95.5703L60.8356 95.5686C60.8225 95.535 60.8104 95.4993 60.7995 95.4654C60.7775 95.3969 60.7526 95.311 60.726 95.2133C60.6723 95.0165 60.6055 94.7502 60.5309 94.4334C60.3814 93.7987 60.1974 92.9475 60.0202 92.0177C59.6698 90.1781 59.3324 87.9603 59.3704 86.5186C59.3796 86.1701 59.67 85.895 60.019 85.9042C60.368 85.9134 60.6435 86.2033 60.6343 86.5519C60.6003 87.8418 60.9109 89.9373 61.2622 91.7818C61.4361 92.6941 61.6164 93.5277 61.7616 94.1443C61.8344 94.4531 61.8975 94.704 61.9459 94.8816C61.9621 94.9411 61.9761 94.9901 61.9876 95.0288C62.0482 95.0733 62.1404 95.1146 62.2876 95.1489C62.4375 95.1838 62.5697 95.1987 62.7284 95.2165C62.8213 95.227 62.9233 95.2384 63.0432 95.2555C63.5668 95.3302 64.6901 95.5588 65.49 96.0153C65.8761 96.2356 66.3344 96.5915 66.4724 97.1426C66.6251 97.7525 66.3272 98.3138 65.8383 98.7807L65.8361 98.7828C65.3789 99.2154 64.7295 99.4786 64.0654 99.6483C63.3882 99.8213 62.6228 99.9148 61.8677 99.9611C60.3646 100.053 58.8267 99.962 57.9485 99.8894C57.5976 99.876 57.2372 99.868 56.8699 99.8598C55.3502 99.8258 53.7117 99.7892 52.1355 99.3654C52.0947 99.3545 52.055 99.3394 52.0172 99.3205C51.9694 99.2967 51.9147 99.2739 51.8342 99.2408L51.8267 99.2377C51.755 99.2082 51.6602 99.1692 51.5672 99.1228C51.3752 99.0269 51.1046 98.8586 50.9426 98.535C50.9292 98.5083 50.9178 98.4806 50.9083 98.4523C50.8029 98.1365 50.8035 97.7598 50.8038 97.5633C50.8039 97.553 50.8039 97.5431 50.8039 97.5338C50.8039 97.5273 50.804 97.5207 50.8042 97.5141C50.8389 96.404 50.7161 94.0278 50.5183 91.7384C50.4198 90.5988 50.3039 89.4931 50.1819 88.5909C50.0564 87.6623 49.9329 87.0186 49.835 86.7535C49.7144 86.4263 49.8821 86.0634 50.2097 85.9429Z" fill="#584023"/>
<path fill-rule="evenodd" clip-rule="evenodd" d="M69.9658 8.47271C70.2409 8.68735 70.2897 9.08406 70.0747 9.3588C69.1788 10.504 68.3003 11.6678 67.4179 12.8366L67.4162 12.8388C66.5355 14.0055 65.6509 15.1773 64.7478 16.3318C64.5328 16.6065 64.1355 16.6552 63.8604 16.4406C63.5853 16.2259 63.5365 15.8292 63.7515 15.5545C64.6474 14.4093 65.5259 13.2455 66.4083 12.0766L66.41 12.0745C67.2907 10.9078 68.1752 9.73599 69.0784 8.58153C69.2934 8.30679 69.6906 8.25807 69.9658 8.47271Z" fill="#584023"/>
<path fill-rule="evenodd" clip-rule="evenodd" d="M53.1094 6.6858C53.4583 6.69548 53.7334 6.98584 53.7237 7.33435C53.6507 9.95776 53.3588 12.5106 52.8471 14.9922C52.7767 15.3336 52.4425 15.5535 52.1005 15.4832C51.7585 15.4129 51.5384 15.079 51.6088 14.7376C52.105 12.3309 52.3889 9.85168 52.4599 7.29929C52.4696 6.95079 52.7604 6.67611 53.1094 6.6858Z" fill="#584023"/>
<path fill-rule="evenodd" clip-rule="evenodd" d="M39.1733 0.0231901C39.5097 -0.0701212 39.8582 0.126552 39.9516 0.462473C41.0391 4.37218 41.8354 8.27744 42.4859 12.2469C42.5422 12.591 42.3086 12.9155 41.9641 12.9718C41.6196 13.0281 41.2946 12.7949 41.2382 12.4508C40.5929 8.51281 39.8055 4.65438 38.7334 0.800383C38.64 0.464462 38.8369 0.116501 39.1733 0.0231901Z" fill="#584023"/>
<path fill-rule="evenodd" clip-rule="evenodd" d="M13.0148 49.8852C13.3263 50.134 13.3768 50.588 13.1276 50.8991C12.7163 51.4125 12.1688 52.229 11.9295 52.9843C11.8103 53.3607 11.7899 53.6535 11.8391 53.8608C11.8798 54.0325 11.9775 54.1963 12.2489 54.3373C12.2548 54.3403 12.2606 54.3435 12.2664 54.3467C12.3924 54.4166 12.578 54.4451 12.8315 54.3895C13.0853 54.3339 13.3519 54.2039 13.5698 54.0407C13.7955 53.8717 14.0057 53.6505 14.259 53.3705C14.2849 53.3419 14.3114 53.3125 14.3384 53.2825C14.5606 53.0357 14.8191 52.7487 15.1112 52.4935L15.1245 52.4822C16.6302 51.2291 18.858 50.904 20.6835 51.6498C22.5327 52.4053 23.8556 54.3105 23.9392 56.3131C23.9558 56.7111 23.6461 57.0473 23.2475 57.0639C22.8489 57.0805 22.5123 56.7712 22.4957 56.3731C22.4353 54.9252 21.4547 53.5237 20.1365 52.9852C18.7974 52.4381 17.1419 52.686 16.056 53.585C15.8356 53.7785 15.6381 53.9974 15.4103 54.2499C15.3843 54.2787 15.358 54.3079 15.3311 54.3376C15.0805 54.6147 14.7868 54.9327 14.4366 55.1949C14.0786 55.4631 13.6254 55.6926 13.1413 55.7987C12.6598 55.9042 12.0933 55.8975 11.5739 55.6129C10.9505 55.2864 10.5741 54.7872 10.4332 54.1933C10.3002 53.6323 10.3923 53.0534 10.552 52.5492C10.8706 51.5434 11.5468 50.5627 11.9994 49.9978C12.2486 49.6867 12.7032 49.6363 13.0148 49.8852Z" fill="#584023"/>
<path fill-rule="evenodd" clip-rule="evenodd" d="M14.9409 41.1744C13.4739 41.035 12.0352 41.038 10.6112 41.3088L10.6052 41.31L10.6052 41.31C9.79395 41.4573 9.13337 41.5846 8.54412 41.9376C8.53833 41.9411 8.5325 41.9445 8.52661 41.9478C6.55879 43.0532 5.77679 45.3443 6.41951 47.5906C6.48886 47.833 6.42648 48.094 6.25498 48.2789C4.46417 50.2103 2.82207 52.2074 1.93897 54.5816C1.06482 56.9318 1.31755 59.6919 2.92437 61.2965C3.92942 62.3002 5.41609 62.8372 6.99334 63.2668C12.5003 64.7473 18.2339 64.7514 24.0814 64.7514C24.4803 64.7514 24.8038 65.0744 24.8038 65.4728C24.8038 65.8712 24.4803 66.1942 24.0814 66.1942H24.0344C18.2355 66.1942 12.3242 66.1942 6.61692 64.6598L6.61465 64.6592C5.02505 64.2262 3.20097 63.6131 1.90277 62.3167C-0.233679 60.1832 -0.412879 56.7611 0.584613 54.0793C1.52458 51.5521 3.2102 49.4638 4.92838 47.5878C4.32788 44.9197 5.30237 42.1088 7.80961 40.6952C8.64069 40.1999 9.54033 40.0367 10.3005 39.8989C10.315 39.8962 10.3294 39.8936 10.3438 39.891C11.9417 39.5875 13.5248 39.5904 15.0796 39.7383L15.083 39.7386C15.8419 39.8144 16.6417 39.969 17.3831 40.2964C18.859 40.907 19.707 42.1308 20.0355 43.6067L20.0362 43.61C20.4486 45.5045 19.8 47.654 18.281 48.9181C17.9746 49.1731 17.519 49.1318 17.2636 48.8257C17.0082 48.5197 17.0496 48.0648 17.3561 47.8097C18.4283 46.9175 18.9315 45.3298 18.6247 43.9179C18.3777 42.8099 17.7891 42.0236 16.8237 41.6267C16.8175 41.6242 16.8114 41.6215 16.8053 41.6188C16.254 41.3741 15.618 41.2421 14.9409 41.1744Z" fill="#584023"/>
<path fill-rule="evenodd" clip-rule="evenodd" d="M16.4959 46.4298C17.3225 46.8451 18.1385 47.5862 18.2485 48.7131C18.3394 49.3981 18.1854 49.9978 17.8218 50.4767C17.4696 50.9408 16.9681 51.2297 16.4675 51.4071C15.4997 51.7501 14.3315 51.7496 13.49 51.5986C13.3477 51.589 13.2149 51.5568 13.1205 51.531C13.0019 51.4988 12.8778 51.4574 12.776 51.4235L12.7672 51.4206C12.2956 51.2636 11.7275 51.0172 11.2621 50.6631C10.8067 50.3166 10.3296 49.7702 10.3296 49.011C10.3296 48.9791 10.3317 48.9472 10.3359 48.9156C10.5278 47.4784 11.7385 46.4282 13.0254 46.0855C13.0369 46.0824 13.0485 46.0796 13.0602 46.0771C14.1572 45.8424 15.3556 45.8203 16.4959 46.4298ZM13.3811 47.484C12.5401 47.7141 11.8989 48.3555 11.777 49.0484C11.7915 49.1538 11.8709 49.3125 12.1376 49.5155C12.4281 49.7364 12.8317 49.9213 13.224 50.0519C13.3366 50.0894 13.4247 50.1184 13.5006 50.1391C13.5371 50.1491 13.5624 50.1547 13.5788 50.1576C13.5816 50.1581 13.5838 50.1585 13.5856 50.1588C13.6262 50.1596 13.6667 50.1638 13.7066 50.1714C14.3734 50.2982 15.2993 50.2902 15.9844 50.0474C16.3207 49.9283 16.5436 49.7724 16.6705 49.6052C16.7832 49.4567 16.8635 49.2444 16.8151 48.8939C16.8136 48.8828 16.8123 48.8717 16.8113 48.8606C16.7712 48.4201 16.4456 48.0177 15.8399 47.7153C15.8334 47.712 15.8269 47.7087 15.8205 47.7052C15.0969 47.3161 14.2892 47.2923 13.3811 47.484Z" fill="#584023"/>
<path fill-rule="evenodd" clip-rule="evenodd" d="M15.0683 39.8732C15.4305 39.7063 15.8597 39.8642 16.0269 40.2259C16.4493 41.1399 17.0164 42.4086 17.0993 43.5679C17.1776 44.662 17.0251 45.9924 16.6211 47.0412C16.4779 47.4131 16.0599 47.5986 15.6876 47.4556C15.3152 47.3126 15.1294 46.8952 15.2727 46.5233C15.5886 45.7031 15.724 44.5894 15.6582 43.6707C15.5972 42.8172 15.1565 41.7855 14.7151 40.8305C14.5479 40.4688 14.706 40.0402 15.0683 39.8732Z" fill="#584023"/>
<path fill-rule="evenodd" clip-rule="evenodd" d="M11.7366 39.8112C12.0934 39.633 12.5273 39.7774 12.7058 40.1338C12.9803 40.6822 13.191 41.2593 13.3816 41.8121C13.426 41.941 13.4692 42.068 13.5118 42.1933C13.6556 42.6165 13.7931 43.0209 13.9524 43.419C14.1856 43.981 14.2642 44.6799 14.1903 45.3434C14.1164 46.0078 13.8792 46.7259 13.386 47.2676L13.3785 47.2758C12.9959 47.6833 12.5362 47.9074 12.0354 47.9288C11.557 47.9492 11.1251 47.7812 10.7762 47.5699C10.092 47.1554 9.53358 46.4582 9.21431 45.9407C9.17462 45.8774 9.12143 45.7977 9.06174 45.7083C8.92439 45.5025 8.75263 45.2452 8.63176 45.0172C8.43483 44.6458 8.2618 44.1751 8.31744 43.6195C8.35714 43.2231 8.71114 42.9338 9.10811 42.9735C9.50509 43.0131 9.79473 43.3666 9.75503 43.7631C9.73868 43.9263 9.78161 44.1026 9.90862 44.3422C9.99896 44.5126 10.0903 44.6479 10.1987 44.8087C10.2703 44.9149 10.3494 45.0322 10.4407 45.178L10.4433 45.1822L10.4433 45.1822C10.7002 45.5991 11.1129 46.0864 11.5255 46.3363C11.7255 46.4575 11.8739 46.4916 11.9736 46.4874C12.0504 46.4841 12.1653 46.457 12.3207 46.293C12.5454 46.0438 12.7026 45.6495 12.7544 45.1841C12.8063 44.7175 12.7417 44.2685 12.6166 43.9687L12.6127 43.9592C12.4369 43.5203 12.2825 43.0658 12.136 42.6348C12.0953 42.515 12.0552 42.397 12.0155 42.2817C11.8281 41.7382 11.6429 41.237 11.4135 40.779C11.2351 40.4227 11.3797 39.9894 11.7366 39.8112Z" fill="#584023"/>
<path fill-rule="evenodd" clip-rule="evenodd" d="M77.8596 44.8345C78.1813 44.5989 78.6334 44.6684 78.8693 44.9897C79.3025 45.5796 79.8835 46.6083 80.1005 47.6402C80.2095 48.1586 80.2406 48.7428 80.0534 49.2891C79.8555 49.8665 79.4355 50.3343 78.7842 50.6094L78.771 50.6149C77.6799 51.0507 76.5206 50.4955 75.9043 49.8801C75.6196 49.5958 75.363 49.2788 75.1278 48.9807C75.083 48.9239 75.0391 48.868 74.9957 48.8128C74.8072 48.5725 74.63 48.3468 74.441 48.1303C73.4162 47.0545 71.8394 46.6858 70.4346 47.1128C69.047 47.5345 67.9537 48.8122 67.7737 50.2502C67.7242 50.6455 67.3632 50.926 66.9673 50.8765C66.5714 50.8271 66.2906 50.4666 66.3401 50.0713C66.592 48.0587 68.0903 46.3172 70.014 45.7325C71.9163 45.1544 74.0776 45.6448 75.5006 47.1494C75.5069 47.156 75.513 47.1628 75.519 47.1697C75.7398 47.4216 75.949 47.6883 76.1416 47.9338C76.1827 47.9862 76.2231 48.0377 76.2627 48.0879C76.4955 48.3829 76.7067 48.641 76.9259 48.8599C77.3152 49.2486 77.8793 49.4127 78.2284 49.2776C78.5078 49.1578 78.6262 48.9977 78.6865 48.8219C78.7579 48.6134 78.7665 48.317 78.6866 47.9367C78.5257 47.1715 78.0629 46.3312 77.7042 45.8428C77.4683 45.5216 77.5378 45.0701 77.8596 44.8345Z" fill="#584023"/>
<path fill-rule="evenodd" clip-rule="evenodd" d="M74.336 34.5895C75.1416 34.3481 75.9353 34.2715 76.7031 34.2715C78.2548 34.2715 79.8388 34.4184 81.3651 34.8744C82.1841 35.0979 83.0587 35.4097 83.7985 35.9022L83.8121 35.9115C86.1727 37.5617 86.8427 40.5239 86.0071 43.0712C87.5122 45.1298 89.0593 47.3725 89.7136 49.9859C90.403 52.7398 89.9019 56.077 87.6151 58.0376C86.22 59.2645 84.369 59.6445 82.7298 59.9292L82.7233 59.9303L82.7233 59.9303C77.1615 60.8442 71.41 60.3391 65.8861 59.854C65.6551 59.8337 65.4245 59.8134 65.1944 59.7933C64.7969 59.7586 64.5029 59.4087 64.5377 59.0118C64.5725 58.6149 64.9229 58.3214 65.3203 58.3561C65.5298 58.3744 65.7393 58.3928 65.9488 58.4111C71.523 58.9001 77.1092 59.3902 82.4857 58.5072C84.1548 58.2172 85.6119 57.8786 86.6632 56.9523L86.671 56.9455C88.4121 55.4552 88.9178 52.7561 88.3119 50.3358C87.7034 47.9051 86.2083 45.7843 84.6149 43.6145C84.4683 43.4148 84.4345 43.1539 84.5254 42.9235C85.3597 40.8086 84.8246 38.3854 82.9903 37.0982C82.4381 36.7322 81.7353 36.4706 80.9762 36.2639C80.9703 36.2623 80.9645 36.2606 80.9587 36.2589C79.6083 35.8543 78.1719 35.7142 76.7031 35.7142C76.0372 35.7142 75.3966 35.7802 74.7679 35.9664C73.7765 36.3212 73.0834 37.0723 72.789 38.0719L72.7871 38.0784L72.7871 38.0783C72.3466 39.5237 72.6854 41.1613 73.6709 42.0875C73.9614 42.3605 73.9753 42.8171 73.7018 43.1072C73.4284 43.3973 72.9712 43.4112 72.6807 43.1381C71.2195 41.7647 70.8381 39.5224 71.4039 37.6616C71.8284 36.2239 72.8566 35.11 74.3031 34.6002C74.314 34.5963 74.3249 34.5928 74.336 34.5895Z" fill="#584023"/>
<path fill-rule="evenodd" clip-rule="evenodd" d="M75.0953 42.206C74.5037 42.4436 74.106 42.8683 74.0281 43.2574C74.0259 43.2686 74.0233 43.2798 74.0206 43.2909C73.9381 43.6204 73.9954 43.8302 74.0923 43.9852C74.2029 44.1622 74.4127 44.34 74.741 44.493C75.4083 44.8039 76.3351 44.9046 76.9946 44.8419C77.0173 44.8397 77.0402 44.8387 77.063 44.8387C77.2126 44.8387 77.3191 44.8342 77.4105 44.8038C77.4322 44.7966 77.4542 44.7904 77.4765 44.7852C77.9196 44.6831 78.3543 44.5418 78.662 44.3574C78.9524 44.1834 78.998 44.0577 79.0035 43.994C78.94 43.1777 78.3722 42.491 77.5545 42.2188C77.5441 42.2153 77.5338 42.2116 77.5236 42.2077C76.7562 41.913 75.8632 41.9124 75.0953 42.206ZM78.0271 40.8553C76.9279 40.4376 75.6698 40.4395 74.5721 40.8611L74.5721 40.8611L74.5632 40.8646C73.7222 41.2006 72.8311 41.9188 72.6149 42.9572C72.451 43.6276 72.5477 44.2388 72.8667 44.7491C73.1745 45.2416 73.6485 45.576 74.1301 45.8004C75.0692 46.238 76.246 46.3559 77.0957 46.2814C77.2424 46.2814 77.5284 46.278 77.8312 46.1841C78.3186 46.0701 78.9133 45.8893 79.4053 45.5945C79.8989 45.2988 80.4489 44.784 80.4489 43.9785C80.4489 43.9635 80.4484 43.9485 80.4475 43.9335C80.3558 42.4682 79.3513 41.3026 78.0271 40.8553Z" fill="#584023"/>
<path fill-rule="evenodd" clip-rule="evenodd" d="M76.6351 34.5134C76.9797 34.7142 77.0961 35.1559 76.8951 35.5C76.889 35.5105 76.8828 35.5211 76.8767 35.5316C76.3525 36.4288 75.8087 37.3597 75.6905 38.1859C75.6882 38.2024 75.6852 38.2187 75.6817 38.235C75.4936 39.1119 75.5544 40.2134 75.8139 41.1206C75.9236 41.5036 75.7014 41.9029 75.3178 42.0124C74.9342 42.1218 74.5344 41.9 74.4248 41.5169C74.1107 40.419 74.0265 39.0875 74.264 37.9567C74.4298 36.8501 75.0959 35.7138 75.5691 34.9064C75.5958 34.8609 75.6218 34.8164 75.6472 34.7731C75.8482 34.4289 76.2905 34.3127 76.6351 34.5134Z" fill="#584023"/>
<path fill-rule="evenodd" clip-rule="evenodd" d="M79.9732 34.6737C80.3088 34.8892 80.406 35.3355 80.1903 35.6706C79.8958 36.1281 79.6613 36.6103 79.4319 37.1212C79.3693 37.2608 79.3059 37.4053 79.2413 37.5524C79.0767 37.9275 78.9044 38.3201 78.717 38.6943C78.5588 39.0102 78.4529 39.4686 78.4603 39.9327C78.4677 40.4032 78.5888 40.78 78.774 41.0059C78.7777 41.0105 78.7814 41.0152 78.7851 41.0199C78.9439 41.2238 79.0702 41.2701 79.1507 41.2833C79.2488 41.2994 79.3944 41.2832 79.5999 41.187C80.0294 40.9859 80.4867 40.5464 80.8273 40.1383L80.8337 40.1306L80.8338 40.1307C81.3128 39.5726 81.5957 39.2056 81.5957 38.803C81.5957 38.4046 81.9191 38.0816 82.3181 38.0816C82.717 38.0816 83.0405 38.4046 83.0405 38.803C83.0405 39.7852 82.3878 40.5405 81.9922 40.9983C81.9721 41.0216 81.9526 41.0442 81.9339 41.0659C81.5543 41.5202 80.9333 42.1562 80.2132 42.4933C79.8428 42.6667 79.3945 42.7853 78.9168 42.707C78.4239 42.6263 77.9943 42.3516 77.6501 41.9125C77.1917 41.3487 77.0262 40.6146 77.0157 39.9556C77.0051 39.2876 77.1511 38.5957 77.4248 38.049C77.5949 37.7093 77.744 37.3695 77.9024 37.0085C77.9703 36.8538 78.0399 36.6952 78.1136 36.531C78.3522 35.9995 78.6216 35.4394 78.975 34.8905C79.1907 34.5553 79.6376 34.4583 79.9732 34.6737Z" fill="#584023"/>
</svg>
