<svg width="120" height="56" viewBox="0 0 120 56" fill="none" xmlns="http://www.w3.org/2000/svg">
<path d="M63.6553 56C28.35 55.8784 2.32826 54.784 0.570027 41.1648C-0.836556 36.3008 0.640356 15.3856 1.97661 11.3728C3.52385 6.5088 9.36117 3.104 23.3567 1.5232C33.9764 0.428804 76.3145 -2.1248 101.141 3.5904C112.253 6.144 120.341 16.7232 119.989 28.8832V29.0048C119.989 29.9776 119.989 31.9232 119.989 33.504C119.989 34.4768 119.989 35.328 119.848 36.1792C119.145 43.3536 117.668 49.6768 109.299 52.352C102.899 54.5408 96.1474 54.6624 79.9716 55.7568C79.4793 55.7568 78.987 55.7568 78.4947 55.7568L63.6553 56Z" fill="#9E9E9E"/>
</svg>
