<svg width="160" height="56" viewBox="0 0 160 56" fill="none" xmlns="http://www.w3.org/2000/svg">
<path d="M84.8737 56C37.8001 55.8784 3.10434 54.784 0.760036 41.1648C-1.11541 36.3008 0.853808 15.3856 2.63548 11.3728C4.69847 6.5088 12.4816 3.104 31.1422 1.5232C45.3018 0.428804 101.753 -2.1248 134.854 3.5904C149.67 6.144 160.454 16.7232 159.985 28.8832V29.0048C159.985 29.9776 159.985 31.9232 159.985 33.504C159.985 34.4768 159.985 35.328 159.798 36.1792C158.86 43.3536 156.891 49.6768 145.732 52.352C137.199 54.5408 128.196 54.6624 106.629 55.7568C105.972 55.7568 105.316 55.7568 104.66 55.7568L84.8737 56Z" fill="#FF1F3C"/>
</svg>
